<?xml version="1.0" encoding="UTF-8"?>
<svg xmlns="http://www.w3.org/2000/svg" xmlns:xlink="http://www.w3.org/1999/xlink" version="1.2" >
<font id="Predator Light">
<font-face  font-family="Predator" units-per-em="1000" ascent="950" descent="-200" font-style="normal" font-weight="300" font-stretch="normal" cap-height="950" x-height="500" underline-position="-75" underline-thickness="50" />
<missing-glyph  horiz-adv-x="320" d="" />
<glyph glyph-name="space" unicode="&#x20;" horiz-adv-x="320" d="" />
<glyph glyph-name="exclam" unicode="&#x21;" horiz-adv-x="262" d="M161 700 L101 700 L101 325 L116 190 L146 190 L161 325 L161 700 L161 700 Z M171 0 L171 85 L91 85 L91 0 L171 0 L171 0 Z " />
<glyph glyph-name="quotedbl" unicode="&#x22;" horiz-adv-x="337" d="M121 560 L121 700 L61 700 L61 560 L76 460 L106 460 L121 560 L121 560 Z M276 560 L276 700 L216 700 L216 560 L231 460 L261 460 L276 560 L276 560 Z " />
<glyph glyph-name="numbersign" unicode="&#x23;" horiz-adv-x="820" d="M90 440 L250 440 L200 260 L40 260 L40 200 L185 200 L135 0 L195 0 L245 200 L480 200 L420 0 L490 0 L540 200 L730 200 L730 260 L555 260 L605 440 L780 440 L780 500 L620 500 L670 700 L610 700 L560 500 L325 500 L375 700 L315 700 L265 500 L90 500 L90 440 L90 440 Z M310 440 L545 440 L495 260 L260 260 L310 440 L310 440 Z " />
<glyph glyph-name="dollar" unicode="&#x24;" horiz-adv-x="717" d="M336 -90 L391 -90 L391 0 L526 0 L656 120 L656 260 L526 380 L226 380 L131 465 L131 560 L226 645 L621 645 L621 700 L391 700 L391 790 L336 790 L336 700 L201 700 L71 580 L71 445 L201 325 L501 325 L596 240 L596 140 L501 55 L81 55 L81 0 L336 0 L336 -90 L336 -90 Z " />
<glyph glyph-name="percent" unicode="&#x25;" horiz-adv-x="887" d="M696 700 L626 700 L186 0 L256 0 L696 700 L696 700 Z M106 465 L106 605 L166 660 L251 660 L311 605 L311 465 L251 410 L166 410 L106 465 L106 465 Z M51 445 L146 360 L271 360 L366 445 L366 625 L271 710 L146 710 L51 625 L51 445 L51 445 Z M576 95 L576 235 L636 290 L721 290 L781 235 L781 95 L721 40 L636 40 L576 95 L576 95 Z M521 75 L616 -10 L741 -10 L836 75 L836 255 L741 340 L616 340 L521 255 L521 75 L521 75 Z " />
<glyph glyph-name="ampersand" unicode="&#x26;" horiz-adv-x="721" d="M546 330 L546 55 L211 55 L131 125 L131 255 L211 330 L546 330 L546 330 Z M686 385 L606 385 L606 480 L546 480 L546 385 L216 385 L151 445 L151 575 L231 645 L536 645 L536 700 L206 700 L91 595 L91 425 L161 360 L71 275 L71 105 L186 0 L606 0 L606 330 L686 330 L686 385 L686 385 Z " />
<glyph glyph-name="quotesingle" unicode="&#x27;" horiz-adv-x="182" d="M121 560 L121 700 L61 700 L61 560 L76 460 L106 460 L121 560 L121 560 Z " />
<glyph glyph-name="parenleft" unicode="&#x28;" horiz-adv-x="327" d="M242 705 L282 705 L282 760 L217 760 L102 655 L102 -95 L217 -200 L282 -200 L282 -145 L242 -145 L162 -75 L162 635 L242 705 L242 705 Z " />
<glyph glyph-name="parenright" unicode="&#x29;" horiz-adv-x="327" d="M85 -145 L45 -145 L45 -200 L110 -200 L225 -95 L225 655 L110 760 L45 760 L45 705 L85 705 L165 635 L165 -75 L85 -145 L85 -145 Z " />
<glyph glyph-name="asterisk" unicode="&#x2a;" horiz-adv-x="467" d="M261 710 L211 710 L211 570 L81 645 L56 600 L191 525 L56 450 L81 405 L211 480 L211 340 L261 340 L261 480 L386 405 L411 450 L281 525 L411 600 L386 645 L261 570 L261 710 L261 710 Z " />
<glyph glyph-name="plus" unicode="&#x2b;" horiz-adv-x="557" d="M51 325 L251 325 L251 125 L306 125 L306 325 L506 325 L506 380 L306 380 L306 580 L251 580 L251 380 L51 380 L51 325 L51 325 Z " />
<glyph glyph-name="comma" unicode="&#x2c;" horiz-adv-x="227" d="M71 -80 L101 -95 L156 0 L156 85 L76 85 L76 0 L111 0 L71 -80 L71 -80 Z " />
<glyph glyph-name="hyphen" unicode="&#x2d;" horiz-adv-x="512" d="M51 325 L461 325 L461 380 L51 380 L51 325 L51 325 Z " />
<glyph glyph-name="period" unicode="&#x2e;" horiz-adv-x="222" d="M151 0 L151 85 L71 85 L71 0 L151 0 L151 0 Z " />
<glyph glyph-name="slash" unicode="&#x2f;" horiz-adv-x="505" d="M505 700 L440 700 L0 0 L65 0 L505 700 L505 700 Z " />
<glyph glyph-name="zero" unicode="0" horiz-adv-x="777" d="M251 655 L526 655 L631 560 L631 140 L526 45 L251 45 L146 140 L146 560 L251 655 L251 655 Z M226 710 L86 580 L86 120 L226 -10 L551 -10 L691 120 L691 580 L551 710 L226 710 L226 710 Z " />
<glyph glyph-name="one" unicode="1" horiz-adv-x="482" d="M426 0 L426 55 L276 55 L276 700 L66 700 L66 645 L216 645 L216 55 L66 55 L66 0 L426 0 L426 0 Z " />
<glyph glyph-name="two" unicode="2" horiz-adv-x="712" d="M66 240 L66 0 L631 0 L631 55 L126 55 L126 220 L231 315 L506 315 L646 445 L646 595 L531 700 L91 700 L91 645 L506 645 L586 575 L586 465 L481 370 L206 370 L66 240 L66 240 Z " />
<glyph glyph-name="three" unicode="3" horiz-adv-x="696" d="M55 645 L465 645 L545 573 L545 455 L475 390 L200 390 L200 335 L490 335 L565 265 L565 125 L485 55 L45 55 L45 0 L510 0 L625 105 L625 285 L535 370 L605 435 L605 595 L490 700 L55 700 L55 645 L55 645 Z " />
<glyph glyph-name="four" unicode="4" horiz-adv-x="725" d="M530 0 L590 0 L590 150 L685 150 L685 205 L590 205 L590 700 L520 700 L35 200 L35 150 L530 150 L530 0 L530 0 Z M530 205 L115 205 L530 635 L530 205 L530 205 Z " />
<glyph glyph-name="five" unicode="5" horiz-adv-x="707" d="M516 0 L646 120 L646 290 L516 410 L161 410 L161 645 L601 645 L601 700 L101 700 L101 355 L491 355 L586 270 L586 140 L491 55 L91 55 L91 0 L516 0 L516 0 Z " />
<glyph glyph-name="six" unicode="6" horiz-adv-x="727" d="M216 -10 L536 -10 L666 110 L666 305 L536 425 L146 425 L146 550 L251 645 L616 645 L616 700 L226 700 L86 570 L86 110 L216 -10 L216 -10 Z M606 285 L606 130 L511 45 L241 45 L146 130 L146 370 L511 370 L606 285 L606 285 Z " />
<glyph glyph-name="seven" unicode="7" horiz-adv-x="620" d="M20 645 L520 645 L150 0 L215 0 L590 655 L590 700 L20 700 L20 645 L20 645 Z " />
<glyph glyph-name="eight" unicode="8" horiz-adv-x="727" d="M546 -10 L661 95 L661 280 L566 370 L641 440 L641 605 L526 710 L201 710 L86 605 L86 440 L161 370 L66 280 L66 95 L181 -10 L546 -10 L546 -10 Z M516 340 L601 260 L601 115 L521 45 L206 45 L126 115 L126 260 L211 340 L516 340 L516 340 Z M226 655 L501 655 L581 585 L581 460 L511 395 L216 395 L146 460 L146 585 L226 655 L226 655 Z " />
<glyph glyph-name="nine" unicode="9" horiz-adv-x="727" d="M511 710 L191 710 L61 590 L61 395 L191 275 L581 275 L581 150 L476 55 L111 55 L111 0 L501 0 L641 130 L641 590 L511 710 L511 710 Z M121 415 L121 570 L216 655 L486 655 L581 570 L581 330 L216 330 L121 415 L121 415 Z " />
<glyph glyph-name="colon" unicode="&#x3a;" horiz-adv-x="222" d="M151 0 L151 85 L71 85 L71 0 L151 0 L151 0 Z M151 415 L151 500 L71 500 L71 415 L151 415 L151 415 Z " />
<glyph glyph-name="semicolon" unicode="&#x3b;" horiz-adv-x="227" d="M156 415 L156 500 L76 500 L76 415 L156 415 L156 415 Z M71 -80 L101 -95 L156 0 L156 85 L76 85 L76 0 L111 0 L71 -80 L71 -80 Z " />
<glyph glyph-name="less" unicode="&#x3c;" horiz-adv-x="422" d="M51 255 L321 -10 L361 30 L131 255 L361 480 L321 520 L51 255 L51 255 Z " />
<glyph glyph-name="equal" unicode="&#x3d;" horiz-adv-x="552" d="M61 210 L491 210 L491 265 L61 265 L61 210 L61 210 Z M61 395 L491 395 L491 450 L61 450 L61 395 L61 395 Z " />
<glyph glyph-name="greater" unicode="&#x3e;" horiz-adv-x="422" d="M371 255 L101 520 L61 480 L291 255 L61 30 L101 -10 L371 255 L371 255 Z " />
<glyph glyph-name="question" unicode="&#x3f;" horiz-adv-x="631" d="M410 345 L255 345 L220 315 L220 190 L280 190 L280 290 L435 290 L570 415 L570 575 L435 700 L20 700 L20 645 L410 645 L510 555 L510 435 L410 345 L410 345 Z M290 0 L290 85 L210 85 L210 0 L290 0 L290 0 Z " />
<glyph glyph-name="at" unicode="&#x40;" horiz-adv-x="997" d="M261 730 L91 570 L91 120 L261 -40 L776 -40 L776 15 L286 15 L151 140 L151 550 L286 675 L721 675 L856 549 L856 280 L771 205 L711 205 L666 245 L666 540 L421 540 L326 450 L326 240 L421 150 L586 150 L636 195 L686 150 L796 150 L916 260 L916 570 L746 730 L261 730 L261 730 Z M386 260 L386 430 L446 485 L606 485 L606 245 L561 205 L446 205 L386 260 L386 260 Z " />
<glyph glyph-name="A" unicode="A" horiz-adv-x="740" d="M175 210 L565 210 L665 0 L730 0 L395 700 L345 700 L10 0 L75 0 L175 210 L175 210 Z M540 265 L200 265 L370 620 L540 265 L540 265 Z " />
<glyph glyph-name="B" unicode="B" horiz-adv-x="788" d="M613 375 L682 440 L682 595 L567 700 L102 700 L102 0 L602 0 L717 105 L717 281 L613 375 L613 375 Z M577 55 L162 55 L162 335 L572 335 L657 260 L657 125 L577 55 L577 55 Z M622 575 L622 460 L547 390 L162 390 L162 645 L542 645 L622 575 L622 575 Z " />
<glyph glyph-name="C" unicode="C" horiz-adv-x="712" d="M656 55 L251 55 L146 150 L146 550 L251 645 L656 645 L656 700 L226 700 L86 570 L86 130 L226 0 L656 0 L656 55 L656 55 Z " />
<glyph glyph-name="D" unicode="D" horiz-adv-x="798" d="M102 0 L572 0 L712 130 L712 570 L572 700 L102 700 L102 0 L102 0 Z M162 55 L162 645 L548 645 L652 550 L652 150 L547 55 L162 55 L162 55 Z " />
<glyph glyph-name="E" unicode="E" horiz-adv-x="728" d="M102 700 L102 0 L677 0 L677 55 L162 55 L162 325 L562 325 L562 380 L162 380 L162 645 L667 645 L667 700 L102 700 L102 700 Z " />
<glyph glyph-name="F" unicode="F" horiz-adv-x="692" d="M102 700 L102 0 L162 0 L162 295 L557 295 L557 350 L162 350 L162 645 L652 645 L652 700 L102 700 L102 700 Z " />
<glyph glyph-name="G" unicode="G" horiz-adv-x="797" d="M661 150 L556 55 L251 55 L146 150 L146 550 L251 645 L651 645 L651 700 L226 700 L86 570 L86 130 L226 0 L581 0 L721 130 L721 385 L426 385 L426 330 L661 330 L661 150 L661 150 Z " />
<glyph glyph-name="H" unicode="H" horiz-adv-x="804" d="M162 325 L642 325 L642 0 L702 0 L702 700 L642 700 L642 380 L162 380 L162 700 L102 700 L102 0 L162 0 L162 325 L162 325 Z " />
<glyph glyph-name="I" unicode="I" horiz-adv-x="492" d="M416 0 L416 55 L276 55 L276 645 L416 645 L416 700 L76 700 L76 645 L216 645 L216 55 L76 55 L76 0 L416 0 L416 0 Z " />
<glyph glyph-name="J" unicode="J" horiz-adv-x="577" d="M415 150 L310 55 L20 55 L20 0 L335 0 L475 130 L475 700 L415 700 L415 150 L415 150 Z " />
<glyph glyph-name="K" unicode="K" horiz-adv-x="712" d="M162 325 L382 325 L627 0 L702 0 L427 360 L682 700 L607 700 L372 380 L162 380 L162 700 L102 700 L102 0 L162 0 L162 325 L162 325 Z " />
<glyph glyph-name="L" unicode="L" horiz-adv-x="647" d="M102 700 L102 0 L627 0 L627 55 L162 55 L162 700 L102 700 L102 700 Z " />
<glyph glyph-name="M" unicode="M" horiz-adv-x="954" d="M457 180 L497 180 L792 595 L792 0 L852 0 L852 700 L792 700 L477 255 L162 700 L102 700 L102 0 L162 0 L162 595 L457 180 L457 180 Z " />
<glyph glyph-name="N" unicode="N" horiz-adv-x="799" d="M637 100 L157 700 L102 700 L102 0 L162 0 L162 600 L642 0 L697 0 L697 700 L637 700 L637 100 L637 100 Z " />
<glyph glyph-name="O" unicode="O" horiz-adv-x="807" d="M556 45 L251 45 L146 140 L146 560 L251 655 L556 655 L661 560 L661 140 L556 45 L556 45 Z M581 -10 L721 120 L721 580 L581 710 L226 710 L86 580 L86 120 L226 -10 L581 -10 L581 -10 Z " />
<glyph glyph-name="P" unicode="P" horiz-adv-x="753" d="M568 245 L697 365 L697 580 L567 700 L102 700 L102 0 L162 0 L162 245 L568 245 L568 245 Z M637 560 L637 385 L542 300 L162 300 L162 645 L542 645 L637 560 L637 560 Z " />
<glyph glyph-name="Q" unicode="Q" horiz-adv-x="805" d="M581 -10 L616 25 L707 -90 L775 -90 L656 60 L721 120 L721 580 L581 710 L226 710 L86 580 L86 120 L226 -10 L581 -10 L581 -10 Z M476 200 L581 70 L556 45 L251 45 L146 140 L146 560 L251 655 L556 655 L661 560 L661 140 L621 105 L546 200 L476 200 L476 200 Z " />
<glyph glyph-name="R" unicode="R" horiz-adv-x="767" d="M492 260 L662 0 L727 0 L557 260 L687 380 L687 580 L557 700 L102 700 L102 0 L162 0 L162 260 L492 260 L492 260 Z M627 560 L627 400 L532 315 L162 315 L162 645 L532 645 L627 560 L627 560 Z " />
<glyph glyph-name="S" unicode="S" horiz-adv-x="732" d="M201 325 L516 325 L611 240 L611 140 L516 55 L81 55 L81 0 L541 0 L671 120 L671 260 L541 380 L226 380 L131 465 L131 560 L226 645 L631 645 L631 700 L201 700 L71 580 L71 445 L201 325 L201 325 Z " />
<glyph glyph-name="T" unicode="T" horiz-adv-x="650" d="M355 0 L355 645 L630 645 L630 700 L20 700 L20 645 L295 645 L295 0 L355 0 L355 0 Z " />
<glyph glyph-name="U" unicode="U" horiz-adv-x="814" d="M652 140 L547 45 L267 45 L162 140 L162 700 L102 700 L102 120 L242 -10 L572 -10 L712 120 L712 700 L652 700 L652 140 L652 140 Z " />
<glyph glyph-name="V" unicode="V" horiz-adv-x="710" d="M355 60 L75 700 L10 700 L315 0 L395 0 L700 700 L635 700 L355 60 L355 60 Z " />
<glyph glyph-name="W" unicode="W" horiz-adv-x="1060" d="M530 600 L735 0 L815 0 L1040 700 L975 700 L775 65 L560 700 L500 700 L285 65 L85 700 L20 700 L245 0 L325 0 L530 600 L530 600 Z " />
<glyph glyph-name="X" unicode="X" horiz-adv-x="665" d="M370 365 L635 700 L560 700 L330 410 L105 700 L30 700 L295 365 L10 0 L85 0 L330 315 L580 0 L655 0 L370 365 L370 365 Z " />
<glyph glyph-name="Y" unicode="Y" horiz-adv-x="690" d="M315 0 L375 0 L375 260 L690 700 L615 700 L345 320 L75 700 L0 700 L315 260 L315 0 L315 0 Z " />
<glyph glyph-name="Z" unicode="Z" horiz-adv-x="660" d="M620 0 L620 55 L120 55 L610 655 L610 700 L55 700 L55 645 L530 645 L40 45 L40 0 L620 0 L620 0 Z " />
<glyph glyph-name="bracketleft" unicode="&#x5b;" horiz-adv-x="347" d="M302 -200 L302 -145 L162 -145 L162 705 L302 705 L302 760 L102 760 L102 -200 L302 -200 L302 -200 Z " />
<glyph glyph-name="backslash" unicode="&#x5c;" horiz-adv-x="505" d="M440 0 L505 0 L65 700 L0 700 L440 0 L440 0 Z " />
<glyph glyph-name="bracketright" unicode="&#x5d;" horiz-adv-x="347" d="M45 760 L45 705 L185 705 L185 -145 L45 -145 L45 -200 L245 -200 L245 760 L45 760 L45 760 Z " />
<glyph glyph-name="asciicircum" unicode="&#x5e;" horiz-adv-x="470" d="M255 700 L215 700 L30 480 L100 480 L235 640 L370 480 L440 480 L255 700 L255 700 Z " />
<glyph glyph-name="underscore" unicode="&#x5f;" horiz-adv-x="400" d="M0 -125 L400 -125 L400 -70 L0 -70 L0 -125 L0 -125 Z " />
<glyph glyph-name="grave" unicode="&#x60;" horiz-adv-x="272" d="M61 750 L166 570 L211 570 L136 750 L61 750 L61 750 Z " />
<glyph glyph-name="a" unicode="a" horiz-adv-x="587" d="M446 125 L366 55 L181 55 L111 115 L111 175 L181 235 L446 235 L446 125 L446 125 Z M451 60 L461 0 L506 0 L506 400 L396 500 L111 500 L111 445 L371 445 L446 380 L446 290 L156 290 L51 195 L51 95 L156 0 L386 0 L451 60 L451 60 Z " />
<glyph glyph-name="b" unicode="b" horiz-adv-x="622" d="M91 700 L91 0 L431 0 L556 115 L556 385 L431 500 L151 500 L151 700 L91 700 L91 700 Z M406 55 L151 55 L151 445 L406 445 L496 365 L496 135 L406 55 L406 55 Z " />
<glyph glyph-name="c" unicode="c" horiz-adv-x="531" d="M126 135 L126 365 L216 445 L486 445 L486 500 L191 500 L66 385 L66 115 L191 0 L486 0 L486 55 L216 55 L126 135 L126 135 Z " />
<glyph glyph-name="d" unicode="d" horiz-adv-x="622" d="M486 0 L531 0 L531 700 L471 700 L471 500 L191 500 L66 385 L66 115 L191 0 L411 0 L476 60 L486 0 L486 0 Z M126 135 L126 365 L216 445 L471 445 L471 125 L391 55 L216 55 L126 135 L126 135 Z " />
<glyph glyph-name="e" unicode="e" horiz-adv-x="582" d="M191 510 L66 395 L66 115 L191 0 L481 0 L481 55 L216 55 L126 135 L126 220 L521 220 L521 395 L396 510 L191 510 L191 510 Z M126 375 L216 455 L371 455 L461 375 L461 275 L126 275 L126 375 L126 375 Z " />
<glyph glyph-name="f" unicode="f" horiz-adv-x="410" d="M40 420 L150 420 L150 0 L210 0 L210 420 L375 420 L375 475 L210 475 L210 565 L300 645 L440 645 L440 700 L275 700 L150 585 L150 475 L40 475 L40 420 L40 420 Z " />
<glyph glyph-name="g" unicode="g" horiz-adv-x="622" d="M216 445 L476 445 L476 55 L216 55 L126 135 L126 365 L216 445 L216 445 Z M476 -65 L386 -145 L121 -145 L121 -200 L411 -200 L536 -85 L536 500 L191 500 L66 385 L66 115 L191 0 L476 0 L476 -65 L476 -65 Z " />
<glyph glyph-name="h" unicode="h" horiz-adv-x="632" d="M91 700 L91 0 L151 0 L151 445 L411 445 L491 375 L491 0 L551 0 L551 395 L436 500 L151 500 L151 700 L91 700 L91 700 Z " />
<glyph glyph-name="i" unicode="i" horiz-adv-x="242" d="M151 0 L151 500 L91 500 L91 0 L151 0 L151 0 Z M151 600 L151 700 L91 700 L91 600 L151 600 L151 600 Z " />
<glyph glyph-name="j" unicode="j" horiz-adv-x="262" d="M21 -145 L-74 -145 L-74 -200 L46 -200 L171 -85 L171 500 L111 500 L111 -65 L21 -145 L21 -145 Z M171 600 L171 700 L111 700 L111 600 L171 600 L171 600 Z " />
<glyph glyph-name="k" unicode="k" horiz-adv-x="551" d="M541 0 L356 260 L526 500 L456 500 L301 285 L151 285 L151 700 L91 700 L91 0 L151 0 L151 230 L306 230 L471 0 L541 0 L541 0 Z " />
<glyph glyph-name="l" unicode="l" horiz-adv-x="276" d="M185 0 L185 700 L40 700 L40 645 L125 645 L125 0 L185 0 L185 0 Z " />
<glyph glyph-name="m" unicode="m" horiz-adv-x="907" d="M686 445 L766 375 L766 0 L826 0 L826 395 L711 500 L536 500 L461 430 L451 430 L376 500 L206 500 L141 440 L131 500 L86 500 L86 0 L146 0 L146 375 L226 445 L351 445 L426 380 L426 0 L486 0 L486 380 L561 445 L686 445 L686 445 Z " />
<glyph glyph-name="n" unicode="n" horiz-adv-x="627" d="M131 500 L86 500 L86 0 L146 0 L146 375 L226 445 L406 445 L486 375 L486 0 L546 0 L546 395 L431 500 L206 500 L141 440 L131 500 L131 500 Z " />
<glyph glyph-name="o" unicode="o" horiz-adv-x="612" d="M66 395 L66 105 L191 -10 L421 -10 L546 105 L546 395 L421 510 L191 510 L66 395 L66 395 Z M486 375 L486 125 L396 45 L216 45 L126 125 L126 375 L216 455 L396 455 L486 375 L486 375 Z " />
<glyph glyph-name="p" unicode="p" horiz-adv-x="617" d="M131 500 L86 500 L86 -200 L146 -200 L146 0 L426 0 L551 115 L551 385 L426 500 L206 500 L141 440 L131 500 L131 500 Z M491 365 L491 135 L401 55 L146 55 L146 375 L226 445 L401 445 L491 365 L491 365 Z " />
<glyph glyph-name="q" unicode="q" horiz-adv-x="617" d="M531 -200 L531 500 L191 500 L66 385 L66 115 L191 0 L471 0 L471 -200 L531 -200 L531 -200 Z M216 445 L471 445 L471 55 L216 55 L126 135 L126 365 L216 445 L216 445 Z " />
<glyph glyph-name="r" unicode="r" horiz-adv-x="441" d="M131 500 L86 500 L86 0 L146 0 L146 375 L226 445 L431 445 L431 500 L206 500 L141 440 L131 500 L131 500 Z " />
<glyph glyph-name="s" unicode="s" horiz-adv-x="546" d="M181 280 L116 345 L116 380 L186 445 L471 445 L471 500 L161 500 L56 405 L56 320 L156 225 L371 225 L441 165 L441 115 L371 55 L61 55 L61 0 L396 0 L501 95 L501 185 L396 280 L181 280 L181 280 Z " />
<glyph glyph-name="t" unicode="t" horiz-adv-x="440" d="M30 445 L140 445 L140 115 L265 0 L410 0 L410 55 L290 55 L200 135 L200 445 L365 445 L365 500 L200 500 L200 630 L140 630 L140 500 L30 500 L30 445 L30 445 Z " />
<glyph glyph-name="u" unicode="u" horiz-adv-x="632" d="M501 0 L546 0 L546 500 L486 500 L486 125 L406 55 L226 55 L146 125 L146 500 L86 500 L86 105 L201 0 L426 0 L491 60 L501 0 L501 0 Z " />
<glyph glyph-name="v" unicode="v" horiz-adv-x="540" d="M270 60 L75 500 L10 500 L235 0 L305 0 L530 500 L465 500 L270 60 L270 60 Z " />
<glyph glyph-name="w" unicode="w" horiz-adv-x="780" d="M565 85 L415 500 L365 500 L215 85 L80 500 L20 500 L185 0 L240 0 L390 414 L540 0 L595 0 L760 500 L700 500 L565 85 L565 85 Z " />
<glyph glyph-name="x" unicode="x" horiz-adv-x="500" d="M490 0 L285 260 L480 500 L410 500 L250 300 L90 500 L20 500 L215 260 L10 0 L80 0 L250 220 L420 0 L490 0 L490 0 Z " />
<glyph glyph-name="y" unicode="y" horiz-adv-x="632" d="M486 0 L486 -65 L396 -145 L136 -145 L136 -200 L421 -200 L546 -85 L546 500 L486 500 L486 55 L226 55 L146 125 L146 500 L86 500 L86 105 L201 0 L486 0 L486 0 Z " />
<glyph glyph-name="z" unicode="z" horiz-adv-x="490" d="M450 455 L450 500 L40 500 L40 445 L370 445 L30 45 L30 0 L460 0 L460 55 L110 55 L450 455 L450 455 Z " />
<glyph glyph-name="braceleft" unicode="&#x7b;" horiz-adv-x="381" d="M291 705 L336 705 L336 760 L266 760 L156 660 L156 385 L71 305 L71 265 L156 185 L156 -100 L266 -200 L336 -200 L336 -145 L291 -145 L216 -75 L216 205 L131 285 L216 365 L216 635 L291 705 L291 705 Z " />
<glyph glyph-name="bar" unicode="&#x7c;" horiz-adv-x="304" d="M122 -200 L182 -200 L182 760 L122 760 L122 -200 L122 -200 Z " />
<glyph glyph-name="braceright" unicode="&#x7d;" horiz-adv-x="381" d="M165 635 L165 365 L250 285 L165 205 L165 -75 L90 -145 L45 -145 L45 -200 L115 -200 L225 -100 L225 185 L310 265 L310 305 L225 385 L225 660 L115 760 L45 760 L45 705 L90 705 L165 635 L165 635 Z " />
<glyph glyph-name="asciitilde" unicode="&#x7e;" horiz-adv-x="525" d="M185 415 L40 295 L75 255 L185 345 L340 235 L485 355 L450 395 L340 305 L185 415 L185 415 Z " />
<glyph glyph-name="nbspace" unicode="&#xa0;" horiz-adv-x="330" d="" />
<glyph glyph-name="exclamdown" unicode="&#xa1;" horiz-adv-x="262" d="M99 -200 L159 -200 L159 175 L144 310 L114 310 L99 175 L99 -200 L99 -200 Z M89 500 L89 415 L169 415 L169 500 L89 500 L89 500 Z " />
<glyph glyph-name="cent" unicode="&#xa2;" horiz-adv-x="541" d="M351 590 L296 590 L296 500 L191 500 L66 385 L66 115 L191 0 L296 0 L296 -90 L351 -90 L351 0 L496 0 L496 55 L351 55 L351 445 L496 445 L496 500 L351 500 L351 590 L351 590 Z M126 135 L126 365 L216 445 L296 445 L296 55 L216 55 L126 135 L126 135 Z " />
<glyph glyph-name="sterling" unicode="&#xa3;" horiz-adv-x="645" d="M180 55 L260 130 L260 325 L540 325 L540 380 L260 380 L260 550 L365 645 L545 645 L545 700 L340 700 L200 570 L200 380 L80 380 L80 325 L200 325 L200 150 L100 55 L40 55 L40 0 L615 0 L615 55 L180 55 L180 55 Z " />
<glyph glyph-name="currency" unicode="&#xa4;" horiz-adv-x="772" d="M56 135 L141 135 L141 0 L201 0 L201 135 L596 135 L596 190 L201 190 L201 280 L586 280 L716 400 L716 580 L586 700 L141 700 L141 335 L56 335 L56 280 L141 280 L141 190 L56 190 L56 135 L56 135 Z M656 560 L656 420 L561 335 L201 335 L201 645 L561 645 L656 560 L656 560 Z " />
<glyph glyph-name="yen" unicode="&#xa5;" horiz-adv-x="690" d="M315 0 L375 0 L375 135 L610 135 L610 190 L375 190 L375 260 L390 280 L610 280 L610 335 L430 335 L690 700 L615 700 L345 320 L75 700 L0 700 L260 335 L80 335 L80 280 L300 280 L315 260 L315 190 L80 190 L80 135 L315 135 L315 0 L315 0 Z " />
<glyph glyph-name="brokenbar" unicode="&#xa6;" horiz-adv-x="284" d="M112 360 L172 360 L172 760 L112 760 L112 360 L112 360 Z M172 200 L112 200 L112 -200 L172 -200 L172 200 L172 200 Z " />
<glyph glyph-name="section" unicode="&#xa7;" horiz-adv-x="667" d="M451 430 L206 430 L146 485 L146 560 L241 645 L546 645 L546 700 L216 700 L86 580 L86 465 L151 405 L86 345 L86 195 L216 75 L461 75 L521 20 L521 -60 L426 -145 L96 -145 L96 -200 L451 -200 L581 -80 L581 40 L516 100 L581 160 L581 310 L451 430 L451 430 Z M146 215 L146 325 L201 375 L426 375 L521 290 L521 180 L466 130 L241 130 L146 215 L146 215 Z " />
<glyph glyph-name="dieresis" unicode="&#xa8;" horiz-adv-x="382" d="M136 620 L136 705 L61 705 L61 620 L136 620 L136 620 Z M321 620 L321 705 L246 705 L246 620 L321 620 L321 620 Z " />
<glyph glyph-name="copyright" unicode="&#xa9;" horiz-adv-x="1022" d="M876 550 L876 140 L741 15 L281 15 L146 140 L146 550 L281 675 L741 675 L876 550 L876 550 Z M256 730 L86 570 L86 120 L256 -40 L766 -40 L936 120 L936 570 L766 730 L256 730 L256 730 Z M666 200 L446 200 L391 250 L391 440 L446 490 L666 490 L666 540 L426 540 L336 460 L336 230 L426 150 L666 150 L666 200 L666 200 Z " />
<glyph glyph-name="ordfeminine" unicode="&#xaa;" horiz-adv-x="477" d="M361 430 L306 380 L161 380 L116 420 L116 460 L161 500 L361 500 L361 430 L361 430 Z M366 375 L376 330 L416 330 L416 622 L331 700 L101 700 L101 650 L311 650 L361 605 L361 550 L141 550 L61 475 L61 405 L141 330 L316 330 L366 375 L366 375 Z " />
<glyph glyph-name="guillemotleft" unicode="&#xab;" horiz-adv-x="567" d="M260 5 L300 40 L125 250 L300 460 L260 495 L51 250 L260 5 L260 5 Z M466 5 L506 40 L331 250 L506 460 L466 495 L257 250 L466 5 L466 5 Z " />
<glyph glyph-name="logicalnot" unicode="&#xac;" horiz-adv-x="542" d="M51 325 L436 325 L436 235 L491 235 L491 380 L51 380 L51 325 L51 325 Z " />
<glyph glyph-name="uni00AD" unicode="&#xad;" horiz-adv-x="502" d="M51 325 L451 325 L451 380 L51 380 L51 325 L51 325 Z " />
<glyph glyph-name="registered" unicode="&#xae;" horiz-adv-x="1022" d="M876 550 L876 140 L741 15 L281 15 L146 140 L146 550 L281 675 L741 675 L876 550 L876 550 Z M256 730 L86 570 L86 120 L256 -40 L766 -40 L936 120 L936 570 L766 730 L256 730 L256 730 Z M631 150 L696 150 L606 295 L681 365 L681 470 L601 540 L341 540 L341 150 L396 150 L396 290 L546 290 L631 150 L631 150 Z M576 490 L626 445 L626 385 L576 340 L396 340 L396 490 L576 490 L576 490 Z " />
<glyph glyph-name="macron" unicode="&#xaf;" horiz-adv-x="402" d="M51 630 L351 630 L351 685 L51 685 L51 630 L51 630 Z " />
<glyph glyph-name="degree" unicode="&#xb0;" horiz-adv-x="472" d="M126 460 L126 605 L191 660 L281 660 L346 605 L346 460 L281 405 L191 405 L126 460 L126 460 Z M71 440 L166 355 L306 355 L401 440 L401 625 L306 710 L166 710 L71 625 L71 440 L71 440 Z " />
<glyph glyph-name="plusminus" unicode="&#xb1;" horiz-adv-x="577" d="M71 75 L506 75 L506 130 L71 130 L71 75 L71 75 Z M61 405 L261 405 L261 205 L316 205 L316 405 L516 405 L516 460 L316 460 L316 660 L261 660 L261 460 L61 460 L61 405 L61 405 Z " />
<glyph glyph-name="twosuperior" unicode="&#xb2;" horiz-adv-x="427" d="M116 420 L116 468 L157 505 L306 505 L366 560 L366 640 L301 700 L71 700 L71 650 L276 650 L311 620 L311 580 L281 555 L131 555 L61 490 L61 370 L356 370 L356 420 L116 420 L116 420 Z " />
<glyph glyph-name="threesuperior" unicode="&#xb3;" horiz-adv-x="427" d="M271 560 L141 560 L141 515 L281 515 L311 490 L311 445 L286 420 L61 420 L61 370 L311 370 L366 420 L366 500 L321 540 L356 570 L356 650 L301 700 L66 700 L66 655 L276 655 L301 630 L301 585 L271 560 L271 560 Z " />
<glyph glyph-name="acute" unicode="&#xb4;" horiz-adv-x="272" d="M61 570 L106 570 L211 750 L136 750 L61 570 L61 570 Z " />
<glyph glyph-name="mu" unicode="&#xb5;" horiz-adv-x="632" d="M146 50 L201 0 L426 0 L491 60 L501 0 L546 0 L546 500 L486 500 L486 125 L406 55 L226 55 L146 125 L146 500 L86 500 L86 -200 L146 -200 L146 50 L146 50 Z " />
<glyph glyph-name="paragraph" unicode="&#xb6;" horiz-adv-x="603" d="M281 270 L281 -200 L341 -200 L341 700 L206 700 L76 580 L76 390 L206 270 L281 270 L281 270 Z M431 700 L431 -200 L491 -200 L491 700 L431 700 L431 700 Z " />
<glyph glyph-name="periodcentered" unicode="&#xb7;" horiz-adv-x="324" d="M202 305 L202 390 L122 390 L122 305 L202 305 L202 305 Z " />
<glyph glyph-name="cedilla" unicode="&#xb8;" horiz-adv-x="297" d="M76 0 L76 -75 L136 -75 L186 -120 L186 -145 L136 -190 L61 -190 L61 -235 L156 -235 L236 -160 L236 -105 L156 -30 L126 -30 L126 0 L76 0 L76 0 Z " />
<glyph glyph-name="onesuperior" unicode="&#xb9;" horiz-adv-x="307" d="M246 370 L246 420 L181 420 L181 700 L61 700 L61 650 L126 650 L126 420 L61 420 L61 370 L246 370 L246 370 Z " />
<glyph glyph-name="ordmasculine" unicode="&#xba;" horiz-adv-x="477" d="M61 620 L61 410 L151 330 L326 330 L416 410 L416 620 L326 700 L151 700 L61 620 L61 620 Z M361 600 L361 430 L301 380 L176 380 L116 430 L116 600 L176 650 L301 650 L361 600 L361 600 Z " />
<glyph glyph-name="guillemotright" unicode="&#xbb;" horiz-adv-x="567" d="M306 495 L266 460 L441 250 L266 40 L306 5 L516 250 L306 495 L306 495 Z M101 495 L61 460 L236 250 L61 40 L101 5 L311 250 L101 495 L101 495 Z " />
<glyph glyph-name="onequarter" unicode="&#xbc;" horiz-adv-x="842" d="M691 700 L621 700 L181 0 L251 0 L691 700 L691 700 Z M246 370 L246 420 L181 420 L181 700 L61 700 L61 650 L126 650 L126 420 L61 420 L61 370 L246 370 L246 370 Z M691 0 L746 0 L746 70 L791 70 L791 120 L746 120 L746 330 L686 330 L461 114 L461 70 L691 70 L691 0 L691 0 Z M691 120 L531 120 L691 275 L691 120 L691 120 Z " />
<glyph glyph-name="onehalf" unicode="&#xbd;" horiz-adv-x="932" d="M621 50 L621 98 L662 135 L811 135 L871 190 L871 270 L806 330 L576 330 L576 280 L781 280 L816 250 L816 210 L786 185 L636 185 L566 120 L566 0 L861 0 L861 50 L621 50 L621 50 Z M691 700 L621 700 L181 0 L251 0 L691 700 L691 700 Z M246 370 L246 420 L181 420 L181 700 L61 700 L61 650 L126 650 L126 420 L61 420 L61 370 L246 370 L246 370 Z " />
<glyph glyph-name="threequarters" unicode="&#xbe;" horiz-adv-x="915" d="M286 560 L156 560 L156 515 L296 515 L326 490 L326 445 L301 420 L76 420 L76 370 L326 370 L381 420 L381 500 L336 540 L371 570 L371 650 L316 700 L81 700 L81 655 L291 655 L316 630 L316 585 L286 560 L286 560 Z M761 700 L691 700 L251 0 L321 0 L761 700 L761 700 Z M764 0 L819 0 L819 70 L864 70 L864 120 L819 120 L819 330 L759 330 L534 114 L534 70 L764 70 L764 0 L764 0 Z M764 120 L604 120 L764 275 L764 120 L764 120 Z " />
<glyph glyph-name="questiondown" unicode="&#xbf;" horiz-adv-x="631" d="M221 155 L376 155 L411 185 L411 310 L351 310 L351 210 L196 210 L61 85 L61 -75 L196 -200 L611 -200 L611 -145 L221 -145 L121 -55 L121 65 L221 155 L221 155 Z M341 500 L341 415 L421 415 L421 500 L341 500 L341 500 Z " />
<glyph glyph-name="Agrave" unicode="&#xc0;" horiz-adv-x="740" d="M175 210 L565 210 L665 0 L730 0 L395 700 L345 700 L10 0 L75 0 L175 210 L175 210 Z M540 265 L200 265 L370 620 L540 265 L540 265 Z M242 950 L347 770 L392 770 L317 950 L242 950 L242 950 Z " />
<glyph glyph-name="Aacute" unicode="&#xc1;" horiz-adv-x="740" d="M175 210 L565 210 L665 0 L730 0 L395 700 L345 700 L10 0 L75 0 L175 210 L175 210 Z M540 265 L200 265 L370 620 L540 265 L540 265 Z M347 770 L392 770 L497 950 L422 950 L347 770 L347 770 Z " />
<glyph glyph-name="Acircumflex" unicode="&#xc2;" horiz-adv-x="740" d="M175 210 L565 210 L665 0 L730 0 L395 700 L345 700 L10 0 L75 0 L175 210 L175 210 Z M540 265 L200 265 L370 620 L540 265 L540 265 Z M335 929 L215 779 L280 779 L370 889 L460 779 L525 779 L405 929 L335 929 L335 929 Z " />
<glyph glyph-name="Atilde" unicode="&#xc3;" horiz-adv-x="740" d="M175 210 L565 210 L665 0 L730 0 L395 700 L345 700 L10 0 L75 0 L175 210 L175 210 Z M540 265 L200 265 L370 620 L540 265 L540 265 Z M323 855 L423 800 L523 860 L498 910 L423 860 L323 915 L218 845 L243 800 L323 855 L323 855 Z " />
<glyph glyph-name="Adieresis" unicode="&#xc4;" horiz-adv-x="740" d="M175 210 L565 210 L665 0 L730 0 L395 700 L345 700 L10 0 L75 0 L175 210 L175 210 Z M540 265 L200 265 L370 620 L540 265 L540 265 Z M315 820 L315 905 L240 905 L240 820 L315 820 L315 820 Z M500 820 L500 905 L425 905 L425 820 L500 820 L500 820 Z " />
<glyph glyph-name="Aring" unicode="&#xc5;" horiz-adv-x="740" d="M175 210 L565 210 L665 0 L730 0 L395 700 L345 700 L10 0 L75 0 L175 210 L175 210 Z M540 265 L200 265 L370 620 L540 265 L540 265 Z M305 835 L305 900 L345 935 L395 935 L435 900 L435 835 L395 800 L345 800 L305 835 L305 835 Z M255 815 L325 755 L415 755 L485 815 L485 920 L415 980 L325 980 L255 920 L255 815 L255 815 Z " />
<glyph glyph-name="AE" unicode="&#xc6;" horiz-adv-x="1111" d="M1060 0 L1060 55 L585 55 L585 325 L950 325 L950 380 L585 380 L585 645 L1050 645 L1050 700 L325 700 L10 0 L75 0 L170 210 L525 210 L525 0 L1060 0 L1060 0 Z M365 645 L525 645 L525 265 L195 265 L365 645 L365 645 Z " />
<glyph glyph-name="Ccedilla" unicode="&#xc7;" horiz-adv-x="712" d="M656 55 L251 55 L146 150 L146 550 L251 645 L656 645 L656 700 L226 700 L86 570 L86 130 L226 0 L656 0 L656 55 L656 55 Z M371 0 L371 -75 L431 -75 L481 -120 L481 -145 L431 -190 L356 -190 L356 -235 L451 -235 L531 -160 L531 -105 L451 -30 L421 -30 L421 0 L371 0 L371 0 Z " />
<glyph glyph-name="Egrave" unicode="&#xc8;" horiz-adv-x="728" d="M102 700 L102 0 L677 0 L677 55 L162 55 L162 325 L562 325 L562 380 L162 380 L162 645 L667 645 L667 700 L102 700 L102 700 Z M261 950 L366 770 L411 770 L336 950 L261 950 L261 950 Z " />
<glyph glyph-name="Eacute" unicode="&#xc9;" horiz-adv-x="728" d="M102 700 L102 0 L677 0 L677 55 L162 55 L162 325 L562 325 L562 380 L162 380 L162 645 L667 645 L667 700 L102 700 L102 700 Z M366 770 L411 770 L516 950 L441 950 L366 770 L366 770 Z " />
<glyph glyph-name="Ecircumflex" unicode="&#xca;" horiz-adv-x="728" d="M102 700 L102 0 L677 0 L677 55 L162 55 L162 325 L562 325 L562 380 L162 380 L162 645 L667 645 L667 700 L102 700 L102 700 Z M357 939 L237 789 L302 789 L392 899 L482 789 L547 789 L427 939 L357 939 L357 939 Z " />
<glyph glyph-name="Edieresis" unicode="&#xcb;" horiz-adv-x="728" d="M102 700 L102 0 L677 0 L677 55 L162 55 L162 325 L562 325 L562 380 L162 380 L162 645 L667 645 L667 700 L102 700 L102 700 Z M334 820 L334 905 L259 905 L259 820 L334 820 L334 820 Z M519 820 L519 905 L444 905 L444 820 L519 820 L519 820 Z " />
<glyph glyph-name="Igrave" unicode="&#xcc;" horiz-adv-x="492" d="M416 0 L416 55 L276 55 L276 645 L416 645 L416 700 L76 700 L76 645 L216 645 L216 55 L76 55 L76 0 L416 0 L416 0 Z M118 950 L223 770 L268 770 L193 950 L118 950 L118 950 Z " />
<glyph glyph-name="Iacute" unicode="&#xcd;" horiz-adv-x="492" d="M416 0 L416 55 L276 55 L276 645 L416 645 L416 700 L76 700 L76 645 L216 645 L216 55 L76 55 L76 0 L416 0 L416 0 Z M223 770 L268 770 L373 950 L298 950 L223 770 L223 770 Z " />
<glyph glyph-name="Icircumflex" unicode="&#xce;" horiz-adv-x="492" d="M416 0 L416 55 L276 55 L276 645 L416 645 L416 700 L76 700 L76 645 L216 645 L216 55 L76 55 L76 0 L416 0 L416 0 Z M211 929 L91 779 L156 779 L246 889 L336 779 L401 779 L281 929 L211 929 L211 929 Z " />
<glyph glyph-name="Idieresis" unicode="&#xcf;" horiz-adv-x="492" d="M416 0 L416 55 L276 55 L276 645 L416 645 L416 700 L76 700 L76 645 L216 645 L216 55 L76 55 L76 0 L416 0 L416 0 Z M191 820 L191 905 L116 905 L116 820 L191 820 L191 820 Z M376 820 L376 905 L301 905 L301 820 L376 820 L376 820 Z " />
<glyph glyph-name="Eth" unicode="&#xd0;" horiz-adv-x="816" d="M35 325 L120 325 L120 0 L590 0 L730 130 L730 570 L590 700 L120 700 L120 380 L35 380 L35 325 L35 325 Z M180 55 L180 325 L405 325 L405 380 L180 380 L180 645 L566 645 L670 550 L670 150 L565 55 L180 55 L180 55 Z " />
<glyph glyph-name="Ntilde" unicode="&#xd1;" horiz-adv-x="799" d="M637 100 L157 700 L102 700 L102 0 L162 0 L162 600 L642 0 L697 0 L697 700 L637 700 L637 100 L637 100 Z M352 855 L452 800 L552 860 L527 910 L452 860 L352 915 L247 845 L272 800 L352 855 L352 855 Z " />
<glyph glyph-name="Ograve" unicode="&#xd2;" horiz-adv-x="807" d="M556 45 L251 45 L146 140 L146 560 L251 655 L556 655 L661 560 L661 140 L556 45 L556 45 Z M581 -10 L721 120 L721 580 L581 710 L226 710 L86 580 L86 120 L226 -10 L581 -10 L581 -10 Z M275 950 L380 770 L425 770 L350 950 L275 950 L275 950 Z " />
<glyph glyph-name="Oacute" unicode="&#xd3;" horiz-adv-x="807" d="M556 45 L251 45 L146 140 L146 560 L251 655 L556 655 L661 560 L661 140 L556 45 L556 45 Z M581 -10 L721 120 L721 580 L581 710 L226 710 L86 580 L86 120 L226 -10 L581 -10 L581 -10 Z M380 770 L425 770 L530 950 L455 950 L380 770 L380 770 Z " />
<glyph glyph-name="Ocircumflex" unicode="&#xd4;" horiz-adv-x="807" d="M556 45 L251 45 L146 140 L146 560 L251 655 L556 655 L661 560 L661 140 L556 45 L556 45 Z M581 -10 L721 120 L721 580 L581 710 L226 710 L86 580 L86 120 L226 -10 L581 -10 L581 -10 Z M366 939 L246 789 L311 789 L401 899 L491 789 L556 789 L436 939 L366 939 L366 939 Z " />
<glyph glyph-name="Otilde" unicode="&#xd5;" horiz-adv-x="807" d="M556 45 L251 45 L146 140 L146 560 L251 655 L556 655 L661 560 L661 140 L556 45 L556 45 Z M581 -10 L721 120 L721 580 L581 710 L226 710 L86 580 L86 120 L226 -10 L581 -10 L581 -10 Z M356 855 L456 800 L556 860 L531 910 L456 860 L356 915 L251 845 L276 800 L356 855 L356 855 Z " />
<glyph glyph-name="Odieresis" unicode="&#xd6;" horiz-adv-x="807" d="M556 45 L251 45 L146 140 L146 560 L251 655 L556 655 L661 560 L661 140 L556 45 L556 45 Z M581 -10 L721 120 L721 580 L581 710 L226 710 L86 580 L86 120 L226 -10 L581 -10 L581 -10 Z M348 820 L348 905 L273 905 L273 820 L348 820 L348 820 Z M533 820 L533 905 L458 905 L458 820 L533 820 L533 820 Z " />
<glyph glyph-name="multiply" unicode="&#xd7;" horiz-adv-x="512" d="M116 170 L256 310 L396 170 L436 210 L296 350 L436 490 L396 530 L256 389 L116 530 L76 490 L216 350 L76 210 L116 170 L116 170 Z " />
<glyph glyph-name="Oslash" unicode="&#xd8;" horiz-adv-x="807" d="M116 -10 L166 45 L226 -10 L581 -10 L721 120 L721 580 L676 620 L756 710 L691 710 L641 655 L581 710 L226 710 L86 580 L86 120 L131 80 L51 -10 L116 -10 L116 -10 Z M556 45 L251 45 L201 90 L641 580 L661 560 L661 140 L556 45 L556 45 Z M146 560 L251 655 L556 655 L601 610 L166 120 L146 140 L146 560 L146 560 Z " />
<glyph glyph-name="Ugrave" unicode="&#xd9;" horiz-adv-x="814" d="M652 140 L547 45 L267 45 L162 140 L162 700 L102 700 L102 120 L242 -10 L572 -10 L712 120 L712 700 L652 700 L652 140 L652 140 Z M279 950 L384 770 L429 770 L354 950 L279 950 L279 950 Z " />
<glyph glyph-name="Uacute" unicode="&#xda;" horiz-adv-x="814" d="M652 140 L547 45 L267 45 L162 140 L162 700 L102 700 L102 120 L242 -10 L572 -10 L712 120 L712 700 L652 700 L652 140 L652 140 Z M384 770 L429 770 L534 950 L459 950 L384 770 L384 770 Z " />
<glyph glyph-name="Ucircumflex" unicode="&#xdb;" horiz-adv-x="814" d="M652 140 L547 45 L267 45 L162 140 L162 700 L102 700 L102 120 L242 -10 L572 -10 L712 120 L712 700 L652 700 L652 140 L652 140 Z M367 939 L247 789 L312 789 L402 899 L492 789 L557 789 L437 939 L367 939 L367 939 Z " />
<glyph glyph-name="Udieresis" unicode="&#xdc;" horiz-adv-x="814" d="M652 140 L547 45 L267 45 L162 140 L162 700 L102 700 L102 120 L242 -10 L572 -10 L712 120 L712 700 L652 700 L652 140 L652 140 Z M352 820 L352 905 L277 905 L277 820 L352 820 L352 820 Z M537 820 L537 905 L462 905 L462 820 L537 820 L537 820 Z " />
<glyph glyph-name="Yacute" unicode="&#xdd;" horiz-adv-x="690" d="M315 0 L375 0 L375 260 L690 700 L615 700 L345 320 L75 700 L0 700 L315 260 L315 0 L315 0 Z M322 770 L367 770 L472 950 L397 950 L322 770 L322 770 Z " />
<glyph glyph-name="Thorn" unicode="&#xde;" horiz-adv-x="753" d="M568 130 L697 250 L697 465 L567 585 L162 585 L162 700 L102 700 L102 0 L162 0 L162 130 L568 130 L568 130 Z M637 445 L637 270 L542 185 L162 185 L162 530 L542 530 L637 445 L637 445 Z " />
<glyph glyph-name="germandbls" unicode="&#xdf;" horiz-adv-x="627" d="M91 0 L151 0 L151 575 L241 655 L381 655 L471 575 L471 480 L411 425 L256 425 L256 370 L421 370 L501 300 L501 135 L411 55 L256 55 L256 0 L436 0 L561 115 L561 320 L471 405 L531 460 L531 595 L406 710 L216 710 L91 595 L91 0 L91 0 Z " />
<glyph glyph-name="agrave" unicode="&#xe0;" horiz-adv-x="587" d="M446 125 L366 55 L181 55 L111 115 L111 175 L181 235 L446 235 L446 125 L446 125 Z M451 60 L461 0 L506 0 L506 400 L396 500 L111 500 L111 445 L371 445 L446 380 L446 290 L156 290 L51 195 L51 95 L156 0 L386 0 L451 60 L451 60 Z M150 750 L255 570 L300 570 L225 750 L150 750 L150 750 Z " />
<glyph glyph-name="aacute" unicode="&#xe1;" horiz-adv-x="587" d="M446 125 L366 55 L181 55 L111 115 L111 175 L181 235 L446 235 L446 125 L446 125 Z M451 60 L461 0 L506 0 L506 400 L396 500 L111 500 L111 445 L371 445 L446 380 L446 290 L156 290 L51 195 L51 95 L156 0 L386 0 L451 60 L451 60 Z M255 570 L300 570 L405 750 L330 750 L255 570 L255 570 Z " />
<glyph glyph-name="acircumflex" unicode="&#xe2;" horiz-adv-x="587" d="M446 125 L366 55 L181 55 L111 115 L111 175 L181 235 L446 235 L446 125 L446 125 Z M451 60 L461 0 L506 0 L506 400 L396 500 L111 500 L111 445 L371 445 L446 380 L446 290 L156 290 L51 195 L51 95 L156 0 L386 0 L451 60 L451 60 Z M276 740 L156 590 L221 590 L311 700 L401 590 L466 590 L346 740 L276 740 L276 740 Z " />
<glyph glyph-name="atilde" unicode="&#xe3;" horiz-adv-x="587" d="M446 125 L366 55 L181 55 L111 115 L111 175 L181 235 L446 235 L446 125 L446 125 Z M451 60 L461 0 L506 0 L506 400 L396 500 L111 500 L111 445 L371 445 L446 380 L446 290 L156 290 L51 195 L51 95 L156 0 L386 0 L451 60 L451 60 Z M231 655 L331 600 L431 660 L406 710 L331 660 L231 715 L126 645 L151 600 L231 655 L231 655 Z " />
<glyph glyph-name="adieresis" unicode="&#xe4;" horiz-adv-x="587" d="M446 125 L366 55 L181 55 L111 115 L111 175 L181 235 L446 235 L446 125 L446 125 Z M451 60 L461 0 L506 0 L506 400 L396 500 L111 500 L111 445 L371 445 L446 380 L446 290 L156 290 L51 195 L51 95 L156 0 L386 0 L451 60 L451 60 Z M223 620 L223 705 L148 705 L148 620 L223 620 L223 620 Z M408 620 L408 705 L333 705 L333 620 L408 620 L408 620 Z " />
<glyph glyph-name="aring" unicode="&#xe5;" horiz-adv-x="587" d="M446 125 L366 55 L181 55 L111 115 L111 175 L181 235 L446 235 L446 125 L446 125 Z M451 60 L461 0 L506 0 L506 400 L396 500 L111 500 L111 445 L371 445 L446 380 L446 290 L156 290 L51 195 L51 95 L156 0 L386 0 L451 60 L451 60 Z M243 650 L243 715 L283 750 L333 750 L373 715 L373 650 L333 615 L283 615 L243 650 L243 650 Z M193 630 L263 570 L353 570 L423 630 L423 735 L353 795 L263 795 L193 735 L193 630 L193 630 Z " />
<glyph glyph-name="ae" unicode="&#xe6;" horiz-adv-x="942" d="M501 135 L501 220 L881 220 L881 395 L756 510 L566 510 L471 425 L390 500 L111 500 L111 445 L366 445 L441 380 L441 290 L156 290 L51 195 L51 95 L156 0 L376 0 L471 85 L566 0 L841 0 L841 55 L591 55 L501 135 L501 135 Z M501 375 L591 455 L731 455 L821 375 L821 275 L501 275 L501 375 L501 375 Z M441 135 L351 55 L181 55 L111 115 L111 175 L181 235 L441 235 L441 135 L441 135 Z " />
<glyph glyph-name="ccedilla" unicode="&#xe7;" horiz-adv-x="531" d="M126 135 L126 365 L216 445 L486 445 L486 500 L191 500 L66 385 L66 115 L191 0 L486 0 L486 55 L216 55 L126 135 L126 135 Z M276 0 L276 -75 L336 -75 L386 -120 L386 -145 L336 -190 L261 -190 L261 -235 L356 -235 L436 -160 L436 -105 L356 -30 L326 -30 L326 0 L276 0 L276 0 Z " />
<glyph glyph-name="egrave" unicode="&#xe8;" horiz-adv-x="582" d="M191 510 L66 395 L66 115 L191 0 L481 0 L481 55 L216 55 L126 135 L126 220 L521 220 L521 395 L396 510 L191 510 L191 510 Z M126 375 L216 455 L371 455 L461 375 L461 275 L126 275 L126 375 L126 375 Z M175 750 L280 570 L325 570 L250 750 L175 750 L175 750 Z " />
<glyph glyph-name="eacute" unicode="&#xe9;" horiz-adv-x="582" d="M191 510 L66 395 L66 115 L191 0 L481 0 L481 55 L216 55 L126 135 L126 220 L521 220 L521 395 L396 510 L191 510 L191 510 Z M126 375 L216 455 L371 455 L461 375 L461 275 L126 275 L126 375 L126 375 Z M270 570 L315 570 L420 750 L345 750 L270 570 L270 570 Z " />
<glyph glyph-name="ecircumflex" unicode="&#xea;" horiz-adv-x="582" d="M191 510 L66 395 L66 115 L191 0 L481 0 L481 55 L216 55 L126 135 L126 220 L521 220 L521 395 L396 510 L191 510 L191 510 Z M126 375 L216 455 L371 455 L461 375 L461 275 L126 275 L126 375 L126 375 Z M256 739 L136 589 L201 589 L291 699 L381 589 L446 589 L326 739 L256 739 L256 739 Z " />
<glyph glyph-name="edieresis" unicode="&#xeb;" horiz-adv-x="582" d="M191 510 L66 395 L66 115 L191 0 L481 0 L481 55 L216 55 L126 135 L126 220 L521 220 L521 395 L396 510 L191 510 L191 510 Z M126 375 L216 455 L371 455 L461 375 L461 275 L126 275 L126 375 L126 375 Z M238 620 L238 705 L163 705 L163 620 L238 620 L238 620 Z M423 620 L423 705 L348 705 L348 620 L423 620 L423 620 Z " />
<glyph glyph-name="igrave" unicode="&#xec;" horiz-adv-x="241" d="M-8 750 L97 570 L142 570 L67 750 L-8 750 L-8 750 Z M90 500 L90 0 L150 0 L150 500 L90 500 L90 500 Z " />
<glyph glyph-name="iacute" unicode="&#xed;" horiz-adv-x="236" d="M246 750 L141 570 L96 570 L171 750 L246 750 L246 750 Z M91 500 L91 0 L151 0 L151 500 L91 500 L91 500 Z " />
<glyph glyph-name="icircumflex" unicode="&#xee;" horiz-adv-x="240" d="M90 500 L90 0 L150 0 L150 500 L90 500 L90 500 Z M85 729 L-35 579 L30 579 L120 689 L210 579 L275 579 L155 729 L85 729 L85 729 Z " />
<glyph glyph-name="idieresis" unicode="&#xef;" horiz-adv-x="240" d="M65 620 L65 705 L-10 705 L-10 620 L65 620 L65 620 Z M250 620 L250 705 L175 705 L175 620 L250 620 L250 620 Z M90 500 L90 0 L150 0 L150 500 L90 500 L90 500 Z " />
<glyph glyph-name="eth" unicode="&#xf0;" horiz-adv-x="587" d="M526 370 L381 545 L496 545 L496 600 L341 600 L256 700 L186 700 L271 600 L156 600 L156 545 L311 545 L407 430 L176 430 L51 315 L51 105 L176 -10 L401 -10 L526 105 L526 370 L526 370 Z M201 375 L466 375 L466 125 L376 45 L201 45 L111 125 L111 294 L201 375 L201 375 Z " />
<glyph glyph-name="ntilde" unicode="&#xf1;" horiz-adv-x="627" d="M131 500 L86 500 L86 0 L146 0 L146 375 L226 445 L406 445 L486 375 L486 0 L546 0 L546 395 L431 500 L206 500 L141 440 L131 500 L131 500 Z M269 655 L369 600 L469 660 L444 710 L369 660 L269 715 L164 645 L189 600 L269 655 L269 655 Z " />
<glyph glyph-name="ograve" unicode="&#xf2;" horiz-adv-x="612" d="M66 395 L66 105 L191 -10 L421 -10 L546 105 L546 395 L421 510 L191 510 L66 395 L66 395 Z M486 375 L486 125 L396 45 L216 45 L126 125 L126 375 L216 455 L396 455 L486 375 L486 375 Z M178 750 L283 570 L328 570 L253 750 L178 750 L178 750 Z " />
<glyph glyph-name="oacute" unicode="&#xf3;" horiz-adv-x="612" d="M66 395 L66 105 L191 -10 L421 -10 L546 105 L546 395 L421 510 L191 510 L66 395 L66 395 Z M486 375 L486 125 L396 45 L216 45 L126 125 L126 375 L216 455 L396 455 L486 375 L486 375 Z M283 570 L328 570 L433 750 L358 750 L283 570 L283 570 Z " />
<glyph glyph-name="ocircumflex" unicode="&#xf4;" horiz-adv-x="612" d="M66 395 L66 105 L191 -10 L421 -10 L546 105 L546 395 L421 510 L191 510 L66 395 L66 395 Z M486 375 L486 125 L396 45 L216 45 L126 125 L126 375 L216 455 L396 455 L486 375 L486 375 Z M266 749 L146 599 L211 599 L301 709 L391 599 L456 599 L336 749 L266 749 L266 749 Z " />
<glyph glyph-name="otilde" unicode="&#xf5;" horiz-adv-x="612" d="M66 395 L66 105 L191 -10 L421 -10 L546 105 L546 395 L421 510 L191 510 L66 395 L66 395 Z M486 375 L486 125 L396 45 L216 45 L126 125 L126 375 L216 455 L396 455 L486 375 L486 375 Z M259 655 L359 600 L459 660 L434 710 L359 660 L259 715 L154 645 L179 600 L259 655 L259 655 Z " />
<glyph glyph-name="odieresis" unicode="&#xf6;" horiz-adv-x="612" d="M66 395 L66 105 L191 -10 L421 -10 L546 105 L546 395 L421 510 L191 510 L66 395 L66 395 Z M486 375 L486 125 L396 45 L216 45 L126 125 L126 375 L216 455 L396 455 L486 375 L486 375 Z M251 620 L251 705 L176 705 L176 620 L251 620 L251 620 Z M436 620 L436 705 L361 705 L361 620 L436 620 L436 620 Z " />
<glyph glyph-name="divide" unicode="&#xf7;" horiz-adv-x="572" d="M66 325 L506 325 L506 380 L66 380 L66 325 L66 325 Z M326 115 L326 200 L246 200 L246 115 L326 115 L326 115 Z M326 500 L326 585 L246 585 L246 500 L326 500 L326 500 Z " />
<glyph glyph-name="oslash" unicode="&#xf8;" horiz-adv-x="620" d="M70 395 L70 105 L110 65 L40 -10 L105 -10 L145 35 L195 -10 L425 -10 L550 105 L550 395 L510 435 L580 510 L515 510 L475 465 L425 510 L195 510 L70 395 L70 395 Z M490 375 L490 125 L400 45 L220 45 L185 75 L470 395 L490 375 L490 375 Z M130 375 L220 455 L400 455 L435 425 L150 105 L130 125 L130 375 L130 375 Z " />
<glyph glyph-name="ugrave" unicode="&#xf9;" horiz-adv-x="632" d="M501 0 L546 0 L546 500 L486 500 L486 125 L406 55 L226 55 L146 125 L146 500 L86 500 L86 105 L201 0 L426 0 L491 60 L501 0 L501 0 Z M188 750 L293 570 L338 570 L263 750 L188 750 L188 750 Z " />
<glyph glyph-name="uacute" unicode="&#xfa;" horiz-adv-x="632" d="M501 0 L546 0 L546 500 L486 500 L486 125 L406 55 L226 55 L146 125 L146 500 L86 500 L86 105 L201 0 L426 0 L491 60 L501 0 L501 0 Z M293 570 L338 570 L443 750 L368 750 L293 570 L293 570 Z " />
<glyph glyph-name="ucircumflex" unicode="&#xfb;" horiz-adv-x="632" d="M501 0 L546 0 L546 500 L486 500 L486 125 L406 55 L226 55 L146 125 L146 500 L86 500 L86 105 L201 0 L426 0 L491 60 L501 0 L501 0 Z M281 739 L161 589 L226 589 L316 699 L406 589 L471 589 L351 739 L281 739 L281 739 Z " />
<glyph glyph-name="udieresis" unicode="&#xfc;" horiz-adv-x="632" d="M501 0 L546 0 L546 500 L486 500 L486 125 L406 55 L226 55 L146 125 L146 500 L86 500 L86 105 L201 0 L426 0 L491 60 L501 0 L501 0 Z M261 620 L261 705 L186 705 L186 620 L261 620 L261 620 Z M446 620 L446 705 L371 705 L371 620 L446 620 L446 620 Z " />
<glyph glyph-name="yacute" unicode="&#xfd;" horiz-adv-x="632" d="M486 0 L486 -65 L396 -145 L136 -145 L136 -200 L421 -200 L546 -85 L546 500 L486 500 L486 55 L226 55 L146 125 L146 500 L86 500 L86 105 L201 0 L486 0 L486 0 Z M293 570 L338 570 L443 750 L368 750 L293 570 L293 570 Z " />
<glyph glyph-name="thorn" unicode="&#xfe;" horiz-adv-x="622" d="M151 -200 L151 0 L431 0 L556 115 L556 385 L431 500 L151 500 L151 700 L91 700 L91 -200 L151 -200 L151 -200 Z M406 55 L151 55 L151 445 L406 445 L496 365 L496 135 L406 55 L406 55 Z " />
<glyph glyph-name="ydieresis" unicode="&#xff;" horiz-adv-x="632" d="M486 0 L486 -65 L396 -145 L136 -145 L136 -200 L421 -200 L546 -85 L546 500 L486 500 L486 55 L226 55 L146 125 L146 500 L86 500 L86 105 L201 0 L486 0 L486 0 Z M261 620 L261 705 L186 705 L186 620 L261 620 L261 620 Z M446 620 L446 705 L371 705 L371 620 L446 620 L446 620 Z " />
<glyph glyph-name="Amacron" unicode="&#x100;" horiz-adv-x="740" d="M175 210 L565 210 L665 0 L730 0 L395 700 L345 700 L10 0 L75 0 L175 210 L175 210 Z M540 265 L200 265 L370 620 L540 265 L540 265 Z M220 830 L520 830 L520 885 L220 885 L220 830 L220 830 Z " />
<glyph glyph-name="amacron" unicode="&#x101;" horiz-adv-x="587" d="M446 125 L366 55 L181 55 L111 115 L111 175 L181 235 L446 235 L446 125 L446 125 Z M451 60 L461 0 L506 0 L506 400 L396 500 L111 500 L111 445 L371 445 L446 380 L446 290 L156 290 L51 195 L51 95 L156 0 L386 0 L451 60 L451 60 Z M128 630 L428 630 L428 685 L128 685 L128 630 L128 630 Z " />
<glyph glyph-name="Abreve" unicode="&#x102;" horiz-adv-x="740" d="M175 210 L565 210 L665 0 L730 0 L395 700 L345 700 L10 0 L75 0 L175 210 L175 210 Z M540 265 L200 265 L370 620 L540 265 L540 265 Z M518 925 L463 925 L463 870 L433 845 L313 845 L283 870 L283 925 L228 925 L228 845 L288 790 L458 790 L518 845 L518 925 L518 925 Z " />
<glyph glyph-name="abreve" unicode="&#x103;" horiz-adv-x="587" d="M446 125 L366 55 L181 55 L111 115 L111 175 L181 235 L446 235 L446 125 L446 125 Z M451 60 L461 0 L506 0 L506 400 L396 500 L111 500 L111 445 L371 445 L446 380 L446 290 L156 290 L51 195 L51 95 L156 0 L386 0 L451 60 L451 60 Z M426 725 L371 725 L371 670 L341 645 L221 645 L191 670 L191 725 L136 725 L136 645 L196 590 L366 590 L426 645 L426 725 L426 725 Z " />
<glyph glyph-name="Aogonek" unicode="&#x104;" horiz-adv-x="740" d="M175 210 L565 210 L665 0 L570 -80 L570 -150 L651 -220 L725 -220 L725 -175 L671 -175 L620 -130 L620 -95 L730 0 L395 700 L345 700 L10 0 L75 0 L175 210 L175 210 Z M540 265 L200 265 L370 620 L540 265 L540 265 Z " />
<glyph glyph-name="aogonek" unicode="&#x105;" horiz-adv-x="587" d="M451 60 L461 20 L346 -80 L346 -150 L427 -220 L501 -220 L501 -175 L447 -175 L396 -130 L396 -95 L506 0 L506 400 L396 500 L111 500 L111 445 L371 445 L446 380 L446 290 L156 290 L51 195 L51 95 L156 0 L386 0 L451 60 L451 60 Z M446 125 L366 55 L181 55 L111 115 L111 175 L181 235 L446 235 L446 125 L446 125 Z " />
<glyph glyph-name="Cacute" unicode="&#x106;" horiz-adv-x="712" d="M656 55 L251 55 L146 150 L146 550 L251 645 L656 645 L656 700 L226 700 L86 570 L86 130 L226 0 L656 0 L656 55 L656 55 Z M378 770 L423 770 L528 950 L453 950 L378 770 L378 770 Z " />
<glyph glyph-name="cacute" unicode="&#x107;" horiz-adv-x="531" d="M126 135 L126 365 L216 445 L486 445 L486 500 L191 500 L66 385 L66 115 L191 0 L486 0 L486 55 L216 55 L126 135 L126 135 Z M283 570 L328 570 L433 750 L358 750 L283 570 L283 570 Z " />
<glyph glyph-name="Ccircumflex" unicode="&#x108;" horiz-adv-x="712" d="M656 55 L251 55 L146 150 L146 550 L251 645 L656 645 L656 700 L226 700 L86 570 L86 130 L226 0 L656 0 L656 55 L656 55 Z M361 939 L241 789 L306 789 L396 899 L486 789 L551 789 L431 939 L361 939 L361 939 Z " />
<glyph glyph-name="ccircumflex" unicode="&#x109;" horiz-adv-x="531" d="M126 135 L126 365 L216 445 L486 445 L486 500 L191 500 L66 385 L66 115 L191 0 L486 0 L486 55 L216 55 L126 135 L126 135 Z M268 735 L148 585 L213 585 L303 695 L393 585 L458 585 L338 735 L268 735 L268 735 Z " />
<glyph glyph-name="Ccaron" unicode="&#x10c;" horiz-adv-x="712" d="M656 55 L251 55 L146 150 L146 550 L251 645 L656 645 L656 700 L226 700 L86 570 L86 130 L226 0 L656 0 L656 55 L656 55 Z M436 785 L556 935 L491 935 L401 824 L311 935 L246 935 L366 785 L436 785 L436 785 Z " />
<glyph glyph-name="ccaron" unicode="&#x10d;" horiz-adv-x="531" d="M126 135 L126 365 L216 445 L486 445 L486 500 L191 500 L66 385 L66 115 L191 0 L486 0 L486 55 L216 55 L126 135 L126 135 Z M341 585 L461 735 L396 735 L306 624 L216 735 L151 735 L271 585 L341 585 L341 585 Z " />
<glyph glyph-name="Dcaron" unicode="&#x10e;" horiz-adv-x="798" d="M102 0 L572 0 L712 130 L712 570 L572 700 L102 700 L102 0 L102 0 Z M162 55 L162 645 L548 645 L652 550 L652 150 L547 55 L162 55 L162 55 Z M412 785 L532 935 L467 935 L377 824 L287 935 L222 935 L342 785 L412 785 L412 785 Z " />
<glyph glyph-name="dcaron" unicode="&#x10f;" horiz-adv-x="721" d="M486 0 L531 0 L531 700 L471 700 L471 500 L191 500 L66 385 L66 115 L191 0 L411 0 L476 60 L486 0 L486 0 Z M126 135 L126 365 L216 445 L471 445 L471 125 L391 55 L216 55 L126 135 L126 135 Z M626 545 L656 530 L711 625 L711 710 L631 710 L631 625 L666 625 L626 545 L626 545 Z " />
<glyph glyph-name="Dcroat" unicode="&#x110;" horiz-adv-x="816" d="M35 325 L120 325 L120 0 L590 0 L730 130 L730 570 L590 700 L120 700 L120 380 L35 380 L35 325 L35 325 Z M180 55 L180 325 L405 325 L405 380 L180 380 L180 645 L566 645 L670 550 L670 150 L565 55 L180 55 L180 55 Z " />
<glyph glyph-name="dcroat" unicode="&#x111;" horiz-adv-x="626" d="M486 0 L531 0 L531 550 L616 550 L616 605 L531 605 L531 700 L471 700 L471 605 L304 605 L304 550 L471 550 L471 450 L191 450 L66 335 L66 115 L191 0 L411 0 L476 60 L486 0 L486 0 Z M126 135 L126 315 L216 395 L471 395 L471 125 L391 55 L216 55 L126 135 L126 135 Z " />
<glyph glyph-name="Emacron" unicode="&#x112;" horiz-adv-x="728" d="M102 700 L102 0 L677 0 L677 55 L162 55 L162 325 L562 325 L562 380 L162 380 L162 645 L667 645 L667 700 L102 700 L102 700 Z M239 830 L539 830 L539 885 L239 885 L239 830 L239 830 Z " />
<glyph glyph-name="emacron" unicode="&#x113;" horiz-adv-x="582" d="M191 510 L66 395 L66 115 L191 0 L481 0 L481 55 L216 55 L126 135 L126 220 L521 220 L521 395 L396 510 L191 510 L191 510 Z M126 375 L216 455 L371 455 L461 375 L461 275 L126 275 L126 375 L126 375 Z M143 630 L443 630 L443 685 L143 685 L143 630 L143 630 Z " />
<glyph glyph-name="Edotaccent" unicode="&#x116;" horiz-adv-x="728" d="M102 700 L102 0 L677 0 L677 55 L162 55 L162 325 L562 325 L562 380 L162 380 L162 645 L667 645 L667 700 L102 700 L102 700 Z M427 820 L427 905 L352 905 L352 820 L427 820 L427 820 Z " />
<glyph glyph-name="edotaccent" unicode="&#x117;" horiz-adv-x="582" d="M191 510 L66 395 L66 115 L191 0 L481 0 L481 55 L216 55 L126 135 L126 220 L521 220 L521 395 L396 510 L191 510 L191 510 Z M126 375 L216 455 L371 455 L461 375 L461 275 L126 275 L126 375 L126 375 Z M331 620 L331 705 L256 705 L256 620 L331 620 L331 620 Z " />
<glyph glyph-name="Eogonek" unicode="&#x118;" horiz-adv-x="728" d="M566 -95 L676 0 L677 0 L677 55 L162 55 L162 325 L562 325 L562 380 L162 380 L162 645 L667 645 L667 700 L102 700 L102 0 L606 0 L516 -80 L516 -150 L597 -220 L671 -220 L671 -175 L617 -175 L566 -130 L566 -95 L566 -95 Z " />
<glyph glyph-name="eogonek" unicode="&#x119;" horiz-adv-x="582" d="M371 -95 L481 0 L481 55 L216 55 L126 135 L126 220 L521 220 L521 395 L396 510 L191 510 L66 395 L66 115 L191 0 L411 0 L321 -80 L321 -150 L402 -220 L476 -220 L476 -175 L422 -175 L371 -130 L371 -95 L371 -95 Z M126 375 L216 455 L371 455 L461 375 L461 275 L126 275 L126 375 L126 375 Z " />
<glyph glyph-name="Ecaron" unicode="&#x11a;" horiz-adv-x="728" d="M102 700 L102 0 L677 0 L677 55 L162 55 L162 325 L562 325 L562 380 L162 380 L162 645 L667 645 L667 700 L102 700 L102 700 Z M424 785 L544 935 L479 935 L389 824 L299 935 L234 935 L354 785 L424 785 L424 785 Z " />
<glyph glyph-name="ecaron" unicode="&#x11b;" horiz-adv-x="582" d="M191 510 L66 395 L66 115 L191 0 L481 0 L481 55 L216 55 L126 135 L126 220 L521 220 L521 395 L396 510 L191 510 L191 510 Z M126 375 L216 455 L371 455 L461 375 L461 275 L126 275 L126 375 L126 375 Z M328 585 L448 735 L383 735 L293 624 L203 735 L138 735 L258 585 L328 585 L328 585 Z " />
<glyph glyph-name="Gbreve" unicode="&#x11e;" horiz-adv-x="797" d="M661 150 L556 55 L251 55 L146 150 L146 550 L251 645 L651 645 L651 700 L226 700 L86 570 L86 130 L226 0 L581 0 L721 130 L721 385 L426 385 L426 330 L661 330 L661 150 L661 150 Z M551 925 L496 925 L496 870 L466 845 L346 845 L316 870 L316 925 L261 925 L261 845 L321 790 L491 790 L551 845 L551 925 L551 925 Z " />
<glyph glyph-name="gbreve" unicode="&#x11f;" horiz-adv-x="622" d="M216 445 L476 445 L476 55 L216 55 L126 135 L126 365 L216 445 L216 445 Z M476 -65 L386 -145 L121 -145 L121 -200 L411 -200 L536 -85 L536 500 L191 500 L66 385 L66 115 L191 0 L476 0 L476 -65 L476 -65 Z M474 725 L419 725 L419 670 L389 645 L269 645 L239 670 L239 725 L184 725 L184 645 L244 590 L414 590 L474 645 L474 725 L474 725 Z " />
<glyph glyph-name="Gcommaaccent" unicode="&#x122;" horiz-adv-x="797" d="M661 150 L556 55 L251 55 L146 150 L146 550 L251 645 L651 645 L651 700 L226 700 L86 570 L86 130 L226 0 L581 0 L721 130 L721 385 L426 385 L426 330 L661 330 L661 150 L661 150 Z M358 -250 L388 -265 L443 -170 L443 -85 L363 -85 L363 -170 L398 -170 L358 -250 L358 -250 Z " />
<glyph glyph-name="gcommaaccent" unicode="&#x123;" horiz-adv-x="622" d="M216 445 L476 445 L476 55 L216 55 L126 135 L126 365 L216 445 L216 445 Z M476 -65 L386 -145 L121 -145 L121 -200 L411 -200 L536 -85 L536 500 L191 500 L66 385 L66 115 L191 0 L476 0 L476 -65 L476 -65 Z M366 730 L336 745 L281 650 L281 565 L361 565 L361 650 L326 650 L366 730 L366 730 Z " />
<glyph glyph-name="Imacron" unicode="&#x12a;" horiz-adv-x="492" d="M416 0 L416 55 L276 55 L276 645 L416 645 L416 700 L76 700 L76 645 L216 645 L216 55 L76 55 L76 0 L416 0 L416 0 Z M96 830 L396 830 L396 885 L96 885 L96 830 L96 830 Z " />
<glyph glyph-name="imacron" unicode="&#x12b;" horiz-adv-x="240" d="M-30 630 L270 630 L270 685 L-30 685 L-30 630 L-30 630 Z M90 500 L90 0 L150 0 L150 500 L90 500 L90 500 Z " />
<glyph glyph-name="Iogonek" unicode="&#x12e;" horiz-adv-x="492" d="M416 0 L416 55 L276 55 L276 645 L416 645 L416 700 L76 700 L76 645 L216 645 L216 55 L76 55 L76 0 L416 0 L416 0 Z M301 -95 L411 0 L341 0 L251 -80 L251 -150 L332 -220 L406 -220 L406 -175 L352 -175 L301 -130 L301 -95 L301 -95 Z " />
<glyph glyph-name="iogonek" unicode="&#x12f;" horiz-adv-x="241" d="M41 -95 L150 0 L150 500 L90 500 L90 10 L-9 -80 L-9 -150 L72 -220 L146 -220 L146 -175 L92 -175 L41 -130 L41 -95 L41 -95 Z M150 600 L150 700 L90 700 L90 600 L150 600 L150 600 Z " />
<glyph glyph-name="Idotaccent" unicode="&#x130;" horiz-adv-x="492" d="M416 0 L416 55 L276 55 L276 645 L416 645 L416 700 L76 700 L76 645 L216 645 L216 55 L76 55 L76 0 L416 0 L416 0 Z M284 820 L284 905 L209 905 L209 820 L284 820 L284 820 Z " />
<glyph glyph-name="dotlessi" unicode="&#x131;" horiz-adv-x="232" d="M86 500 L86 0 L146 0 L146 500 L86 500 L86 500 Z " />
<glyph glyph-name="Kcommaaccent" unicode="&#x136;" horiz-adv-x="712" d="M162 325 L382 325 L627 0 L702 0 L427 360 L682 700 L607 700 L372 380 L162 380 L162 700 L102 700 L102 0 L162 0 L162 325 L162 325 Z M349 -250 L379 -265 L434 -170 L434 -85 L354 -85 L354 -170 L389 -170 L349 -250 L349 -250 Z " />
<glyph glyph-name="kcommaaccent" unicode="&#x137;" horiz-adv-x="551" d="M541 0 L356 260 L526 500 L456 500 L301 285 L151 285 L151 700 L91 700 L91 0 L151 0 L151 230 L306 230 L471 0 L541 0 L541 0 Z M266 -250 L296 -265 L351 -170 L351 -85 L271 -85 L271 -170 L306 -170 L266 -250 L266 -250 Z " />
<glyph glyph-name="Lacute" unicode="&#x139;" horiz-adv-x="647" d="M102 700 L102 0 L627 0 L627 55 L162 55 L162 700 L102 700 L102 700 Z M109 770 L154 770 L259 950 L184 950 L109 770 L109 770 Z " />
<glyph glyph-name="lacute" unicode="&#x13a;" horiz-adv-x="280" d="M185 0 L185 700 L40 700 L40 645 L125 645 L125 0 L185 0 L185 0 Z M132 770 L177 770 L282 950 L207 950 L132 770 L132 770 Z " />
<glyph glyph-name="Lcommaaccent" unicode="&#x13b;" horiz-adv-x="647" d="M102 700 L102 0 L627 0 L627 55 L162 55 L162 700 L102 700 L102 700 Z M319 -250 L349 -265 L404 -170 L404 -85 L324 -85 L324 -170 L359 -170 L319 -250 L319 -250 Z " />
<glyph glyph-name="lcommaaccent" unicode="&#x13c;" horiz-adv-x="281" d="M185 0 L185 700 L40 700 L40 645 L125 645 L125 0 L185 0 L185 0 Z M110 -250 L140 -265 L195 -170 L195 -85 L115 -85 L115 -170 L150 -170 L110 -250 L110 -250 Z " />
<glyph glyph-name="Lcaron" unicode="&#x13d;" horiz-adv-x="647" d="M102 700 L102 0 L627 0 L627 55 L162 55 L162 700 L102 700 L102 700 Z M307 545 L337 530 L392 625 L392 710 L312 710 L312 625 L347 625 L307 545 L307 545 Z " />
<glyph glyph-name="lcaron" unicode="&#x13e;" horiz-adv-x="375" d="M185 0 L185 700 L40 700 L40 645 L125 645 L125 0 L185 0 L185 0 Z M280 545 L310 530 L365 625 L365 710 L285 710 L285 625 L320 625 L280 545 L280 545 Z " />
<glyph glyph-name="Lslash" unicode="&#x141;" horiz-adv-x="670" d="M125 700 L125 340 L40 290 L40 225 L125 275 L125 0 L650 0 L650 55 L185 55 L185 305 L390 420 L390 485 L185 370 L185 700 L125 700 L125 700 Z " />
<glyph glyph-name="lslash" unicode="&#x142;" horiz-adv-x="316" d="M196 0 L196 330 L276 390 L276 460 L196 400 L196 700 L51 700 L51 645 L136 645 L136 355 L56 295 L56 225 L136 285 L136 0 L196 0 L196 0 Z " />
<glyph glyph-name="Nacute" unicode="&#x143;" horiz-adv-x="799" d="M637 100 L157 700 L102 700 L102 0 L162 0 L162 600 L642 0 L697 0 L697 700 L637 700 L637 100 L637 100 Z M376 770 L421 770 L526 950 L451 950 L376 770 L376 770 Z " />
<glyph glyph-name="nacute" unicode="&#x144;" horiz-adv-x="627" d="M131 500 L86 500 L86 0 L146 0 L146 375 L226 445 L406 445 L486 375 L486 0 L546 0 L546 395 L431 500 L206 500 L141 440 L131 500 L131 500 Z M293 570 L338 570 L443 750 L368 750 L293 570 L293 570 Z " />
<glyph glyph-name="Ncommaaccent" unicode="&#x145;" horiz-adv-x="799" d="M637 100 L157 700 L102 700 L102 0 L162 0 L162 600 L642 0 L697 0 L697 700 L637 700 L637 100 L637 100 Z M354 -250 L384 -265 L439 -170 L439 -85 L359 -85 L359 -170 L394 -170 L354 -250 L354 -250 Z " />
<glyph glyph-name="ncommaaccent" unicode="&#x146;" horiz-adv-x="627" d="M131 500 L86 500 L86 0 L146 0 L146 375 L226 445 L406 445 L486 375 L486 0 L546 0 L546 395 L431 500 L206 500 L141 440 L131 500 L131 500 Z M271 -250 L301 -265 L356 -170 L356 -85 L276 -85 L276 -170 L311 -170 L271 -250 L271 -250 Z " />
<glyph glyph-name="Ncaron" unicode="&#x147;" horiz-adv-x="799" d="M637 100 L157 700 L102 700 L102 0 L162 0 L162 600 L642 0 L697 0 L697 700 L637 700 L637 100 L637 100 Z M434 785 L554 935 L489 935 L399 824 L309 935 L244 935 L364 785 L434 785 L434 785 Z " />
<glyph glyph-name="ncaron" unicode="&#x148;" horiz-adv-x="627" d="M131 500 L86 500 L86 0 L146 0 L146 375 L226 445 L406 445 L486 375 L486 0 L546 0 L546 395 L431 500 L206 500 L141 440 L131 500 L131 500 Z M351 585 L471 735 L406 735 L316 624 L226 735 L161 735 L281 585 L351 585 L351 585 Z " />
<glyph glyph-name="Omacron" unicode="&#x14c;" horiz-adv-x="807" d="M556 45 L251 45 L146 140 L146 560 L251 655 L556 655 L661 560 L661 140 L556 45 L556 45 Z M581 -10 L721 120 L721 580 L581 710 L226 710 L86 580 L86 120 L226 -10 L581 -10 L581 -10 Z M253 830 L553 830 L553 885 L253 885 L253 830 L253 830 Z " />
<glyph glyph-name="omacron" unicode="&#x14d;" horiz-adv-x="612" d="M66 395 L66 105 L191 -10 L421 -10 L546 105 L546 395 L421 510 L191 510 L66 395 L66 395 Z M486 375 L486 125 L396 45 L216 45 L126 125 L126 375 L216 455 L396 455 L486 375 L486 375 Z M156 630 L456 630 L456 685 L156 685 L156 630 L156 630 Z " />
<glyph glyph-name="Ohungarumlaut" unicode="&#x150;" horiz-adv-x="807" d="M556 45 L251 45 L146 140 L146 560 L251 655 L556 655 L661 560 L661 140 L556 45 L556 45 Z M581 -10 L721 120 L721 580 L581 710 L226 710 L86 580 L86 120 L226 -10 L581 -10 L581 -10 Z M310 775 L350 775 L450 950 L380 950 L310 775 L310 775 Z M465 775 L505 775 L605 950 L535 950 L465 775 L465 775 Z " />
<glyph glyph-name="ohungarumlaut" unicode="&#x151;" horiz-adv-x="612" d="M66 395 L66 105 L191 -10 L421 -10 L546 105 L546 395 L421 510 L191 510 L66 395 L66 395 Z M486 375 L486 125 L396 45 L216 45 L126 125 L126 375 L216 455 L396 455 L486 375 L486 375 Z M213 575 L253 575 L353 750 L283 750 L213 575 L213 575 Z M368 575 L408 575 L508 750 L438 750 L368 575 L368 575 Z " />
<glyph glyph-name="OE" unicode="&#x152;" horiz-adv-x="1137" d="M226 700 L86 570 L86 130 L226 0 L1086 0 L1086 55 L616 55 L616 325 L966 325 L966 380 L616 380 L616 645 L1076 645 L1076 700 L226 700 L226 700 Z M251 55 L146 150 L146 550 L251 645 L556 645 L556 55 L251 55 L251 55 Z " />
<glyph glyph-name="oe" unicode="&#x153;" horiz-adv-x="972" d="M531 135 L531 220 L911 220 L911 395 L786 510 L596 510 L501 425 L406 510 L191 510 L66 395 L66 105 L191 -10 L406 -10 L506 85 L598 0 L871 0 L871 55 L621 55 L531 135 L531 135 Z M471 375 L471 125 L381 45 L216 45 L126 125 L126 375 L216 455 L381 455 L471 375 L471 375 Z M531 375 L621 455 L761 455 L851 375 L851 275 L531 275 L531 375 L531 375 Z " />
<glyph glyph-name="Racute" unicode="&#x154;" horiz-adv-x="767" d="M492 260 L662 0 L727 0 L557 260 L687 380 L687 580 L557 700 L102 700 L102 0 L162 0 L162 260 L492 260 L492 260 Z M627 560 L627 400 L532 315 L162 315 L162 645 L532 645 L627 560 L627 560 Z M336 770 L381 770 L486 950 L411 950 L336 770 L336 770 Z " />
<glyph glyph-name="racute" unicode="&#x155;" horiz-adv-x="441" d="M131 500 L86 500 L86 0 L146 0 L146 375 L226 445 L431 445 L431 500 L206 500 L141 440 L131 500 L131 500 Z M161 570 L206 570 L311 750 L236 750 L161 570 L161 570 Z " />
<glyph glyph-name="Rcommaaccent" unicode="&#x156;" horiz-adv-x="767" d="M492 260 L662 0 L727 0 L557 260 L687 380 L687 580 L557 700 L102 700 L102 0 L162 0 L162 260 L492 260 L492 260 Z M627 560 L627 400 L532 315 L162 315 L162 645 L532 645 L627 560 L627 560 Z M367 -250 L397 -265 L452 -170 L452 -85 L372 -85 L372 -170 L407 -170 L367 -250 L367 -250 Z " />
<glyph glyph-name="rcommaaccent" unicode="&#x157;" horiz-adv-x="441" d="M131 500 L86 500 L86 0 L146 0 L146 375 L226 445 L431 445 L431 500 L206 500 L141 440 L131 500 L131 500 Z M71 -250 L101 -265 L156 -170 L156 -85 L76 -85 L76 -170 L111 -170 L71 -250 L71 -250 Z " />
<glyph glyph-name="Rcaron" unicode="&#x158;" horiz-adv-x="767" d="M492 260 L662 0 L727 0 L557 260 L687 380 L687 580 L557 700 L102 700 L102 0 L162 0 L162 260 L492 260 L492 260 Z M627 560 L627 400 L532 315 L162 315 L162 645 L532 645 L627 560 L627 560 Z M399 785 L519 935 L454 935 L364 824 L274 935 L209 935 L329 785 L399 785 L399 785 Z " />
<glyph glyph-name="rcaron" unicode="&#x159;" horiz-adv-x="441" d="M131 500 L86 500 L86 0 L146 0 L146 375 L226 445 L431 445 L431 500 L206 500 L141 440 L131 500 L131 500 Z M293 585 L413 735 L348 735 L258 624 L168 735 L103 735 L223 585 L293 585 L293 585 Z " />
<glyph glyph-name="Sacute" unicode="&#x15a;" horiz-adv-x="732" d="M201 325 L516 325 L611 240 L611 140 L516 55 L81 55 L81 0 L541 0 L671 120 L671 260 L541 380 L226 380 L131 465 L131 560 L226 645 L631 645 L631 700 L201 700 L71 580 L71 445 L201 325 L201 325 Z M348 770 L393 770 L498 950 L423 950 L348 770 L348 770 Z " />
<glyph glyph-name="sacute" unicode="&#x15b;" horiz-adv-x="546" d="M181 280 L116 345 L116 380 L186 445 L471 445 L471 500 L161 500 L56 405 L56 320 L156 225 L371 225 L441 165 L441 115 L371 55 L61 55 L61 0 L396 0 L501 95 L501 185 L396 280 L181 280 L181 280 Z M255 570 L300 570 L405 750 L330 750 L255 570 L255 570 Z " />
<glyph glyph-name="Scedilla" unicode="&#x15e;" horiz-adv-x="732" d="M201 325 L516 325 L611 240 L611 140 L516 55 L81 55 L81 0 L541 0 L671 120 L671 260 L541 380 L226 380 L131 465 L131 560 L226 645 L631 645 L631 700 L201 700 L71 580 L71 445 L201 325 L201 325 Z M321 0 L321 -75 L381 -75 L431 -120 L431 -145 L381 -190 L306 -190 L306 -235 L401 -235 L481 -160 L481 -105 L401 -30 L371 -30 L371 0 L321 0 L321 0 Z " />
<glyph glyph-name="scedilla" unicode="&#x15f;" horiz-adv-x="546" d="M181 280 L116 345 L116 380 L186 445 L471 445 L471 500 L161 500 L56 405 L56 320 L156 225 L371 225 L441 165 L441 115 L371 55 L61 55 L61 0 L396 0 L501 95 L501 185 L396 280 L181 280 L181 280 Z M228 0 L228 -75 L288 -75 L338 -120 L338 -145 L288 -190 L213 -190 L213 -235 L308 -235 L388 -160 L388 -105 L308 -30 L278 -30 L278 0 L228 0 L228 0 Z " />
<glyph glyph-name="Scaron" unicode="&#x160;" horiz-adv-x="732" d="M201 325 L516 325 L611 240 L611 140 L516 55 L81 55 L81 0 L541 0 L671 120 L671 260 L541 380 L226 380 L131 465 L131 560 L226 645 L631 645 L631 700 L201 700 L71 580 L71 445 L201 325 L201 325 Z M406 785 L526 935 L461 935 L371 824 L281 935 L216 935 L336 785 L406 785 L406 785 Z " />
<glyph glyph-name="scaron" unicode="&#x161;" horiz-adv-x="546" d="M181 280 L116 345 L116 380 L186 445 L471 445 L471 500 L161 500 L56 405 L56 320 L156 225 L371 225 L441 165 L441 115 L371 55 L61 55 L61 0 L396 0 L501 95 L501 185 L396 280 L181 280 L181 280 Z M313 585 L433 735 L368 735 L278 624 L188 735 L123 735 L243 585 L313 585 L313 585 Z " />
<glyph glyph-name="Tcommaaccent" unicode="&#x162;" horiz-adv-x="650" d="M355 0 L355 645 L630 645 L630 700 L20 700 L20 645 L295 645 L295 0 L355 0 L355 0 Z M280 -250 L310 -265 L365 -170 L365 -85 L285 -85 L285 -170 L320 -170 L280 -250 L280 -250 Z " />
<glyph glyph-name="tcommaaccent" unicode="&#x163;" horiz-adv-x="440" d="M30 445 L140 445 L140 115 L265 0 L410 0 L410 55 L290 55 L200 135 L200 445 L365 445 L365 500 L200 500 L200 630 L140 630 L140 500 L30 500 L30 445 L30 445 Z M225 -250 L255 -265 L310 -170 L310 -85 L230 -85 L230 -170 L265 -170 L225 -250 L225 -250 Z " />
<glyph glyph-name="Tcaron" unicode="&#x164;" horiz-adv-x="650" d="M355 0 L355 645 L630 645 L630 700 L20 700 L20 645 L295 645 L295 0 L355 0 L355 0 Z M360 785 L480 935 L415 935 L325 824 L235 935 L170 935 L290 785 L360 785 L360 785 Z " />
<glyph glyph-name="tcaron" unicode="&#x165;" horiz-adv-x="528" d="M443 545 L473 530 L528 625 L528 710 L448 710 L448 625 L483 625 L443 545 L443 545 Z M30 445 L140 445 L140 115 L265 0 L410 0 L410 55 L290 55 L200 135 L200 445 L365 445 L365 500 L200 500 L200 630 L140 630 L140 500 L30 500 L30 445 L30 445 Z " />
<glyph glyph-name="Umacron" unicode="&#x16a;" horiz-adv-x="814" d="M652 140 L547 45 L267 45 L162 140 L162 700 L102 700 L102 120 L242 -10 L572 -10 L712 120 L712 700 L652 700 L652 140 L652 140 Z M257 830 L557 830 L557 885 L257 885 L257 830 L257 830 Z " />
<glyph glyph-name="umacron" unicode="&#x16b;" horiz-adv-x="632" d="M501 0 L546 0 L546 500 L486 500 L486 125 L406 55 L226 55 L146 125 L146 500 L86 500 L86 105 L201 0 L426 0 L491 60 L501 0 L501 0 Z M166 630 L466 630 L466 685 L166 685 L166 630 L166 630 Z " />
<glyph glyph-name="Uring" unicode="&#x16e;" horiz-adv-x="814" d="M652 140 L547 45 L267 45 L162 140 L162 700 L102 700 L102 120 L242 -10 L572 -10 L712 120 L712 700 L652 700 L652 140 L652 140 Z M332 835 L332 900 L372 935 L422 935 L462 900 L462 835 L422 800 L372 800 L332 835 L332 835 Z M282 815 L352 755 L442 755 L512 815 L512 920 L442 980 L352 980 L282 920 L282 815 L282 815 Z " />
<glyph glyph-name="uring" unicode="&#x16f;" horiz-adv-x="632" d="M501 0 L546 0 L546 500 L486 500 L486 125 L406 55 L226 55 L146 125 L146 500 L86 500 L86 105 L201 0 L426 0 L491 60 L501 0 L501 0 Z M251 650 L251 715 L291 750 L341 750 L381 715 L381 650 L341 615 L291 615 L251 650 L251 650 Z M201 630 L271 570 L361 570 L431 630 L431 735 L361 795 L271 795 L201 735 L201 630 L201 630 Z " />
<glyph glyph-name="Uhungarumlaut" unicode="&#x170;" horiz-adv-x="814" d="M652 140 L547 45 L267 45 L162 140 L162 700 L102 700 L102 120 L242 -10 L572 -10 L712 120 L712 700 L652 700 L652 140 L652 140 Z M304 775 L344 775 L444 950 L374 950 L304 775 L304 775 Z M459 775 L499 775 L599 950 L529 950 L459 775 L459 775 Z " />
<glyph glyph-name="uhungarumlaut" unicode="&#x171;" horiz-adv-x="632" d="M501 0 L546 0 L546 500 L486 500 L486 125 L406 55 L226 55 L146 125 L146 500 L86 500 L86 105 L201 0 L426 0 L491 60 L501 0 L501 0 Z M213 575 L253 575 L353 750 L283 750 L213 575 L213 575 Z M368 575 L408 575 L508 750 L438 750 L368 575 L368 575 Z " />
<glyph glyph-name="Uogonek" unicode="&#x172;" horiz-adv-x="814" d="M386 -95 L484 -10 L572 -10 L712 120 L712 700 L652 700 L652 140 L547 45 L267 45 L162 140 L162 700 L102 700 L102 120 L242 -10 L414 -10 L336 -80 L336 -150 L417 -220 L491 -220 L491 -175 L437 -175 L386 -130 L386 -95 L386 -95 Z " />
<glyph glyph-name="uogonek" unicode="&#x173;" horiz-adv-x="632" d="M435 -95 L545 0 L546 0 L546 500 L486 500 L486 120 L422 55 L226 55 L146 125 L146 500 L86 500 L86 105 L201 0 L426 0 L491 65 L496 20 L385 -80 L385 -150 L466 -220 L540 -220 L540 -175 L486 -175 L435 -130 L435 -95 L435 -95 Z " />
<glyph glyph-name="Ydieresis" unicode="&#x178;" horiz-adv-x="690" d="M315 0 L375 0 L375 260 L690 700 L615 700 L345 320 L75 700 L0 700 L315 260 L315 0 L315 0 Z M290 820 L290 905 L215 905 L215 820 L290 820 L290 820 Z M475 820 L475 905 L400 905 L400 820 L475 820 L475 820 Z " />
<glyph glyph-name="Zacute" unicode="&#x179;" horiz-adv-x="660" d="M620 0 L620 55 L120 55 L610 655 L610 700 L55 700 L55 645 L530 645 L40 45 L40 0 L620 0 L620 0 Z M307 770 L352 770 L457 950 L382 950 L307 770 L307 770 Z " />
<glyph glyph-name="zacute" unicode="&#x17a;" horiz-adv-x="490" d="M450 455 L450 500 L40 500 L40 445 L370 445 L30 45 L30 0 L460 0 L460 55 L110 55 L450 455 L450 455 Z M222 570 L267 570 L372 750 L297 750 L222 570 L222 570 Z " />
<glyph glyph-name="Zdotaccent" unicode="&#x17b;" horiz-adv-x="660" d="M620 0 L620 55 L120 55 L610 655 L610 700 L55 700 L55 645 L530 645 L40 45 L40 0 L620 0 L620 0 Z M368 820 L368 905 L293 905 L293 820 L368 820 L368 820 Z " />
<glyph glyph-name="zdotaccent" unicode="&#x17c;" horiz-adv-x="490" d="M450 455 L450 500 L40 500 L40 445 L370 445 L30 45 L30 0 L460 0 L460 55 L110 55 L450 455 L450 455 Z M283 620 L283 705 L208 705 L208 620 L283 620 L283 620 Z " />
<glyph glyph-name="Zcaron" unicode="&#x17d;" horiz-adv-x="660" d="M620 0 L620 55 L120 55 L610 655 L610 700 L55 700 L55 645 L530 645 L40 45 L40 0 L620 0 L620 0 Z M365 785 L485 935 L420 935 L330 824 L240 935 L175 935 L295 785 L365 785 L365 785 Z " />
<glyph glyph-name="zcaron" unicode="&#x17e;" horiz-adv-x="490" d="M450 455 L450 500 L40 500 L40 445 L370 445 L30 45 L30 0 L460 0 L460 55 L110 55 L450 455 L450 455 Z M280 585 L400 735 L335 735 L245 624 L155 735 L90 735 L210 585 L280 585 L280 585 Z " />
<glyph glyph-name="florin" unicode="&#x192;" horiz-adv-x="415" d="M75 -145 L-20 -145 L-20 -200 L100 -200 L225 -85 L225 420 L390 420 L390 475 L225 475 L225 565 L315 645 L455 645 L455 700 L290 700 L165 585 L165 475 L55 475 L55 420 L165 420 L165 -65 L75 -145 L75 -145 Z " />
<glyph glyph-name="Scommaaccent" unicode="&#x218;" horiz-adv-x="732" d="M201 325 L516 325 L611 240 L611 140 L516 55 L81 55 L81 0 L541 0 L671 120 L671 260 L541 380 L226 380 L131 465 L131 560 L226 645 L631 645 L631 700 L201 700 L71 580 L71 445 L201 325 L201 325 Z M331 -250 L361 -265 L416 -170 L416 -85 L336 -85 L336 -170 L371 -170 L331 -250 L331 -250 Z " />
<glyph glyph-name="scommaaccent" unicode="&#x219;" horiz-adv-x="546" d="M181 280 L116 345 L116 380 L186 445 L471 445 L471 500 L161 500 L56 405 L56 320 L156 225 L371 225 L441 165 L441 115 L371 55 L61 55 L61 0 L396 0 L501 95 L501 185 L396 280 L181 280 L181 280 Z M233 -250 L263 -265 L318 -170 L318 -85 L238 -85 L238 -170 L273 -170 L233 -250 L233 -250 Z " />
<glyph glyph-name="afii57929" unicode="&#x2bc;" horiz-adv-x="207" d="M61 600 L91 585 L146 680 L146 765 L66 765 L66 680 L101 680 L61 600 L61 600 Z " />
<glyph glyph-name="circumflex" unicode="&#x2c6;" horiz-adv-x="432" d="M181 735 L61 585 L126 585 L216 695 L306 585 L371 585 L251 735 L181 735 L181 735 Z " />
<glyph glyph-name="caron" unicode="&#x2c7;" horiz-adv-x="432" d="M251 585 L371 735 L306 735 L216 624 L126 735 L61 735 L181 585 L251 585 L251 585 Z " />
<glyph glyph-name="breve" unicode="&#x2d8;" horiz-adv-x="407" d="M351 725 L296 725 L296 670 L266 645 L146 645 L116 670 L116 725 L61 725 L61 645 L121 590 L291 590 L351 645 L351 725 L351 725 Z " />
<glyph glyph-name="dotaccent" unicode="&#x2d9;" horiz-adv-x="197" d="M136 620 L136 705 L61 705 L61 620 L136 620 L136 620 Z " />
<glyph glyph-name="ring" unicode="&#x2da;" horiz-adv-x="352" d="M111 650 L111 715 L151 750 L201 750 L241 715 L241 650 L201 615 L151 615 L111 650 L111 650 Z M61 630 L131 570 L221 570 L291 630 L291 735 L221 795 L131 795 L61 735 L61 630 L61 630 Z " />
<glyph glyph-name="ogonek" unicode="&#x2db;" horiz-adv-x="272" d="M101 -95 L211 0 L141 0 L51 -80 L51 -150 L132 -220 L206 -220 L206 -175 L152 -175 L101 -130 L101 -95 L101 -95 Z " />
<glyph glyph-name="tilde" unicode="&#x2dc;" horiz-adv-x="467" d="M186 655 L286 600 L386 660 L361 710 L286 660 L186 715 L81 645 L106 600 L186 655 L186 655 Z " />
<glyph glyph-name="hungarumlaut" unicode="&#x2dd;" horiz-adv-x="442" d="M76 575 L116 575 L216 750 L146 750 L76 575 L76 575 Z M231 575 L271 575 L371 750 L301 750 L231 575 L231 575 Z " />
<glyph glyph-name="afii10023" unicode="&#x401;" horiz-adv-x="728" d="M102 700 L102 0 L677 0 L677 55 L162 55 L162 325 L562 325 L562 380 L162 380 L162 645 L667 645 L667 700 L102 700 L102 700 Z M334 800 L334 885 L259 885 L259 800 L334 800 L334 800 Z M519 800 L519 885 L444 885 L444 800 L519 800 L519 800 Z " />
<glyph glyph-name="afii10051" unicode="&#x402;" horiz-adv-x="801" d="M730 75 L730 315 L615 420 L265 420 L265 645 L480 645 L480 700 L10 700 L10 645 L205 645 L205 0 L265 0 L265 365 L590 365 L670 295 L670 95 L600 35 L525 35 L525 -20 L625 -20 L730 75 L730 75 Z " />
<glyph glyph-name="afii10052" unicode="&#x403;" horiz-adv-x="637" d="M341 770 L386 770 L491 950 L416 950 L341 770 L341 770 Z M162 0 L162 645 L627 645 L627 700 L102 700 L102 0 L162 0 L162 0 Z " />
<glyph glyph-name="afii10053" unicode="&#x404;" horiz-adv-x="712" d="M541 380 L146 380 L146 550 L251 645 L656 645 L656 700 L226 700 L86 570 L86 130 L226 0 L656 0 L656 55 L251 55 L146 150 L146 325 L541 325 L541 380 L541 380 Z " />
<glyph glyph-name="afii10054" unicode="&#x405;" horiz-adv-x="732" d="M201 325 L516 325 L611 240 L611 140 L516 55 L81 55 L81 0 L541 0 L671 120 L671 260 L541 380 L226 380 L131 465 L131 560 L226 645 L631 645 L631 700 L201 700 L71 580 L71 445 L201 325 L201 325 Z " />
<glyph glyph-name="afii10055" unicode="&#x406;" horiz-adv-x="492" d="M416 0 L416 55 L276 55 L276 645 L416 645 L416 700 L76 700 L76 645 L216 645 L216 55 L76 55 L76 0 L416 0 L416 0 Z " />
<glyph glyph-name="afii10056" unicode="&#x407;" horiz-adv-x="492" d="M416 0 L416 55 L276 55 L276 645 L416 645 L416 700 L76 700 L76 645 L216 645 L216 55 L76 55 L76 0 L416 0 L416 0 Z M191 800 L191 885 L116 885 L116 800 L191 800 L191 800 Z M376 800 L376 885 L301 885 L301 800 L376 800 L376 800 Z " />
<glyph glyph-name="afii10057" unicode="&#x408;" horiz-adv-x="577" d="M415 150 L310 55 L20 55 L20 0 L335 0 L475 130 L475 700 L415 700 L415 150 L415 150 Z " />
<glyph glyph-name="afii10058" unicode="&#x409;" horiz-adv-x="1146" d="M170 140 L65 45 L10 45 L10 -10 L90 -10 L230 120 L265 645 L570 645 L570 0 L965 0 L1095 120 L1095 310 L965 430 L630 430 L630 700 L210 700 L170 140 L170 140 Z M940 55 L630 55 L630 375 L940 375 L1035 290 L1035 140 L940 55 L940 55 Z " />
<glyph glyph-name="afii10059" unicode="&#x40a;" horiz-adv-x="1138" d="M162 345 L557 345 L557 0 L957 0 L1087 120 L1087 280 L957 400 L617 400 L617 700 L557 700 L557 400 L162 400 L162 700 L102 700 L102 0 L162 0 L162 345 L162 345 Z M932 55 L617 55 L617 345 L932 345 L1027 260 L1027 140 L932 55 L932 55 Z " />
<glyph glyph-name="afii10060" unicode="&#x40b;" horiz-adv-x="811" d="M730 315 L615 420 L265 420 L265 645 L480 645 L480 700 L10 700 L10 645 L205 645 L205 0 L265 0 L265 365 L590 365 L670 295 L670 0 L730 0 L730 315 L730 315 Z " />
<glyph glyph-name="afii10061" unicode="&#x40c;" horiz-adv-x="712" d="M162 325 L382 325 L627 0 L702 0 L427 360 L682 700 L607 700 L372 380 L162 380 L162 700 L102 700 L102 0 L162 0 L162 325 L162 325 Z M361 770 L406 770 L511 950 L436 950 L361 770 L361 770 Z " />
<glyph glyph-name="afii10062" unicode="&#x40e;" horiz-adv-x="700" d="M485 920 L485 880 L445 845 L280 845 L240 880 L240 920 L185 920 L185 860 L260 790 L465 790 L540 860 L540 920 L485 920 L485 920 Z M620 700 L355 240 L350 240 L80 700 L10 700 L305 195 L330 195 L220 0 L290 0 L690 700 L620 700 L620 700 Z " />
<glyph glyph-name="afii10145" unicode="&#x40f;" horiz-adv-x="804" d="M702 0 L702 700 L642 700 L642 55 L162 55 L162 700 L102 700 L102 0 L372 0 L372 -140 L432 -140 L432 0 L702 0 L702 0 Z " />
<glyph glyph-name="afii10017" unicode="&#x410;" horiz-adv-x="740" d="M175 210 L565 210 L665 0 L730 0 L395 700 L345 700 L10 0 L75 0 L175 210 L175 210 Z M540 265 L200 265 L370 620 L540 265 L540 265 Z " />
<glyph glyph-name="afii10018" unicode="&#x411;" horiz-adv-x="773" d="M582 0 L712 120 L712 300 L582 420 L162 420 L162 645 L657 645 L657 700 L102 700 L102 0 L582 0 L582 0 Z M557 55 L162 55 L162 365 L557 365 L652 280 L652 140 L557 55 L557 55 Z " />
<glyph glyph-name="afii10019" unicode="&#x412;" horiz-adv-x="788" d="M613 375 L682 440 L682 595 L567 700 L102 700 L102 0 L602 0 L717 105 L717 281 L613 375 L613 375 Z M577 55 L162 55 L162 335 L572 335 L657 260 L657 125 L577 55 L577 55 Z M622 575 L622 460 L547 390 L162 390 L162 645 L542 645 L622 575 L622 575 Z " />
<glyph glyph-name="afii10020" unicode="&#x413;" horiz-adv-x="637" d="M162 0 L162 645 L627 645 L627 700 L102 700 L102 0 L162 0 L162 0 Z " />
<glyph glyph-name="afii10021" unicode="&#x414;" horiz-adv-x="800" d="M0 55 L0 -150 L60 -150 L60 0 L710 0 L710 -150 L770 -150 L770 55 L675 55 L675 700 L190 700 L150 155 L40 55 L0 55 L0 55 Z M210 135 L245 645 L615 645 L615 55 L125 55 L210 135 L210 135 Z " />
<glyph glyph-name="afii10022" unicode="&#x415;" horiz-adv-x="728" d="M102 700 L102 0 L677 0 L677 55 L162 55 L162 325 L562 325 L562 380 L162 380 L162 645 L667 645 L667 700 L102 700 L102 700 Z " />
<glyph glyph-name="afii10024" unicode="&#x416;" horiz-adv-x="1080" d="M510 0 L570 0 L570 325 L750 325 L995 0 L1070 0 L795 360 L1050 700 L975 700 L740 380 L570 380 L570 700 L510 700 L510 380 L340 380 L105 700 L30 700 L285 360 L10 0 L85 0 L330 325 L510 325 L510 0 L510 0 Z " />
<glyph glyph-name="afii10025" unicode="&#x417;" horiz-adv-x="701" d="M545 365 L620 435 L620 595 L505 700 L50 700 L50 645 L480 645 L560 575 L560 455 L490 390 L200 390 L200 335 L495 335 L570 265 L570 125 L490 55 L40 55 L40 0 L515 0 L630 105 L630 285 L545 365 L545 365 Z " />
<glyph glyph-name="afii10026" unicode="&#x418;" horiz-adv-x="814" d="M712 0 L712 700 L657 700 L162 95 L162 700 L102 700 L102 0 L157 0 L652 605 L652 0 L712 0 L712 0 Z " />
<glyph glyph-name="afii10027" unicode="&#x419;" horiz-adv-x="814" d="M535 920 L535 880 L495 845 L330 845 L290 880 L290 920 L235 920 L235 860 L310 790 L515 790 L590 860 L590 920 L535 920 L535 920 Z M712 0 L712 700 L657 700 L162 95 L162 700 L102 700 L102 0 L157 0 L652 605 L652 0 L712 0 L712 0 Z " />
<glyph glyph-name="afii10028" unicode="&#x41a;" horiz-adv-x="712" d="M162 325 L382 325 L627 0 L702 0 L427 360 L682 700 L607 700 L372 380 L162 380 L162 700 L102 700 L102 0 L162 0 L162 325 L162 325 Z " />
<glyph glyph-name="afii10029" unicode="&#x41b;" horiz-adv-x="807" d="M170 140 L65 45 L10 45 L10 -10 L90 -10 L230 120 L265 645 L645 645 L645 0 L705 0 L705 700 L210 700 L170 140 L170 140 Z " />
<glyph glyph-name="afii10030" unicode="&#x41c;" horiz-adv-x="954" d="M457 180 L497 180 L792 595 L792 0 L852 0 L852 700 L792 700 L477 255 L162 700 L102 700 L102 0 L162 0 L162 595 L457 180 L457 180 Z " />
<glyph glyph-name="afii10031" unicode="&#x41d;" horiz-adv-x="804" d="M162 325 L642 325 L642 0 L702 0 L702 700 L642 700 L642 380 L162 380 L162 700 L102 700 L102 0 L162 0 L162 325 L162 325 Z " />
<glyph glyph-name="afii10032" unicode="&#x41e;" horiz-adv-x="807" d="M556 45 L251 45 L146 140 L146 560 L251 655 L556 655 L661 560 L661 140 L556 45 L556 45 Z M581 -10 L721 120 L721 580 L581 710 L226 710 L86 580 L86 120 L226 -10 L581 -10 L581 -10 Z " />
<glyph glyph-name="afii10033" unicode="&#x41f;" horiz-adv-x="804" d="M102 700 L102 0 L162 0 L162 645 L642 645 L642 0 L702 0 L702 700 L102 700 L102 700 Z " />
<glyph glyph-name="afii10034" unicode="&#x420;" horiz-adv-x="753" d="M568 245 L697 365 L697 580 L567 700 L102 700 L102 0 L162 0 L162 245 L568 245 L568 245 Z M637 560 L637 385 L542 300 L162 300 L162 645 L542 645 L637 560 L637 560 Z " />
<glyph glyph-name="afii10035" unicode="&#x421;" horiz-adv-x="712" d="M656 55 L251 55 L146 150 L146 550 L251 645 L656 645 L656 700 L226 700 L86 570 L86 130 L226 0 L656 0 L656 55 L656 55 Z " />
<glyph glyph-name="afii10036" unicode="&#x422;" horiz-adv-x="650" d="M355 0 L355 645 L630 645 L630 700 L20 700 L20 645 L295 645 L295 0 L355 0 L355 0 Z " />
<glyph glyph-name="afii10037" unicode="&#x423;" horiz-adv-x="700" d="M620 700 L355 240 L350 240 L80 700 L10 700 L305 195 L330 195 L220 0 L290 0 L690 700 L620 700 L620 700 Z " />
<glyph glyph-name="afii10038" unicode="&#x424;" horiz-adv-x="1002" d="M786 605 L866 535 L866 185 L786 115 L531 115 L531 605 L786 605 L786 605 Z M471 660 L191 660 L76 555 L76 165 L191 60 L471 60 L471 -30 L531 -30 L531 60 L811 60 L926 165 L926 555 L811 660 L531 660 L531 750 L471 750 L471 660 L471 660 Z M471 605 L471 115 L216 115 L136 185 L136 535 L216 605 L471 605 L471 605 Z " />
<glyph glyph-name="afii10039" unicode="&#x425;" horiz-adv-x="665" d="M370 365 L635 700 L560 700 L330 410 L105 700 L30 700 L295 365 L10 0 L85 0 L330 315 L580 0 L655 0 L370 365 L370 365 Z " />
<glyph glyph-name="afii10040" unicode="&#x426;" horiz-adv-x="802" d="M677 700 L617 700 L617 55 L162 55 L162 700 L102 700 L102 0 L712 0 L712 -150 L772 -150 L772 55 L677 55 L677 700 L677 700 Z " />
<glyph glyph-name="afii10041" unicode="&#x427;" horiz-adv-x="763" d="M81 380 L206 265 L601 265 L601 0 L661 0 L661 700 L601 700 L601 320 L231 320 L141 400 L141 700 L81 700 L81 380 L81 380 Z " />
<glyph glyph-name="afii10042" unicode="&#x428;" horiz-adv-x="1104" d="M942 700 L942 55 L582 55 L582 700 L522 700 L522 55 L162 55 L162 700 L102 700 L102 0 L1002 0 L1002 700 L942 700 L942 700 Z " />
<glyph glyph-name="afii10043" unicode="&#x429;" horiz-adv-x="1127" d="M1002 700 L942 700 L942 55 L582 55 L582 700 L522 700 L522 55 L162 55 L162 700 L102 700 L102 0 L1037 0 L1037 -150 L1097 -150 L1097 55 L1002 55 L1002 700 L1002 700 Z " />
<glyph glyph-name="afii10044" unicode="&#x42a;" horiz-adv-x="816" d="M10 645 L195 645 L195 0 L635 0 L765 120 L765 310 L635 430 L255 430 L255 700 L10 700 L10 645 L10 645 Z M610 55 L255 55 L255 375 L610 375 L705 290 L705 140 L610 55 L610 55 Z " />
<glyph glyph-name="afii10045" unicode="&#x42b;" horiz-adv-x="989" d="M887 700 L827 700 L827 0 L887 0 L887 700 L887 700 Z M517 55 L162 55 L162 375 L517 375 L612 290 L612 140 L517 55 L517 55 Z M162 430 L162 700 L102 700 L102 0 L542 0 L672 120 L672 310 L542 430 L162 430 L162 430 Z " />
<glyph glyph-name="afii10046" unicode="&#x42c;" horiz-adv-x="738" d="M532 55 L162 55 L162 375 L532 375 L627 290 L627 140 L532 55 L532 55 Z M162 430 L162 700 L102 700 L102 0 L557 0 L687 120 L687 310 L557 430 L162 430 L162 430 Z " />
<glyph glyph-name="afii10047" unicode="&#x42d;" horiz-adv-x="696" d="M170 325 L550 325 L550 150 L445 55 L40 55 L40 0 L470 0 L610 130 L610 570 L470 700 L40 700 L40 645 L445 645 L550 550 L550 380 L170 380 L170 325 L170 325 Z " />
<glyph glyph-name="afii10048" unicode="&#x42e;" horiz-adv-x="1048" d="M162 325 L372 325 L372 120 L512 -10 L822 -10 L962 120 L962 580 L822 710 L512 710 L372 580 L372 380 L162 380 L162 700 L102 700 L102 0 L162 0 L162 325 L162 325 Z M537 655 L797 655 L902 560 L902 140 L797 45 L537 45 L432 140 L432 560 L537 655 L537 655 Z " />
<glyph glyph-name="afii10049" unicode="&#x42f;" horiz-adv-x="772" d="M215 280 L40 0 L110 0 L280 270 L610 270 L610 0 L670 0 L670 700 L225 700 L95 580 L95 390 L215 280 L215 280 Z M250 645 L610 645 L610 326 L250 325 L155 410 L155 560 L250 645 L250 645 Z " />
<glyph glyph-name="afii10065" unicode="&#x430;" horiz-adv-x="587" d="M446 125 L366 55 L181 55 L111 115 L111 175 L181 235 L446 235 L446 125 L446 125 Z M451 60 L461 0 L506 0 L506 400 L396 500 L111 500 L111 445 L371 445 L446 380 L446 290 L156 290 L51 195 L51 95 L156 0 L386 0 L451 60 L451 60 Z " />
<glyph glyph-name="afii10066" unicode="&#x431;" horiz-adv-x="632" d="M91 585 L91 105 L216 -10 L446 -10 L571 105 L571 325 L446 440 L151 440 L151 565 L241 645 L536 645 L536 700 L216 700 L91 585 L91 585 Z M511 305 L511 125 L421 45 L241 45 L151 125 L151 385 L421 385 L511 305 L511 305 Z " />
<glyph glyph-name="afii10067" unicode="&#x432;" horiz-adv-x="597" d="M462 260 L516 310 L516 410 L416 500 L86 500 L86 0 L436 0 L541 95 L541 190 L462 260 L462 260 Z M146 230 L411 230 L481 170 L481 115 L411 55 L146 55 L146 230 L146 230 Z M146 445 L391 445 L456 390 L456 330 L406 285 L146 285 L146 445 L146 445 Z " />
<glyph glyph-name="afii10068" unicode="&#x433;" horiz-adv-x="471" d="M146 0 L146 445 L461 445 L461 500 L86 500 L86 0 L146 0 L146 0 Z " />
<glyph glyph-name="afii10069" unicode="&#x434;" horiz-adv-x="630" d="M120 130 L35 55 L0 55 L0 -130 L60 -130 L60 0 L540 0 L540 -130 L600 -130 L600 55 L520 55 L520 500 L150 500 L120 130 L120 130 Z M180 115 L205 445 L460 445 L460 55 L115 55 L180 115 L180 115 Z " />
<glyph glyph-name="afii10070" unicode="&#x435;" horiz-adv-x="582" d="M191 510 L66 395 L66 115 L191 0 L481 0 L481 55 L216 55 L126 135 L126 220 L521 220 L521 395 L396 510 L191 510 L191 510 Z M126 375 L216 455 L371 455 L461 375 L461 275 L126 275 L126 375 L126 375 Z " />
<glyph glyph-name="afii10072" unicode="&#x436;" horiz-adv-x="810" d="M375 0 L435 0 L435 230 L565 230 L730 0 L800 0 L615 260 L785 500 L715 500 L560 285 L435 285 L435 500 L375 500 L375 285 L250 285 L95 500 L25 500 L195 260 L10 0 L80 0 L245 230 L375 230 L375 0 L375 0 Z " />
<glyph glyph-name="afii10073" unicode="&#x437;" horiz-adv-x="531" d="M150 225 L355 225 L415 170 L415 115 L345 55 L35 55 L35 0 L370 0 L475 95 L475 190 L405 255 L465 310 L465 410 L365 500 L50 500 L50 445 L340 445 L405 390 L405 330 L350 280 L150 280 L150 225 L150 225 Z " />
<glyph glyph-name="afii10074" unicode="&#x438;" horiz-adv-x="627" d="M146 0 L481 415 L481 0 L541 0 L541 500 L481 500 L146 85 L146 500 L86 500 L86 0 L146 0 L146 0 Z " />
<glyph glyph-name="afii10075" unicode="&#x439;" horiz-adv-x="627" d="M458 725 L403 725 L403 670 L373 645 L253 645 L223 670 L223 725 L168 725 L168 645 L228 590 L398 590 L458 645 L458 725 L458 725 Z M146 0 L481 415 L481 0 L541 0 L541 500 L481 500 L146 85 L146 500 L86 500 L86 0 L146 0 L146 0 Z " />
<glyph glyph-name="afii10076" unicode="&#x43a;" horiz-adv-x="546" d="M536 0 L351 260 L521 500 L451 500 L296 285 L146 285 L146 500 L86 500 L86 0 L146 0 L146 230 L301 230 L466 0 L536 0 L536 0 Z " />
<glyph glyph-name="afii10077" unicode="&#x43b;" horiz-adv-x="636" d="M140 120 L55 45 L10 45 L10 -10 L80 -10 L200 100 L225 445 L490 445 L490 0 L550 0 L550 500 L170 500 L140 120 L140 120 Z " />
<glyph glyph-name="afii10078" unicode="&#x43c;" horiz-adv-x="742" d="M371 195 L146 500 L86 500 L86 0 L146 0 L146 405 L351 130 L391 130 L596 405 L596 0 L656 0 L656 500 L596 500 L371 195 L371 195 Z " />
<glyph glyph-name="afii10079" unicode="&#x43d;" horiz-adv-x="617" d="M146 0 L146 220 L471 220 L471 0 L531 0 L531 500 L471 500 L471 275 L146 275 L146 500 L86 500 L86 0 L146 0 L146 0 Z " />
<glyph glyph-name="afii10080" unicode="&#x43e;" horiz-adv-x="612" d="M66 395 L66 105 L191 -10 L421 -10 L546 105 L546 395 L421 510 L191 510 L66 395 L66 395 Z M486 375 L486 125 L396 45 L216 45 L126 125 L126 375 L216 455 L396 455 L486 375 L486 375 Z " />
<glyph glyph-name="afii10081" unicode="&#x43f;" horiz-adv-x="617" d="M146 0 L146 445 L471 445 L471 0 L531 0 L531 500 L86 500 L86 0 L146 0 L146 0 Z " />
<glyph glyph-name="afii10082" unicode="&#x440;" horiz-adv-x="617" d="M131 500 L86 500 L86 -200 L146 -200 L146 0 L426 0 L551 115 L551 385 L426 500 L206 500 L141 440 L131 500 L131 500 Z M491 365 L491 135 L401 55 L146 55 L146 375 L226 445 L401 445 L491 365 L491 365 Z " />
<glyph glyph-name="afii10083" unicode="&#x441;" horiz-adv-x="531" d="M126 135 L126 365 L216 445 L486 445 L486 500 L191 500 L66 385 L66 115 L191 0 L486 0 L486 55 L216 55 L126 135 L126 135 Z " />
<glyph glyph-name="afii10084" unicode="&#x442;" horiz-adv-x="490" d="M275 0 L275 445 L475 445 L475 500 L15 500 L15 445 L215 445 L215 0 L275 0 L275 0 Z " />
<glyph glyph-name="afii10085" unicode="&#x443;" horiz-adv-x="530" d="M175 -200 L235 -200 L520 500 L460 500 L275 50 L265 50 L70 500 L10 500 L225 0 L255 0 L175 -200 L175 -200 Z " />
<glyph glyph-name="afii10086" unicode="&#x444;" horiz-adv-x="762" d="M410 0 L571 0 L696 115 L696 385 L571 500 L411 500 L411 700 L351 700 L351 500 L191 500 L66 385 L66 115 L191 0 L351 0 L351 -200 L410 -200 L410 0 L410 0 Z M636 135 L546 55 L411 55 L411 445 L546 445 L636 365 L636 135 L636 135 Z M126 365 L216 445 L351 445 L351 55 L216 55 L126 135 L126 365 L126 365 Z " />
<glyph glyph-name="afii10087" unicode="&#x445;" horiz-adv-x="500" d="M490 0 L285 260 L480 500 L410 500 L250 300 L90 500 L20 500 L215 260 L10 0 L80 0 L250 220 L420 0 L490 0 L490 0 Z " />
<glyph glyph-name="afii10088" unicode="&#x446;" horiz-adv-x="626" d="M536 0 L536 -130 L596 -130 L596 55 L516 55 L516 500 L456 500 L456 55 L146 55 L146 500 L86 500 L86 0 L536 0 L536 0 Z " />
<glyph glyph-name="afii10089" unicode="&#x447;" horiz-adv-x="587" d="M441 0 L501 0 L501 500 L441 500 L441 235 L206 235 L126 305 L126 500 L66 500 L66 285 L181 180 L441 180 L441 0 L441 0 Z " />
<glyph glyph-name="afii10090" unicode="&#x448;" horiz-adv-x="852" d="M396 500 L396 55 L146 55 L146 500 L86 500 L86 0 L766 0 L766 500 L706 500 L706 55 L456 55 L456 500 L396 500 L396 500 Z " />
<glyph glyph-name="afii10091" unicode="&#x449;" horiz-adv-x="876" d="M786 0 L786 -130 L846 -130 L846 55 L766 55 L766 500 L706 500 L706 55 L456 55 L456 500 L396 500 L396 55 L146 55 L146 500 L86 500 L86 0 L786 0 L786 0 Z " />
<glyph glyph-name="afii10092" unicode="&#x44a;" horiz-adv-x="630" d="M485 0 L590 95 L590 220 L485 315 L225 315 L225 500 L10 500 L10 445 L165 445 L165 0 L485 0 L485 0 Z M225 260 L460 260 L530 200 L530 115 L460 55 L225 55 L225 260 L225 260 Z " />
<glyph glyph-name="afii10093" unicode="&#x44b;" horiz-adv-x="757" d="M146 315 L146 500 L86 500 L86 0 L406 0 L511 95 L511 220 L406 315 L146 315 L146 315 Z M146 260 L381 260 L451 200 L451 115 L381 55 L146 55 L146 260 L146 260 Z M671 0 L671 500 L611 500 L611 0 L671 0 L671 0 Z " />
<glyph glyph-name="afii10094" unicode="&#x44c;" horiz-adv-x="561" d="M146 315 L146 500 L86 500 L86 0 L416 0 L521 95 L521 220 L416 315 L146 315 L146 315 Z M146 260 L391 260 L461 200 L461 115 L391 55 L146 55 L146 260 L146 260 Z " />
<glyph glyph-name="afii10095" unicode="&#x44d;" horiz-adv-x="531" d="M315 55 L45 55 L45 0 L340 0 L465 115 L465 385 L339 500 L45 500 L45 445 L315 445 L405 365 L405 280 L145 280 L145 225 L405 225 L405 135 L315 55 L315 55 Z " />
<glyph glyph-name="afii10096" unicode="&#x44e;" horiz-adv-x="807" d="M146 0 L146 225 L301 225 L301 105 L426 -10 L616 -10 L741 105 L741 395 L616 510 L426 510 L301 395 L301 280 L146 280 L146 500 L86 500 L86 0 L146 0 L146 0 Z M681 375 L681 125 L591 45 L451 45 L361 125 L361 375 L451 455 L591 455 L681 375 L681 375 Z " />
<glyph glyph-name="afii10097" unicode="&#x44f;" horiz-adv-x="586" d="M170 500 L65 405 L65 285 L160 195 L40 0 L105 0 L220 190 L440 190 L440 0 L500 0 L500 500 L170 500 L170 500 Z M440 245 L190 245 L125 305 L125 385 L195 445 L440 445 L440 245 L440 245 Z " />
<glyph glyph-name="afii10071" unicode="&#x451;" horiz-adv-x="582" d="M191 510 L66 395 L66 115 L191 0 L481 0 L481 55 L216 55 L126 135 L126 220 L521 220 L521 395 L396 510 L191 510 L191 510 Z M126 375 L216 455 L371 455 L461 375 L461 275 L126 275 L126 375 L126 375 Z M238 636 L238 721 L163 721 L163 636 L238 636 L238 636 Z M423 636 L423 721 L348 721 L348 636 L423 636 L423 636 Z " />
<glyph glyph-name="afii10099" unicode="&#x452;" horiz-adv-x="621" d="M565 95 L565 325 L450 430 L190 430 L190 545 L340 545 L340 600 L190 600 L190 700 L130 700 L130 600 L20 600 L20 545 L130 545 L130 0 L190 0 L190 375 L425 375 L505 305 L505 115 L415 35 L360 35 L360 -20 L440 -20 L565 95 L565 95 Z " />
<glyph glyph-name="afii10100" unicode="&#x453;" horiz-adv-x="471" d="M250 570 L295 570 L400 750 L325 750 L250 570 L250 570 Z M146 0 L146 445 L461 445 L461 500 L86 500 L86 0 L146 0 L146 0 Z " />
<glyph glyph-name="afii10101" unicode="&#x454;" horiz-adv-x="531" d="M126 135 L126 225 L401 225 L401 275 L126 275 L126 365 L216 445 L486 445 L486 500 L191 500 L66 385 L66 115 L191 0 L486 0 L486 55 L216 55 L126 135 L126 135 Z " />
<glyph glyph-name="afii10102" unicode="&#x455;" horiz-adv-x="546" d="M181 280 L116 345 L116 380 L186 445 L471 445 L471 500 L161 500 L56 405 L56 320 L156 225 L371 225 L441 165 L441 115 L371 55 L61 55 L61 0 L396 0 L501 95 L501 185 L396 280 L181 280 L181 280 Z " />
<glyph glyph-name="afii10103" unicode="&#x456;" horiz-adv-x="242" d="M151 0 L151 500 L91 500 L91 0 L151 0 L151 0 Z M151 600 L151 700 L91 700 L91 600 L151 600 L151 600 Z " />
<glyph glyph-name="afii10104" unicode="&#x457;" horiz-adv-x="240" d="M90 500 L90 0 L150 0 L150 500 L90 500 L90 500 Z M65 620 L65 705 L-10 705 L-10 620 L65 620 L65 620 Z M250 620 L250 705 L175 705 L175 620 L250 620 L250 620 Z " />
<glyph glyph-name="afii10105" unicode="&#x458;" horiz-adv-x="262" d="M21 -145 L-74 -145 L-74 -200 L46 -200 L171 -85 L171 500 L111 500 L111 -65 L21 -145 L21 -145 Z M171 600 L171 700 L111 700 L111 600 L171 600 L171 600 Z " />
<glyph glyph-name="afii10106" unicode="&#x459;" horiz-adv-x="886" d="M140 120 L55 45 L10 45 L10 -10 L80 -10 L200 100 L225 445 L440 445 L440 0 L741 0 L846 95 L846 220 L741 315 L500 315 L500 500 L170 500 L140 120 L140 120 Z M500 260 L716 260 L786 200 L786 115 L716 55 L500 55 L500 260 L500 260 Z " />
<glyph glyph-name="afii10107" unicode="&#x45a;" horiz-adv-x="891" d="M151 0 L151 240 L431 240 L431 0 L746 0 L851 95 L851 200 L746 295 L491 295 L491 500 L431 500 L431 295 L151 295 L151 500 L91 500 L91 0 L151 0 L151 0 Z M491 240 L721 240 L791 180 L791 115 L721 55 L491 55 L491 240 L491 240 Z " />
<glyph glyph-name="afii10108" unicode="&#x45b;" horiz-adv-x="631" d="M565 0 L565 325 L450 430 L190 430 L190 545 L340 545 L340 600 L190 600 L190 700 L130 700 L130 600 L20 600 L20 545 L130 545 L130 0 L190 0 L190 375 L425 375 L505 305 L505 0 L565 0 L565 0 Z " />
<glyph glyph-name="afii10109" unicode="&#x45c;" horiz-adv-x="546" d="M275 570 L320 570 L425 750 L350 750 L275 570 L275 570 Z M536 0 L351 260 L521 500 L451 500 L296 285 L146 285 L146 500 L86 500 L86 0 L146 0 L146 230 L301 230 L466 0 L536 0 L536 0 Z " />
<glyph glyph-name="afii10110" unicode="&#x45e;" horiz-adv-x="530" d="M415 725 L360 725 L360 670 L330 645 L210 645 L180 670 L180 725 L125 725 L125 645 L185 590 L355 590 L415 645 L415 725 L415 725 Z M175 -200 L235 -200 L520 500 L460 500 L275 50 L265 50 L70 500 L10 500 L225 0 L255 0 L175 -200 L175 -200 Z " />
<glyph glyph-name="afii10193" unicode="&#x45f;" horiz-adv-x="622" d="M281 0 L281 -130 L341 -130 L341 0 L536 0 L536 500 L476 500 L476 55 L146 55 L146 500 L86 500 L86 0 L281 0 L281 0 Z " />
<glyph glyph-name="afii10050" unicode="&#x490;" horiz-adv-x="637" d="M627 645 L627 810 L567 810 L567 700 L102 700 L102 0 L162 0 L162 645 L627 645 L627 645 Z " />
<glyph glyph-name="afii10098" unicode="&#x491;" horiz-adv-x="471" d="M461 445 L461 600 L401 600 L401 500 L86 500 L86 0 L146 0 L146 445 L461 445 L461 445 Z " />
<glyph glyph-name="uni1E9E" unicode="&#x1e9e;" horiz-adv-x="758" d="M362 390 L542 390 L637 305 L637 140 L542 55 L267 55 L267 0 L567 0 L697 120 L697 325 L567 445 L442 445 L652 663 L652 710 L242 710 L102 580 L102 0 L162 0 L162 560 L267 655 L567 655 L362 445 L362 390 L362 390 Z " />
<glyph glyph-name="endash" unicode="&#x2013;" horiz-adv-x="590" d="M40 325 L550 325 L550 380 L40 380 L40 325 L40 325 Z " />
<glyph glyph-name="emdash" unicode="&#x2014;" horiz-adv-x="795" d="M40 325 L755 325 L755 380 L40 380 L40 325 L40 325 Z " />
<glyph glyph-name="quoteleft" unicode="&#x2018;" horiz-adv-x="227" d="M156 685 L126 700 L71 605 L71 520 L151 520 L151 605 L116 605 L156 685 L156 685 Z " />
<glyph glyph-name="quoteright" unicode="&#x2019;" horiz-adv-x="227" d="M71 535 L101 520 L156 615 L156 700 L76 700 L76 615 L111 615 L71 535 L71 535 Z " />
<glyph glyph-name="quotesinglbase" unicode="&#x201a;" horiz-adv-x="227" d="M71 -80 L101 -95 L156 0 L156 85 L76 85 L76 0 L111 0 L71 -80 L71 -80 Z " />
<glyph glyph-name="quotedblleft" unicode="&#x201c;" horiz-adv-x="372" d="M156 685 L126 700 L71 605 L71 520 L151 520 L151 605 L116 605 L156 685 L156 685 Z M301 685 L271 700 L216 605 L216 520 L296 520 L296 605 L261 605 L301 685 L301 685 Z " />
<glyph glyph-name="quotedblright" unicode="&#x201d;" horiz-adv-x="372" d="M71 535 L101 520 L156 615 L156 700 L76 700 L76 615 L111 615 L71 535 L71 535 Z M216 535 L246 520 L301 615 L301 700 L221 700 L221 615 L256 615 L216 535 L216 535 Z " />
<glyph glyph-name="quotedblbase" unicode="&#x201e;" horiz-adv-x="372" d="M71 -80 L101 -95 L156 0 L156 85 L76 85 L76 0 L111 0 L71 -80 L71 -80 Z M216 -80 L246 -95 L301 0 L301 85 L221 85 L221 0 L256 0 L216 -80 L216 -80 Z " />
<glyph glyph-name="dagger" unicode="&#x2020;" horiz-adv-x="602" d="M66 495 L271 495 L271 -50 L331 -50 L331 495 L536 495 L536 550 L331 550 L331 750 L271 750 L271 550 L66 550 L66 495 L66 495 Z " />
<glyph glyph-name="daggerdbl" unicode="&#x2021;" horiz-adv-x="622" d="M76 120 L281 120 L281 -50 L341 -50 L341 120 L546 120 L546 175 L341 175 L341 525 L546 525 L546 580 L341 580 L341 750 L281 750 L281 580 L76 580 L76 525 L281 525 L281 175 L76 175 L76 120 L76 120 Z " />
<glyph glyph-name="bullet" unicode="&#x2022;" horiz-adv-x="406" d="M253 300 L253 400 L153 400 L153 300 L253 300 L253 300 Z " />
<glyph glyph-name="ellipsis" unicode="&#x2026;" horiz-adv-x="652" d="M151 0 L151 85 L71 85 L71 0 L151 0 L151 0 Z M366 0 L366 85 L286 85 L286 0 L366 0 L366 0 Z M581 0 L581 85 L501 85 L501 0 L581 0 L581 0 Z " />
<glyph glyph-name="perthousand" unicode="&#x2030;" horiz-adv-x="1272" d="M696 700 L626 700 L186 0 L256 0 L696 700 L696 700 Z M106 465 L106 605 L166 660 L251 660 L311 605 L311 465 L251 410 L166 410 L106 465 L106 465 Z M51 445 L146 360 L271 360 L366 445 L366 625 L271 710 L146 710 L51 625 L51 445 L51 445 Z M576 95 L576 235 L636 290 L721 290 L781 235 L781 95 L721 40 L636 40 L576 95 L576 95 Z M521 75 L616 -10 L741 -10 L836 75 L836 255 L741 340 L616 340 L521 255 L521 75 L521 75 Z M961 95 L961 235 L1021 290 L1106 290 L1166 235 L1166 95 L1106 40 L1021 40 L961 95 L961 95 Z M906 75 L1001 -10 L1126 -10 L1221 75 L1221 255 L1126 340 L1001 340 L906 255 L906 75 L906 75 Z " />
<glyph glyph-name="guilsinglleft" unicode="&#x2039;" horiz-adv-x="422" d="M51 255 L321 -10 L361 30 L131 255 L361 480 L321 520 L51 255 L51 255 Z " />
<glyph glyph-name="guilsinglright" unicode="&#x203a;" horiz-adv-x="422" d="M371 255 L101 520 L61 480 L291 255 L61 30 L101 -10 L371 255 L371 255 Z " />
<glyph glyph-name="fraction" unicode="&#x2044;" horiz-adv-x="588" d="M550 700 L480 700 L40 0 L110 0 L550 700 L550 700 Z " />
<glyph glyph-name="foursuperior" unicode="&#x2074;" horiz-adv-x="447" d="M291 370 L346 370 L346 440 L391 440 L391 490 L346 490 L346 700 L286 700 L61 484 L61 440 L291 440 L291 370 L291 370 Z M291 490 L131 490 L291 645 L291 490 L291 490 Z " />
<glyph glyph-name="Euro" unicode="&#x20ac;" horiz-adv-x="741" d="M45 405 L135 405 L135 295 L45 295 L45 240 L135 240 L135 130 L275 0 L685 0 L685 55 L300 55 L195 150 L195 240 L520 240 L520 295 L195 295 L195 405 L520 405 L520 460 L195 460 L195 550 L300 645 L685 645 L685 700 L275 700 L135 570 L135 460 L45 460 L45 405 L45 405 Z " />
<glyph glyph-name="uni20B4" unicode="&#x20b4;" horiz-adv-x="742" d="M61 315 L61 260 L166 260 L146 240 L146 120 L276 0 L561 0 L561 55 L301 55 L206 140 L206 220 L251 260 L681 260 L681 315 L61 315 L61 315 Z M681 385 L681 440 L576 440 L596 460 L596 580 L466 700 L186 700 L186 645 L441 645 L536 560 L536 480 L491 440 L61 440 L61 385 L681 385 L681 385 Z " />
<glyph glyph-name="uni20BD" unicode="&#x20bd;" horiz-adv-x="787" d="M56 135 L141 135 L141 0 L201 0 L201 135 L596 135 L596 190 L201 190 L201 280 L586 280 L716 400 L716 580 L586 700 L141 700 L141 335 L56 335 L56 280 L141 280 L141 190 L56 190 L56 135 L56 135 Z M656 560 L656 420 L561 335 L201 335 L201 645 L561 645 L656 560 L656 560 Z " />
<glyph glyph-name="afii61352" unicode="&#x2116;" horiz-adv-x="1173" d="M802 195 L1097 195 L1097 245 L802 245 L802 195 L802 195 Z M847 460 L847 605 L907 660 L992 660 L1052 605 L1052 460 L992 405 L907 405 L847 460 L847 460 Z M792 440 L887 355 L1012 355 L1107 440 L1107 625 L1012 710 L887 710 L792 625 L792 440 L792 440 Z M612 100 L157 700 L102 700 L102 0 L162 0 L162 600 L617 0 L672 0 L672 700 L612 700 L612 100 L612 100 Z " />
<glyph glyph-name="trademark" unicode="&#x2122;" horiz-adv-x="1026" d="M240 310 L240 645 L390 645 L390 700 L30 700 L30 645 L180 645 L180 310 L240 310 L240 310 Z M720 400 L875 610 L875 310 L935 310 L935 700 L875 700 L700 460 L525 700 L465 700 L465 310 L525 310 L525 610 L680 400 L720 400 L720 400 Z " />
<glyph glyph-name="minus" unicode="&#x2212;" horiz-adv-x="557" d="M51 325 L506 325 L506 380 L51 380 L51 325 L51 325 Z " />
</font>
</svg>
