<?xml version="1.0" encoding="UTF-8"?>
<svg xmlns="http://www.w3.org/2000/svg" xmlns:xlink="http://www.w3.org/1999/xlink" version="1.2" >
<font id="Predator Thin">
<font-face  font-family="Predator" units-per-em="1000" ascent="950" descent="-200" font-style="normal" font-weight="100" font-stretch="normal" cap-height="950" x-height="500" underline-position="-75" underline-thickness="50" />
<missing-glyph  horiz-adv-x="310" d="" />
<glyph glyph-name="space" unicode="&#x20;" horiz-adv-x="310" d="" />
<glyph glyph-name="exclam" unicode="&#x21;" horiz-adv-x="242" d="M141 700 L101 700 L101 310 L111 180 L131 180 L141 310 L141 700 L141 700 Z M151 0 L151 70 L91 70 L91 0 L151 0 L151 0 Z " />
<glyph glyph-name="quotedbl" unicode="&#x22;" horiz-adv-x="322" d="M111 560 L111 700 L71 700 L71 560 L81 460 L101 460 L111 560 L111 560 Z M251 560 L251 700 L211 700 L211 560 L221 460 L241 460 L251 560 L251 560 Z " />
<glyph glyph-name="numbersign" unicode="&#x23;" horiz-adv-x="810" d="M40 250 L40 210 L189 210 L135 0 L175 0 L229 210 L494 210 L440 0 L480 0 L534 210 L720 210 L720 250 L544 250 L595 450 L770 450 L770 490 L606 490 L660 700 L620 700 L566 490 L301 490 L355 700 L315 700 L261 490 L90 490 L90 450 L251 450 L199 250 L40 250 L40 250 Z M290 450 L556 450 L504 250 L239 250 L290 450 L290 450 Z " />
<glyph glyph-name="dollar" unicode="&#x24;" horiz-adv-x="707" d="M331 -90 L371 -90 L371 0 L511 0 L641 120 L641 255 L511 375 L211 375 L106 470 L106 565 L211 660 L606 660 L606 700 L371 700 L371 790 L331 790 L331 700 L196 700 L66 580 L66 455 L196 335 L496 335 L601 240 L601 135 L496 40 L76 40 L76 0 L331 0 L331 -90 L331 -90 Z " />
<glyph glyph-name="percent" unicode="&#x25;" horiz-adv-x="892" d="M686 700 L636 700 L196 0 L246 0 L686 700 L686 700 Z M101 460 L101 610 L171 670 L261 670 L331 610 L331 460 L261 400 L171 400 L101 460 L101 460 Z M61 445 L156 360 L276 360 L371 445 L371 625 L276 710 L156 710 L61 625 L61 445 L61 445 Z M561 90 L561 240 L631 300 L721 300 L791 240 L791 90 L721 30 L631 30 L561 90 L561 90 Z M521 75 L616 -10 L736 -10 L831 75 L831 255 L736 340 L616 340 L521 255 L521 75 L521 75 Z " />
<glyph glyph-name="ampersand" unicode="&#x26;" horiz-adv-x="721" d="M556 340 L556 40 L201 40 L111 120 L111 265 L191 340 L556 340 L556 340 Z M676 380 L596 380 L596 480 L556 480 L556 380 L196 380 L131 440 L131 580 L221 660 L526 660 L526 700 L206 700 L91 595 L91 425 L161 360 L71 275 L71 105 L186 0 L596 0 L596 340 L676 340 L676 380 L676 380 Z " />
<glyph glyph-name="quotesingle" unicode="&#x27;" horiz-adv-x="182" d="M111 560 L111 700 L71 700 L71 560 L81 460 L101 460 L111 560 L111 560 Z " />
<glyph glyph-name="parenleft" unicode="&#x28;" horiz-adv-x="307" d="M232 720 L262 720 L262 760 L217 760 L102 655 L102 -95 L217 -200 L262 -200 L262 -160 L232 -160 L142 -80 L142 640 L232 720 L232 720 Z " />
<glyph glyph-name="parenright" unicode="&#x29;" horiz-adv-x="307" d="M75 -160 L45 -160 L45 -200 L90 -200 L205 -95 L205 655 L90 760 L45 760 L45 720 L75 720 L165 640 L165 -80 L75 -160 L75 -160 Z " />
<glyph glyph-name="asterisk" unicode="&#x2a;" horiz-adv-x="452" d="M246 340 L246 490 L381 410 L401 445 L261 525 L401 605 L381 640 L246 555 L246 710 L206 710 L206 555 L71 640 L51 605 L191 525 L51 445 L71 410 L206 490 L206 340 L246 340 L246 340 Z " />
<glyph glyph-name="plus" unicode="&#x2b;" horiz-adv-x="542" d="M51 330 L251 330 L251 130 L291 130 L291 330 L491 330 L491 370 L291 370 L291 570 L251 570 L251 370 L51 370 L51 330 L51 330 Z " />
<glyph glyph-name="comma" unicode="&#x2c;" horiz-adv-x="212" d="M71 -80 L96 -90 L141 0 L141 70 L81 70 L81 0 L106 0 L71 -80 L71 -80 Z " />
<glyph glyph-name="hyphen" unicode="&#x2d;" horiz-adv-x="512" d="M51 330 L461 330 L461 370 L51 370 L51 330 L51 330 Z " />
<glyph glyph-name="period" unicode="&#x2e;" horiz-adv-x="202" d="M131 0 L131 70 L71 70 L71 0 L131 0 L131 0 Z " />
<glyph glyph-name="slash" unicode="&#x2f;" horiz-adv-x="485" d="M485 700 L440 700 L0 0 L45 0 L485 700 L485 700 Z " />
<glyph glyph-name="zero" unicode="0" horiz-adv-x="767" d="M241 670 L526 670 L641 565 L641 135 L526 30 L241 30 L126 135 L126 565 L241 670 L241 670 Z M226 710 L86 580 L86 120 L226 -10 L541 -10 L681 120 L681 580 L541 710 L226 710 L226 710 Z " />
<glyph glyph-name="one" unicode="1" horiz-adv-x="462" d="M411 0 L411 40 L261 40 L261 700 L71 700 L71 660 L221 660 L221 40 L71 40 L71 0 L411 0 L411 0 Z " />
<glyph glyph-name="two" unicode="2" horiz-adv-x="702" d="M66 230 L66 0 L621 0 L621 40 L106 40 L106 215 L221 320 L496 320 L636 450 L636 595 L521 700 L91 700 L91 660 L506 660 L596 580 L596 465 L481 360 L206 360 L66 230 L66 230 Z " />
<glyph glyph-name="three" unicode="3" horiz-adv-x="676" d="M45 660 L455 660 L545 580 L545 445 L475 380 L190 380 L190 340 L495 340 L565 275 L565 120 L475 40 L35 40 L35 0 L490 0 L605 105 L605 285 L515 370 L585 435 L585 595 L470 700 L45 700 L45 660 L45 660 Z " />
<glyph glyph-name="four" unicode="4" horiz-adv-x="695" d="M530 0 L570 0 L570 150 L665 150 L665 190 L570 190 L570 700 L525 700 L25 185 L25 150 L530 150 L530 0 L530 0 Z M530 190 L80 190 L530 655 L530 190 L530 190 Z " />
<glyph glyph-name="five" unicode="5" horiz-adv-x="687" d="M506 0 L636 120 L636 280 L506 400 L141 400 L141 660 L591 660 L591 700 L101 700 L101 360 L491 360 L596 265 L596 135 L491 40 L91 40 L91 0 L506 0 L506 0 Z " />
<glyph glyph-name="six" unicode="6" horiz-adv-x="717" d="M216 -10 L526 -10 L656 110 L656 300 L526 420 L126 420 L126 555 L241 660 L606 660 L606 700 L226 700 L86 570 L86 110 L216 -10 L216 -10 Z M616 285 L616 125 L511 30 L231 30 L126 125 L126 380 L511 380 L616 285 L616 285 Z " />
<glyph glyph-name="seven" unicode="7" horiz-adv-x="620" d="M25 660 L535 660 L155 0 L200 0 L585 670 L585 700 L25 700 L25 660 L25 660 Z " />
<glyph glyph-name="eight" unicode="8" horiz-adv-x="727" d="M541 -10 L656 95 L656 285 L561 370 L636 435 L636 605 L521 710 L206 710 L91 605 L91 435 L166 370 L71 285 L71 95 L186 -10 L541 -10 L541 -10 Z M526 350 L616 270 L616 110 L526 30 L201 30 L111 110 L111 270 L201 350 L526 350 L526 350 Z M221 670 L506 670 L596 590 L596 450 L526 390 L201 390 L131 450 L131 590 L221 670 L221 670 Z " />
<glyph glyph-name="nine" unicode="9" horiz-adv-x="717" d="M501 710 L191 710 L61 590 L61 400 L191 280 L591 280 L591 145 L476 40 L111 40 L111 0 L491 0 L631 130 L631 590 L501 710 L501 710 Z M101 415 L101 575 L206 670 L486 670 L591 575 L591 320 L206 320 L101 415 L101 415 Z " />
<glyph glyph-name="colon" unicode="&#x3a;" horiz-adv-x="222" d="M141 0 L141 70 L81 70 L81 0 L141 0 L141 0 Z M141 430 L141 500 L81 500 L81 430 L141 430 L141 430 Z " />
<glyph glyph-name="semicolon" unicode="&#x3b;" horiz-adv-x="232" d="M151 430 L151 500 L91 500 L91 430 L151 430 L151 430 Z M81 -80 L106 -90 L151 0 L151 70 L91 70 L91 0 L116 0 L81 -80 L81 -80 Z " />
<glyph glyph-name="less" unicode="&#x3c;" horiz-adv-x="412" d="M51 255 L321 -10 L351 20 L106 255 L351 490 L321 520 L51 255 L51 255 Z " />
<glyph glyph-name="equal" unicode="&#x3d;" horiz-adv-x="542" d="M61 415 L481 415 L481 455 L61 455 L61 415 L61 415 Z M61 205 L481 205 L481 245 L61 245 L61 205 L61 205 Z " />
<glyph glyph-name="greater" unicode="&#x3e;" horiz-adv-x="412" d="M361 255 L91 520 L61 490 L306 255 L61 20 L91 -10 L361 255 L361 255 Z " />
<glyph glyph-name="question" unicode="&#x3f;" horiz-adv-x="601" d="M400 330 L250 330 L220 305 L220 180 L260 180 L260 290 L415 290 L550 415 L550 575 L415 700 L10 700 L10 660 L400 660 L510 560 L510 430 L400 330 L400 330 Z M270 0 L270 70 L210 70 L210 0 L270 0 L270 0 Z " />
<glyph glyph-name="at" unicode="&#x40;" horiz-adv-x="977" d="M256 730 L86 570 L86 120 L256 -40 L771 -40 L771 0 L271 0 L126 135 L126 555 L271 690 L716 690 L861 550 L861 275 L766 190 L691 190 L646 230 L646 540 L416 540 L326 460 L326 230 L416 150 L576 150 L626 195 L676 150 L781 150 L901 260 L901 570 L731 730 L256 730 L256 730 Z M366 250 L366 440 L431 500 L606 500 L606 230 L561 190 L431 190 L366 250 L366 250 Z " />
<glyph glyph-name="A" unicode="A" horiz-adv-x="740" d="M675 0 L720 0 L385 700 L355 700 L20 0 L65 0 L165 215 L575 215 L675 0 L675 0 Z M370 635 L555 255 L185 255 L370 635 L370 635 Z " />
<glyph glyph-name="B" unicode="B" horiz-adv-x="778" d="M602 375 L672 440 L672 595 L557 700 L102 700 L102 0 L592 0 L707 105 L707 275 L602 375 L602 375 Z M577 40 L142 40 L142 345 L577 345 L667 260 L667 120 L577 40 L577 40 Z M632 580 L632 455 L557 385 L142 385 L142 660 L542 660 L632 580 L632 580 Z " />
<glyph glyph-name="C" unicode="C" horiz-adv-x="697" d="M126 555 L241 660 L646 660 L646 700 L226 700 L86 570 L86 130 L226 0 L646 0 L646 40 L241 40 L126 145 L126 555 L126 555 Z " />
<glyph glyph-name="D" unicode="D" horiz-adv-x="788" d="M102 0 L562 0 L702 130 L702 570 L562 700 L102 700 L102 0 L102 0 Z M142 40 L142 660 L547 660 L662 555 L662 145 L547 40 L142 40 L142 40 Z " />
<glyph glyph-name="E" unicode="E" horiz-adv-x="718" d="M102 700 L102 0 L667 0 L667 40 L142 40 L142 330 L552 330 L552 370 L142 370 L142 660 L657 660 L657 700 L102 700 L102 700 Z " />
<glyph glyph-name="F" unicode="F" horiz-adv-x="667" d="M102 700 L102 0 L142 0 L142 300 L547 300 L547 340 L142 340 L142 660 L637 660 L637 700 L102 700 L102 700 Z " />
<glyph glyph-name="G" unicode="G" horiz-adv-x="787" d="M671 145 L556 40 L241 40 L126 145 L126 555 L241 660 L641 660 L641 700 L226 700 L86 570 L86 130 L226 0 L571 0 L711 130 L711 380 L421 380 L421 340 L671 340 L671 145 L671 145 Z " />
<glyph glyph-name="H" unicode="H" horiz-adv-x="794" d="M142 330 L652 330 L652 0 L692 0 L692 700 L652 700 L652 370 L142 370 L142 700 L102 700 L102 0 L142 0 L142 330 L142 330 Z " />
<glyph glyph-name="I" unicode="I" horiz-adv-x="442" d="M381 0 L381 40 L241 40 L241 660 L381 660 L381 700 L61 700 L61 660 L201 660 L201 40 L61 40 L61 0 L381 0 L381 0 Z " />
<glyph glyph-name="J" unicode="J" horiz-adv-x="572" d="M430 145 L315 40 L10 40 L10 0 L330 0 L470 130 L470 700 L430 700 L430 145 L430 145 Z " />
<glyph glyph-name="K" unicode="K" horiz-adv-x="707" d="M142 335 L382 335 L637 0 L687 0 L412 360 L667 700 L617 700 L377 375 L142 375 L142 700 L102 700 L102 0 L142 0 L142 335 L142 335 Z " />
<glyph glyph-name="L" unicode="L" horiz-adv-x="627" d="M102 700 L102 0 L617 0 L617 40 L142 40 L142 700 L102 700 L102 700 Z " />
<glyph glyph-name="M" unicode="M" horiz-adv-x="944" d="M472 235 L142 700 L102 700 L102 0 L142 0 L142 630 L457 185 L487 185 L802 630 L802 0 L842 0 L842 700 L802 700 L472 235 L472 235 Z " />
<glyph glyph-name="N" unicode="N" horiz-adv-x="784" d="M642 70 L137 700 L102 700 L102 0 L142 0 L142 630 L647 0 L682 0 L682 700 L642 700 L642 70 L642 70 Z " />
<glyph glyph-name="O" unicode="O" horiz-adv-x="792" d="M241 670 L551 670 L666 565 L666 135 L551 30 L241 30 L126 135 L126 565 L241 670 L241 670 Z M226 710 L86 580 L86 120 L226 -10 L566 -10 L706 120 L706 580 L566 710 L226 710 L226 710 Z " />
<glyph glyph-name="P" unicode="P" horiz-adv-x="748" d="M557 250 L687 370 L687 580 L557 700 L102 700 L102 0 L142 0 L142 250 L557 250 L557 250 Z M647 565 L647 385 L542 290 L142 290 L142 660 L542 660 L647 565 L647 565 Z " />
<glyph glyph-name="Q" unicode="Q" horiz-adv-x="791" d="M226 710 L86 580 L86 120 L226 -10 L566 -10 L616 40 L721 -90 L766 -90 L646 65 L706 120 L706 580 L566 710 L226 710 L226 710 Z M241 670 L551 670 L666 565 L666 135 L621 95 L536 200 L491 200 L591 70 L551 30 L241 30 L126 135 L126 565 L241 670 L241 670 Z " />
<glyph glyph-name="R" unicode="R" horiz-adv-x="773" d="M547 270 L677 390 L677 580 L547 700 L102 700 L102 0 L142 0 L142 270 L502 270 L677 0 L722 0 L547 270 L547 270 Z M637 565 L637 405 L532 310 L142 310 L142 660 L532 660 L637 565 L637 565 Z " />
<glyph glyph-name="S" unicode="S" horiz-adv-x="717" d="M201 335 L511 335 L616 240 L616 135 L511 40 L81 40 L81 0 L526 0 L656 120 L656 255 L526 375 L216 375 L111 470 L111 565 L216 660 L621 660 L621 700 L201 700 L71 580 L71 455 L201 335 L201 335 Z " />
<glyph glyph-name="T" unicode="T" horiz-adv-x="630" d="M335 0 L335 660 L615 660 L615 700 L15 700 L15 660 L295 660 L295 0 L335 0 L335 0 Z " />
<glyph glyph-name="U" unicode="U" horiz-adv-x="804" d="M662 135 L547 30 L257 30 L142 135 L142 700 L102 700 L102 120 L242 -10 L562 -10 L702 120 L702 700 L662 700 L662 135 L662 135 Z " />
<glyph glyph-name="V" unicode="V" horiz-adv-x="710" d="M380 0 L690 700 L650 700 L355 40 L60 700 L20 700 L330 0 L380 0 L380 0 Z " />
<glyph glyph-name="W" unicode="W" horiz-adv-x="1060" d="M530 625 L750 0 L800 0 L1030 700 L990 700 L775 45 L545 700 L515 700 L285 45 L70 700 L30 700 L260 0 L310 0 L530 625 L530 625 Z " />
<glyph glyph-name="X" unicode="X" horiz-adv-x="660" d="M90 700 L40 700 L305 365 L20 0 L70 0 L330 330 L590 0 L640 0 L355 365 L620 700 L570 700 L330 395 L90 700 L90 700 Z " />
<glyph glyph-name="Y" unicode="Y" horiz-adv-x="680" d="M320 0 L360 0 L360 265 L680 700 L630 700 L340 305 L50 700 L0 700 L320 265 L320 0 L320 0 Z " />
<glyph glyph-name="Z" unicode="Z" horiz-adv-x="650" d="M610 0 L610 40 L95 40 L600 670 L600 700 L55 700 L55 660 L545 660 L40 30 L40 0 L610 0 L610 0 Z " />
<glyph glyph-name="bracketleft" unicode="&#x5b;" horiz-adv-x="322" d="M282 -200 L282 -160 L142 -160 L142 720 L282 720 L282 760 L102 760 L102 -200 L282 -200 L282 -200 Z " />
<glyph glyph-name="backslash" unicode="&#x5c;" horiz-adv-x="485" d="M440 0 L485 0 L45 700 L0 700 L440 0 L440 0 Z " />
<glyph glyph-name="bracketright" unicode="&#x5d;" horiz-adv-x="322" d="M220 -200 L220 760 L40 760 L40 720 L180 720 L180 -160 L40 -160 L40 -200 L220 -200 L220 -200 Z " />
<glyph glyph-name="asciicircum" unicode="&#x5e;" horiz-adv-x="460" d="M230 656 L380 480 L430 480 L240 700 L220 700 L30 480 L80 480 L230 656 L230 656 Z " />
<glyph glyph-name="underscore" unicode="&#x5f;" horiz-adv-x="400" d="M0 -120 L400 -120 L400 -80 L0 -80 L0 -120 L0 -120 Z " />
<glyph glyph-name="grave" unicode="&#x60;" horiz-adv-x="252" d="M116 750 L61 750 L161 570 L191 570 L116 750 L116 750 Z " />
<glyph glyph-name="a" unicode="a" horiz-adv-x="577" d="M456 110 L386 40 L171 40 L91 110 L91 175 L171 245 L456 245 L456 110 L456 110 Z M461 65 L471 0 L496 0 L496 400 L386 500 L111 500 L111 460 L371 460 L456 385 L456 285 L156 285 L51 190 L51 95 L156 0 L396 0 L461 65 L461 65 Z " />
<glyph glyph-name="b" unicode="b" horiz-adv-x="617" d="M91 700 L91 0 L421 0 L546 115 L546 385 L421 500 L126 500 L126 700 L91 700 L91 700 Z M406 40 L131 40 L131 460 L406 460 L506 370 L506 130 L406 40 L406 40 Z " />
<glyph glyph-name="c" unicode="c" horiz-adv-x="521" d="M111 130 L111 370 L211 460 L481 460 L481 500 L196 500 L71 385 L71 115 L196 0 L481 0 L481 40 L211 40 L111 130 L111 130 Z " />
<glyph glyph-name="d" unicode="d" horiz-adv-x="617" d="M416 40 L211 40 L111 130 L111 370 L211 460 L486 460 L486 110 L416 40 L416 40 Z M426 0 L491 65 L501 0 L526 0 L526 700 L486 700 L486 500 L196 500 L71 385 L71 115 L196 0 L426 0 L426 0 Z " />
<glyph glyph-name="e" unicode="e" horiz-adv-x="582" d="M197 510 L71 395 L71 115 L196 0 L476 0 L476 40 L211 40 L111 130 L111 225 L516 225 L516 395 L391 510 L197 510 L197 510 Z M111 380 L211 470 L376 470 L476 380 L476 265 L111 265 L111 380 L111 380 Z " />
<glyph glyph-name="f" unicode="f" horiz-adv-x="400" d="M30 435 L145 435 L145 0 L185 0 L185 435 L355 435 L355 475 L185 475 L185 570 L285 660 L420 660 L420 700 L270 700 L145 585 L145 475 L30 475 L30 435 L30 435 Z " />
<glyph glyph-name="g" unicode="g" horiz-adv-x="617" d="M211 460 L491 460 L491 40 L211 40 L111 130 L111 370 L211 460 L211 460 Z M491 -70 L391 -160 L126 -160 L126 -200 L406 -200 L531 -85 L531 500 L196 500 L71 385 L71 115 L196 0 L491 0 L491 -70 L491 -70 Z " />
<glyph glyph-name="h" unicode="h" horiz-adv-x="622" d="M91 700 L91 0 L131 0 L131 460 L411 460 L501 380 L501 0 L541 0 L541 395 L426 500 L131 500 L131 700 L91 700 L91 700 Z " />
<glyph glyph-name="i" unicode="i" horiz-adv-x="222" d="M91 500 L91 0 L131 0 L131 500 L91 500 L91 500 Z M131 610 L131 700 L91 700 L91 610 L131 610 L131 610 Z " />
<glyph glyph-name="j" unicode="j" horiz-adv-x="237" d="M6 -160 L-79 -160 L-79 -200 L21 -200 L146 -85 L146 500 L106 500 L106 -70 L6 -160 L6 -160 Z M146 610 L146 700 L106 700 L106 610 L146 610 L146 610 Z " />
<glyph glyph-name="k" unicode="k" horiz-adv-x="546" d="M526 0 L341 260 L511 500 L461 500 L306 280 L131 280 L131 700 L91 700 L91 0 L131 0 L131 240 L306 240 L476 0 L526 0 L526 0 Z " />
<glyph glyph-name="l" unicode="l" horiz-adv-x="256" d="M165 0 L165 700 L40 700 L40 660 L125 660 L125 0 L165 0 L165 0 Z " />
<glyph glyph-name="m" unicode="m" horiz-adv-x="887" d="M126 390 L196 460 L351 460 L426 395 L426 0 L466 0 L466 395 L541 460 L676 460 L766 380 L766 0 L806 0 L806 395 L691 500 L526 500 L451 430 L441 430 L366 500 L186 500 L121 435 L111 500 L86 500 L86 0 L126 0 L126 390 L126 390 Z " />
<glyph glyph-name="n" unicode="n" horiz-adv-x="617" d="M111 500 L86 500 L86 0 L126 0 L126 390 L196 460 L406 460 L496 380 L496 0 L536 0 L536 395 L421 500 L186 500 L121 435 L111 500 L111 500 Z " />
<glyph glyph-name="o" unicode="o" horiz-adv-x="612" d="M71 395 L71 105 L196 -10 L416 -10 L541 105 L541 395 L416 510 L196 510 L71 395 L71 395 Z M501 380 L501 120 L401 30 L211 30 L111 120 L111 380 L211 470 L401 470 L501 380 L501 380 Z " />
<glyph glyph-name="p" unicode="p" horiz-adv-x="612" d="M196 460 L401 460 L501 370 L501 130 L401 40 L126 40 L126 390 L196 460 L196 460 Z M186 500 L121 435 L111 500 L86 500 L86 -200 L126 -200 L126 0 L416 0 L541 115 L541 385 L416 500 L186 500 L186 500 Z " />
<glyph glyph-name="q" unicode="q" horiz-adv-x="612" d="M526 -200 L526 500 L196 500 L71 385 L71 115 L196 0 L491 0 L491 -200 L526 -200 L526 -200 Z M211 460 L486 460 L486 40 L211 40 L111 130 L111 370 L211 460 L211 460 Z " />
<glyph glyph-name="r" unicode="r" horiz-adv-x="451" d="M111 500 L86 500 L86 0 L126 0 L126 390 L196 460 L441 460 L441 500 L186 500 L121 435 L111 500 L111 500 Z " />
<glyph glyph-name="s" unicode="s" horiz-adv-x="536" d="M171 275 L96 345 L96 390 L176 460 L461 460 L461 500 L161 500 L56 405 L56 325 L156 235 L371 235 L451 165 L451 110 L371 40 L61 40 L61 0 L386 0 L491 95 L491 180 L386 275 L171 275 L171 275 Z " />
<glyph glyph-name="t" unicode="t" horiz-adv-x="430" d="M30 460 L145 460 L145 115 L270 0 L400 0 L400 40 L285 40 L185 130 L185 460 L356 460 L356 500 L185 500 L185 630 L145 630 L145 500 L30 500 L30 460 L30 460 Z " />
<glyph glyph-name="u" unicode="u" horiz-adv-x="622" d="M511 0 L536 0 L536 500 L496 500 L496 110 L426 40 L216 40 L126 120 L126 500 L86 500 L86 105 L201 0 L436 0 L501 65 L511 0 L511 0 Z " />
<glyph glyph-name="v" unicode="v" horiz-adv-x="550" d="M300 0 L530 500 L485 500 L275 40 L65 500 L20 500 L250 0 L300 0 L300 0 Z " />
<glyph glyph-name="w" unicode="w" horiz-adv-x="780" d="M550 0 L580 0 L750 500 L710 500 L565 65 L405 500 L375 500 L215 65 L70 500 L30 500 L200 0 L230 0 L390 435 L550 0 L550 0 Z " />
<glyph glyph-name="x" unicode="x" horiz-adv-x="505" d="M435 0 L485 0 L275 260 L470 500 L420 500 L250 285 L80 500 L30 500 L225 260 L20 0 L65 0 L250 230 L435 0 L435 0 Z " />
<glyph glyph-name="y" unicode="y" horiz-adv-x="622" d="M496 0 L496 -70 L396 -160 L136 -160 L136 -200 L411 -200 L536 -85 L536 500 L496 500 L496 40 L216 40 L126 120 L126 500 L86 500 L86 105 L201 0 L496 0 L496 0 Z " />
<glyph glyph-name="z" unicode="z" horiz-adv-x="490" d="M445 470 L445 500 L45 500 L45 460 L390 460 L35 30 L35 0 L455 0 L455 40 L90 40 L445 470 L445 470 Z " />
<glyph glyph-name="braceleft" unicode="&#x7b;" horiz-adv-x="361" d="M281 720 L316 720 L316 760 L266 760 L156 660 L156 385 L71 305 L71 265 L156 185 L156 -100 L266 -200 L316 -200 L316 -160 L281 -160 L196 -85 L196 200 L111 285 L196 370 L196 645 L281 720 L281 720 Z " />
<glyph glyph-name="bar" unicode="&#x7c;" horiz-adv-x="284" d="M122 -200 L162 -200 L162 760 L122 760 L122 -200 L122 -200 Z " />
<glyph glyph-name="braceright" unicode="&#x7d;" horiz-adv-x="361" d="M165 645 L165 370 L250 285 L165 200 L165 -85 L80 -160 L45 -160 L45 -200 L95 -200 L205 -100 L205 185 L290 265 L290 305 L205 385 L205 660 L95 760 L45 760 L45 720 L80 720 L165 645 L165 645 Z " />
<glyph glyph-name="asciitilde" unicode="&#x7e;" horiz-adv-x="527" d="M186 405 L51 295 L76 265 L186 355 L341 245 L476 355 L451 385 L341 295 L186 405 L186 405 Z " />
<glyph glyph-name="nbspace" unicode="&#xa0;" horiz-adv-x="330" d="" />
<glyph glyph-name="exclamdown" unicode="&#xa1;" horiz-adv-x="242" d="M99 -200 L139 -200 L139 190 L129 320 L109 320 L99 190 L99 -200 L99 -200 Z M89 500 L89 430 L149 430 L149 500 L89 500 L89 500 Z " />
<glyph glyph-name="cent" unicode="&#xa2;" horiz-adv-x="541" d="M301 -90 L341 -90 L341 0 L501 0 L501 40 L341 40 L341 460 L501 460 L501 500 L341 500 L341 590 L301 590 L301 500 L196 500 L71 385 L71 115 L196 0 L301 0 L301 -90 L301 -90 Z M111 130 L111 370 L211 460 L301 460 L301 40 L211 40 L111 130 L111 130 Z " />
<glyph glyph-name="sterling" unicode="&#xa3;" horiz-adv-x="625" d="M150 40 L235 120 L235 330 L520 330 L520 370 L235 370 L235 555 L350 660 L525 660 L525 700 L335 700 L195 570 L195 370 L70 370 L70 330 L195 330 L195 135 L95 40 L30 40 L30 0 L595 0 L595 40 L150 40 L150 40 Z " />
<glyph glyph-name="currency" unicode="&#xa4;" horiz-adv-x="767" d="M56 140 L141 140 L141 0 L181 0 L181 140 L586 140 L586 180 L181 180 L181 280 L576 280 L706 400 L706 580 L576 700 L141 700 L141 320 L56 320 L56 280 L141 280 L141 180 L56 180 L56 140 L56 140 Z M666 565 L666 415 L561 320 L181 320 L181 660 L561 660 L666 565 L666 565 Z " />
<glyph glyph-name="yen" unicode="&#xa5;" horiz-adv-x="680" d="M80 280 L310 280 L320 265 L320 180 L80 180 L80 140 L320 140 L320 0 L360 0 L360 140 L600 140 L600 180 L360 180 L360 265 L370 280 L600 280 L600 320 L400 320 L680 700 L635 700 L340 300 L45 700 L0 700 L280 320 L80 320 L80 280 L80 280 Z " />
<glyph glyph-name="brokenbar" unicode="&#xa6;" horiz-adv-x="264" d="M112 -200 L152 -200 L152 200 L112 200 L112 -200 L112 -200 Z M152 760 L112 760 L112 360 L152 360 L152 760 L152 760 Z " />
<glyph glyph-name="section" unicode="&#xa7;" horiz-adv-x="657" d="M441 425 L186 425 L126 480 L126 565 L231 660 L536 660 L536 700 L216 700 L86 580 L86 465 L151 405 L86 350 L86 200 L216 80 L471 80 L531 25 L531 -65 L426 -160 L96 -160 L96 -200 L441 -200 L571 -80 L571 40 L506 100 L571 155 L571 305 L441 425 L441 425 Z M126 215 L126 335 L186 385 L426 385 L531 290 L531 170 L471 120 L231 120 L126 215 L126 215 Z " />
<glyph glyph-name="dieresis" unicode="&#xa8;" horiz-adv-x="362" d="M121 625 L121 695 L61 695 L61 625 L121 625 L121 625 Z M301 625 L301 695 L241 695 L241 625 L301 625 L301 625 Z " />
<glyph glyph-name="copyright" unicode="&#xa9;" horiz-adv-x="1017" d="M891 555 L891 135 L746 0 L271 0 L126 135 L126 555 L271 690 L746 690 L891 555 L891 555 Z M256 730 L86 570 L86 120 L256 -40 L761 -40 L931 120 L931 570 L761 730 L256 730 L256 730 Z M661 190 L441 190 L376 245 L376 445 L441 500 L661 500 L661 540 L426 540 L336 460 L336 230 L426 150 L661 150 L661 190 L661 190 Z " />
<glyph glyph-name="ordfeminine" unicode="&#xaa;" horiz-adv-x="472" d="M371 420 L321 370 L151 370 L101 415 L101 460 L151 505 L371 505 L371 420 L371 420 Z M376 375 L386 330 L411 330 L411 622 L326 700 L101 700 L101 660 L316 660 L371 610 L371 545 L141 545 L61 475 L61 400 L141 330 L331 330 L376 375 L376 375 Z " />
<glyph glyph-name="guillemotleft" unicode="&#xab;" horiz-adv-x="547" d="M261 5 L291 30 L106 250 L291 470 L261 495 L51 250 L261 5 L261 5 Z M456 5 L486 30 L301 250 L486 470 L456 495 L246 250 L456 5 L456 5 Z " />
<glyph glyph-name="logicalnot" unicode="&#xac;" horiz-adv-x="532" d="M51 330 L441 330 L441 240 L481 240 L481 370 L51 370 L51 330 L51 330 Z " />
<glyph glyph-name="uni00AD" unicode="&#xad;" horiz-adv-x="492" d="M51 330 L441 330 L441 370 L51 370 L51 330 L51 330 Z " />
<glyph glyph-name="registered" unicode="&#xae;" horiz-adv-x="1017" d="M256 730 L86 570 L86 120 L256 -40 L761 -40 L931 120 L931 570 L761 730 L256 730 L256 730 Z M891 555 L891 135 L746 0 L271 0 L126 135 L126 555 L271 690 L746 690 L891 555 L891 555 Z M596 295 L671 370 L671 475 L596 540 L341 540 L341 150 L381 150 L381 295 L550 295 L637 150 L683 150 L596 295 L596 295 Z M631 460 L631 385 L581 335 L381 335 L381 500 L581 500 L631 460 L631 460 Z " />
<glyph glyph-name="macron" unicode="&#xaf;" horiz-adv-x="392" d="M51 640 L341 640 L341 680 L51 680 L51 640 L51 640 Z " />
<glyph glyph-name="degree" unicode="&#xb0;" horiz-adv-x="467" d="M111 455 L111 610 L181 670 L286 670 L356 610 L356 455 L286 395 L181 395 L111 455 L111 455 Z M71 440 L166 355 L301 355 L396 440 L396 625 L301 710 L166 710 L71 625 L71 440 L71 440 Z " />
<glyph glyph-name="plusminus" unicode="&#xb1;" horiz-adv-x="562" d="M61 410 L261 410 L261 200 L301 200 L301 410 L501 410 L501 450 L301 450 L301 660 L261 660 L261 450 L61 450 L61 410 L61 410 Z M71 90 L491 90 L491 130 L71 130 L71 90 L71 90 Z " />
<glyph glyph-name="twosuperior" unicode="&#xb2;" horiz-adv-x="422" d="M101 405 L101 475 L146 515 L301 515 L361 570 L361 645 L296 700 L71 700 L71 665 L281 665 L321 630 L321 580 L286 550 L131 550 L61 485 L61 370 L351 370 L351 405 L101 405 L101 405 Z " />
<glyph glyph-name="threesuperior" unicode="&#xb3;" horiz-adv-x="422" d="M281 555 L141 555 L141 520 L291 520 L321 495 L321 430 L291 405 L61 405 L61 370 L306 370 L361 420 L361 500 L316 540 L351 570 L351 650 L296 700 L66 700 L66 665 L281 665 L311 640 L311 580 L281 555 L281 555 Z " />
<glyph glyph-name="acute" unicode="&#xb4;" horiz-adv-x="242" d="M51 570 L81 570 L181 750 L126 750 L51 570 L51 570 Z " />
<glyph glyph-name="mu" unicode="&#xb5;" horiz-adv-x="622" d="M126 60 L191 0 L436 0 L501 65 L511 0 L536 0 L536 500 L496 500 L496 110 L426 40 L206 40 L126 110 L126 500 L86 500 L86 -200 L126 -200 L126 60 L126 60 Z " />
<glyph glyph-name="paragraph" unicode="&#xb6;" horiz-adv-x="563" d="M281 270 L281 -200 L321 -200 L321 700 L206 700 L76 580 L76 390 L206 270 L281 270 L281 270 Z M411 700 L411 -200 L451 -200 L451 700 L411 700 L411 700 Z " />
<glyph glyph-name="periodcentered" unicode="&#xb7;" horiz-adv-x="314" d="M202 305 L202 390 L112 390 L112 305 L202 305 L202 305 Z " />
<glyph glyph-name="cedilla" unicode="&#xb8;" horiz-adv-x="287" d="M76 0 L76 -80 L136 -80 L186 -125 L186 -150 L131 -200 L61 -200 L61 -235 L146 -235 L226 -165 L226 -110 L146 -40 L116 -40 L116 0 L76 0 L76 0 Z " />
<glyph glyph-name="onesuperior" unicode="&#xb9;" horiz-adv-x="292" d="M231 370 L231 405 L166 405 L166 700 L61 700 L61 665 L126 665 L126 405 L61 405 L61 370 L231 370 L231 370 Z " />
<glyph glyph-name="ordmasculine" unicode="&#xba;" horiz-adv-x="471" d="M61 620 L61 410 L151 330 L321 330 L411 410 L411 620 L321 700 L151 700 L61 620 L61 620 Z M371 610 L371 420 L306 365 L166 365 L101 420 L101 610 L166 665 L306 665 L371 610 L371 610 Z " />
<glyph glyph-name="guillemotright" unicode="&#xbb;" horiz-adv-x="547" d="M496 250 L286 495 L256 470 L441 250 L256 30 L286 5 L496 250 L496 250 Z M301 250 L91 495 L61 470 L246 250 L61 30 L91 5 L301 250 L301 250 Z " />
<glyph glyph-name="onequarter" unicode="&#xbc;" horiz-adv-x="862" d="M231 370 L231 405 L166 405 L166 700 L61 700 L61 665 L126 665 L126 405 L61 405 L61 370 L231 370 L231 370 Z M661 700 L611 700 L171 0 L221 0 L661 700 L661 700 Z M726 0 L766 0 L766 70 L811 70 L811 105 L766 105 L766 330 L721 330 L486 100 L486 70 L726 70 L726 0 L726 0 Z M726 105 L541 105 L726 285 L726 105 L726 105 Z " />
<glyph glyph-name="onehalf" unicode="&#xbd;" horiz-adv-x="937" d="M616 50 L616 120 L661 160 L816 160 L876 215 L876 290 L811 345 L586 345 L586 310 L796 310 L836 275 L836 225 L801 195 L646 195 L576 130 L576 15 L866 15 L866 50 L616 50 L616 50 Z M231 370 L231 405 L166 405 L166 700 L61 700 L61 665 L126 665 L126 405 L61 405 L61 370 L231 370 L231 370 Z M661 700 L611 700 L171 0 L221 0 L661 700 L661 700 Z " />
<glyph glyph-name="threequarters" unicode="&#xbe;" horiz-adv-x="912" d="M296 555 L156 555 L156 520 L306 520 L336 495 L336 430 L306 405 L76 405 L76 370 L321 370 L376 420 L376 500 L331 540 L366 570 L366 650 L311 700 L81 700 L81 665 L296 665 L326 640 L326 580 L296 555 L296 555 Z M746 700 L696 700 L256 0 L306 0 L746 700 L746 700 Z M776 0 L816 0 L816 70 L861 70 L861 105 L816 105 L816 330 L771 330 L536 100 L536 70 L776 70 L776 0 L776 0 Z M776 105 L591 105 L776 285 L776 105 L776 105 Z " />
<glyph glyph-name="questiondown" unicode="&#xbf;" horiz-adv-x="601" d="M201 170 L351 170 L381 195 L381 320 L341 320 L341 210 L186 210 L51 85 L51 -75 L186 -200 L591 -200 L591 -160 L201 -160 L91 -60 L91 70 L201 170 L201 170 Z M331 500 L331 430 L391 430 L391 500 L331 500 L331 500 Z " />
<glyph glyph-name="Agrave" unicode="&#xc0;" horiz-adv-x="740" d="M675 0 L720 0 L385 700 L355 700 L20 0 L65 0 L165 215 L575 215 L675 0 L675 0 Z M370 635 L555 255 L185 255 L370 635 L370 635 Z M310 950 L255 950 L355 770 L385 770 L310 950 L310 950 Z " />
<glyph glyph-name="Aacute" unicode="&#xc1;" horiz-adv-x="740" d="M675 0 L720 0 L385 700 L355 700 L20 0 L65 0 L165 215 L575 215 L675 0 L675 0 Z M370 635 L555 255 L185 255 L370 635 L370 635 Z M355 770 L385 770 L485 950 L430 950 L355 770 L355 770 Z " />
<glyph glyph-name="Acircumflex" unicode="&#xc2;" horiz-adv-x="740" d="M675 0 L720 0 L385 700 L355 700 L20 0 L65 0 L165 215 L575 215 L675 0 L675 0 Z M370 635 L555 255 L185 255 L370 635 L370 635 Z M345 930 L225 790 L275 790 L370 905 L465 790 L515 790 L395 930 L345 930 L345 930 Z " />
<glyph glyph-name="Atilde" unicode="&#xc3;" horiz-adv-x="740" d="M675 0 L720 0 L385 700 L355 700 L20 0 L65 0 L165 215 L575 215 L675 0 L675 0 Z M370 635 L555 255 L185 255 L370 635 L370 635 Z M323 865 L423 810 L518 870 L498 905 L423 855 L323 910 L223 845 L243 810 L323 865 L323 865 Z " />
<glyph glyph-name="Adieresis" unicode="&#xc4;" horiz-adv-x="740" d="M675 0 L720 0 L385 700 L355 700 L20 0 L65 0 L165 215 L575 215 L675 0 L675 0 Z M370 635 L555 255 L185 255 L370 635 L370 635 Z M310 825 L310 895 L250 895 L250 825 L310 825 L310 825 Z M490 825 L490 895 L430 895 L430 825 L490 825 L490 825 Z " />
<glyph glyph-name="Aring" unicode="&#xc5;" horiz-adv-x="740" d="M675 0 L720 0 L385 700 L355 700 L20 0 L65 0 L165 215 L575 215 L675 0 L675 0 Z M370 635 L555 255 L185 255 L370 635 L370 635 Z M300 840 L300 885 L345 930 L395 930 L440 885 L440 840 L395 795 L345 795 L300 840 L300 840 Z M260 825 L329 755 L410 755 L480 825 L480 900 L410 970 L330 970 L260 900 L260 825 L260 825 Z " />
<glyph glyph-name="AE" unicode="&#xc6;" horiz-adv-x="1091" d="M370 660 L520 660 L520 255 L175 255 L370 660 L370 660 Z M345 700 L10 0 L55 0 L155 215 L520 215 L520 0 L1040 0 L1040 40 L560 40 L560 330 L930 330 L930 370 L560 370 L560 660 L1030 660 L1030 700 L345 700 L345 700 Z " />
<glyph glyph-name="Ccedilla" unicode="&#xc7;" horiz-adv-x="697" d="M366 0 L366 -80 L426 -80 L476 -125 L476 -150 L421 -200 L351 -200 L351 -235 L436 -235 L516 -165 L516 -110 L436 -40 L406 -40 L406 0 L366 0 L366 0 Z M126 555 L241 660 L646 660 L646 700 L226 700 L86 570 L86 130 L226 0 L646 0 L646 40 L241 40 L126 145 L126 555 L126 555 Z " />
<glyph glyph-name="Egrave" unicode="&#xc8;" horiz-adv-x="707" d="M102 700 L102 0 L667 0 L667 40 L142 40 L142 330 L552 330 L552 370 L142 370 L142 660 L657 660 L657 700 L102 700 L102 700 Z M324 950 L269 950 L369 770 L399 770 L324 950 L324 950 Z " />
<glyph glyph-name="Eacute" unicode="&#xc9;" horiz-adv-x="707" d="M102 700 L102 0 L667 0 L667 40 L142 40 L142 330 L552 330 L552 370 L142 370 L142 660 L657 660 L657 700 L102 700 L102 700 Z M369 770 L399 770 L499 950 L444 950 L369 770 L369 770 Z " />
<glyph glyph-name="Ecircumflex" unicode="&#xca;" horiz-adv-x="707" d="M102 700 L102 0 L667 0 L667 40 L142 40 L142 330 L552 330 L552 370 L142 370 L142 660 L657 660 L657 700 L102 700 L102 700 Z M359 930 L239 790 L289 790 L384 905 L479 790 L529 790 L409 930 L359 930 L359 930 Z " />
<glyph glyph-name="Edieresis" unicode="&#xcb;" horiz-adv-x="707" d="M102 700 L102 0 L667 0 L667 40 L142 40 L142 330 L552 330 L552 370 L142 370 L142 660 L657 660 L657 700 L102 700 L102 700 Z M324 825 L324 895 L264 895 L264 825 L324 825 L324 825 Z M504 825 L504 895 L444 895 L444 825 L504 825 L504 825 Z " />
<glyph glyph-name="Igrave" unicode="&#xcc;" horiz-adv-x="442" d="M381 0 L381 40 L241 40 L241 660 L381 660 L381 700 L61 700 L61 660 L201 660 L201 40 L61 40 L61 0 L381 0 L381 0 Z M161 940 L106 940 L206 760 L236 760 L161 940 L161 940 Z " />
<glyph glyph-name="Iacute" unicode="&#xcd;" horiz-adv-x="442" d="M381 0 L381 40 L241 40 L241 660 L381 660 L381 700 L61 700 L61 660 L201 660 L201 40 L61 40 L61 0 L381 0 L381 0 Z M206 760 L236 760 L336 940 L281 940 L206 760 L206 760 Z " />
<glyph glyph-name="Icircumflex" unicode="&#xce;" horiz-adv-x="442" d="M381 0 L381 40 L241 40 L241 660 L381 660 L381 700 L61 700 L61 660 L201 660 L201 40 L61 40 L61 0 L381 0 L381 0 Z M196 930 L76 790 L126 790 L221 905 L316 790 L366 790 L246 930 L196 930 L196 930 Z " />
<glyph glyph-name="Idieresis" unicode="&#xcf;" horiz-adv-x="442" d="M381 0 L381 40 L241 40 L241 660 L381 660 L381 700 L61 700 L61 660 L201 660 L201 40 L61 40 L61 0 L381 0 L381 0 Z M161 825 L161 895 L101 895 L101 825 L161 825 L161 825 Z M341 825 L341 895 L281 895 L281 825 L341 825 L341 825 Z " />
<glyph glyph-name="Eth" unicode="&#xd0;" horiz-adv-x="806" d="M120 0 L580 0 L720 130 L720 570 L580 700 L120 700 L120 370 L35 370 L35 330 L120 330 L120 0 L120 0 Z M160 40 L160 330 L415 330 L415 370 L160 370 L160 660 L565 660 L680 555 L680 145 L565 40 L160 40 L160 40 Z " />
<glyph glyph-name="Ntilde" unicode="&#xd1;" horiz-adv-x="784" d="M642 70 L137 700 L102 700 L102 0 L142 0 L142 630 L647 0 L682 0 L682 700 L642 700 L642 70 L642 70 Z M345 795 L445 740 L540 800 L520 835 L445 785 L345 840 L245 775 L265 740 L345 795 L345 795 Z " />
<glyph glyph-name="Ograve" unicode="&#xd2;" horiz-adv-x="792" d="M241 670 L551 670 L666 565 L666 135 L551 30 L241 30 L126 135 L126 565 L241 670 L241 670 Z M226 710 L86 580 L86 120 L226 -10 L566 -10 L706 120 L706 580 L566 710 L226 710 L226 710 Z M336 950 L281 950 L381 770 L411 770 L336 950 L336 950 Z " />
<glyph glyph-name="Oacute" unicode="&#xd3;" horiz-adv-x="792" d="M241 670 L551 670 L666 565 L666 135 L551 30 L241 30 L126 135 L126 565 L241 670 L241 670 Z M226 710 L86 580 L86 120 L226 -10 L566 -10 L706 120 L706 580 L566 710 L226 710 L226 710 Z M381 770 L411 770 L511 950 L456 950 L381 770 L381 770 Z " />
<glyph glyph-name="Ocircumflex" unicode="&#xd4;" horiz-adv-x="792" d="M241 670 L551 670 L666 565 L666 135 L551 30 L241 30 L126 135 L126 565 L241 670 L241 670 Z M226 710 L86 580 L86 120 L226 -10 L566 -10 L706 120 L706 580 L566 710 L226 710 L226 710 Z M371 930 L251 790 L301 790 L396 905 L491 790 L541 790 L421 930 L371 930 L371 930 Z " />
<glyph glyph-name="Otilde" unicode="&#xd5;" horiz-adv-x="792" d="M241 670 L551 670 L666 565 L666 135 L551 30 L241 30 L126 135 L126 565 L241 670 L241 670 Z M226 710 L86 580 L86 120 L226 -10 L566 -10 L706 120 L706 580 L566 710 L226 710 L226 710 Z M349 865 L449 810 L544 870 L524 905 L449 855 L349 910 L249 845 L269 810 L349 865 L349 865 Z " />
<glyph glyph-name="Odieresis" unicode="&#xd6;" horiz-adv-x="792" d="M241 670 L551 670 L666 565 L666 135 L551 30 L241 30 L126 135 L126 565 L241 670 L241 670 Z M226 710 L86 580 L86 120 L226 -10 L566 -10 L706 120 L706 580 L566 710 L226 710 L226 710 Z M336 825 L336 895 L276 895 L276 825 L336 825 L336 825 Z M516 825 L516 895 L456 895 L456 825 L516 825 L516 825 Z " />
<glyph glyph-name="multiply" unicode="&#xd7;" horiz-adv-x="492" d="M106 180 L246 320 L386 180 L416 210 L276 350 L416 490 L386 520 L246 375 L106 520 L76 490 L216 350 L76 210 L106 180 L106 180 Z " />
<glyph glyph-name="Oslash" unicode="&#xd8;" horiz-adv-x="792" d="M226 710 L86 580 L86 120 L131 80 L51 -10 L101 -10 L156 55 L226 -10 L566 -10 L706 120 L706 580 L661 620 L741 710 L691 710 L636 645 L566 710 L226 710 L226 710 Z M241 670 L551 670 L606 620 L156 105 L126 135 L126 565 L241 670 L241 670 Z M666 565 L666 135 L551 30 L241 30 L186 80 L636 595 L666 565 L666 565 Z " />
<glyph glyph-name="Ugrave" unicode="&#xd9;" horiz-adv-x="804" d="M662 135 L547 30 L257 30 L142 135 L142 700 L102 700 L102 120 L242 -10 L562 -10 L702 120 L702 700 L662 700 L662 135 L662 135 Z M342 950 L287 950 L387 770 L417 770 L342 950 L342 950 Z " />
<glyph glyph-name="Uacute" unicode="&#xda;" horiz-adv-x="804" d="M662 135 L547 30 L257 30 L142 135 L142 700 L102 700 L102 120 L242 -10 L562 -10 L702 120 L702 700 L662 700 L662 135 L662 135 Z M387 770 L417 770 L517 950 L462 950 L387 770 L387 770 Z " />
<glyph glyph-name="Ucircumflex" unicode="&#xdb;" horiz-adv-x="804" d="M662 135 L547 30 L257 30 L142 135 L142 700 L102 700 L102 120 L242 -10 L562 -10 L702 120 L702 700 L662 700 L662 135 L662 135 Z M377 930 L257 790 L307 790 L402 905 L497 790 L547 790 L427 930 L377 930 L377 930 Z " />
<glyph glyph-name="Udieresis" unicode="&#xdc;" horiz-adv-x="804" d="M662 135 L547 30 L257 30 L142 135 L142 700 L102 700 L102 120 L242 -10 L562 -10 L702 120 L702 700 L662 700 L662 135 L662 135 Z M342 825 L342 895 L282 895 L282 825 L342 825 L342 825 Z M522 825 L522 895 L462 895 L462 825 L522 825 L522 825 Z " />
<glyph glyph-name="Yacute" unicode="&#xdd;" horiz-adv-x="680" d="M320 0 L360 0 L360 265 L680 700 L630 700 L340 305 L50 700 L0 700 L320 265 L320 0 L320 0 Z M325 770 L355 770 L455 950 L400 950 L325 770 L325 770 Z " />
<glyph glyph-name="Thorn" unicode="&#xde;" horiz-adv-x="748" d="M557 130 L687 250 L687 460 L557 580 L142 580 L142 700 L102 700 L102 0 L142 0 L142 130 L557 130 L557 130 Z M647 445 L647 265 L542 170 L142 170 L142 540 L542 540 L647 445 L647 445 Z " />
<glyph glyph-name="germandbls" unicode="&#xdf;" horiz-adv-x="617" d="M91 0 L131 0 L131 580 L231 670 L381 670 L481 580 L481 475 L421 420 L241 420 L241 380 L426 380 L511 305 L511 130 L411 40 L241 40 L241 0 L426 0 L551 115 L551 320 L459 404 L521 460 L521 595 L396 710 L216 710 L91 595 L91 0 L91 0 Z " />
<glyph glyph-name="agrave" unicode="&#xe0;" horiz-adv-x="577" d="M456 110 L386 40 L171 40 L91 110 L91 175 L171 245 L456 245 L456 110 L456 110 Z M461 65 L471 0 L496 0 L496 400 L386 500 L111 500 L111 460 L371 460 L456 385 L456 285 L156 285 L51 190 L51 95 L156 0 L396 0 L461 65 L461 65 Z M243 750 L188 750 L288 570 L318 570 L243 750 L243 750 Z " />
<glyph glyph-name="aacute" unicode="&#xe1;" horiz-adv-x="577" d="M456 110 L386 40 L171 40 L91 110 L91 175 L171 245 L456 245 L456 110 L456 110 Z M461 65 L471 0 L496 0 L496 400 L386 500 L111 500 L111 460 L371 460 L456 385 L456 285 L156 285 L51 190 L51 95 L156 0 L396 0 L461 65 L461 65 Z M288 570 L318 570 L418 750 L363 750 L288 570 L288 570 Z " />
<glyph glyph-name="acircumflex" unicode="&#xe2;" horiz-adv-x="577" d="M456 110 L386 40 L171 40 L91 110 L91 175 L171 245 L456 245 L456 110 L456 110 Z M461 65 L471 0 L496 0 L496 400 L386 500 L111 500 L111 460 L371 460 L456 385 L456 285 L156 285 L51 190 L51 95 L156 0 L396 0 L461 65 L461 65 Z M278 730 L158 590 L208 590 L303 705 L398 590 L448 590 L328 730 L278 730 L278 730 Z " />
<glyph glyph-name="atilde" unicode="&#xe3;" horiz-adv-x="577" d="M456 110 L386 40 L171 40 L91 110 L91 175 L171 245 L456 245 L456 110 L456 110 Z M461 65 L471 0 L496 0 L496 400 L386 500 L111 500 L111 460 L371 460 L456 385 L456 285 L156 285 L51 190 L51 95 L156 0 L396 0 L461 65 L461 65 Z M256 665 L356 610 L451 670 L431 705 L356 655 L256 710 L156 645 L176 610 L256 665 L256 665 Z " />
<glyph glyph-name="adieresis" unicode="&#xe4;" horiz-adv-x="577" d="M456 110 L386 40 L171 40 L91 110 L91 175 L171 245 L456 245 L456 110 L456 110 Z M461 65 L471 0 L496 0 L496 400 L386 500 L111 500 L111 460 L371 460 L456 385 L456 285 L156 285 L51 190 L51 95 L156 0 L396 0 L461 65 L461 65 Z M243 625 L243 695 L183 695 L183 625 L243 625 L243 625 Z M423 625 L423 695 L363 695 L363 625 L423 625 L423 625 Z " />
<glyph glyph-name="aring" unicode="&#xe5;" horiz-adv-x="577" d="M456 110 L386 40 L171 40 L91 110 L91 175 L171 245 L456 245 L456 110 L456 110 Z M461 65 L471 0 L496 0 L496 400 L386 500 L111 500 L111 460 L371 460 L456 385 L456 285 L156 285 L51 190 L51 95 L156 0 L396 0 L461 65 L461 65 Z M233 655 L233 700 L278 745 L328 745 L373 700 L373 655 L328 610 L278 610 L233 655 L233 655 Z M193 640 L262 570 L343 570 L413 640 L413 715 L343 785 L263 785 L193 715 L193 640 L193 640 Z " />
<glyph glyph-name="ae" unicode="&#xe6;" horiz-adv-x="942" d="M346 40 L171 40 L91 110 L91 175 L171 245 L446 245 L446 130 L346 40 L346 40 Z M486 385 L586 470 L736 470 L836 380 L836 265 L486 265 L486 385 L486 385 Z M361 0 L466 95 L571 0 L836 0 L836 40 L586 40 L486 130 L486 225 L876 225 L876 395 L751 510 L572 510 L466 415 L376 500 L121 500 L121 460 L361 460 L446 385 L446 285 L156 285 L51 190 L51 95 L156 0 L361 0 L361 0 Z " />
<glyph glyph-name="ccedilla" unicode="&#xe7;" horiz-adv-x="526" d="M116 130 L116 370 L216 460 L486 460 L486 500 L201 500 L76 385 L76 115 L201 0 L486 0 L486 40 L216 40 L116 130 L116 130 Z M281 0 L281 -80 L341 -80 L391 -125 L391 -150 L336 -200 L266 -200 L266 -235 L351 -235 L431 -165 L431 -110 L351 -40 L321 -40 L321 0 L281 0 L281 0 Z " />
<glyph glyph-name="egrave" unicode="&#xe8;" horiz-adv-x="582" d="M197 510 L71 395 L71 115 L196 0 L476 0 L476 40 L211 40 L111 130 L111 225 L516 225 L516 395 L391 510 L197 510 L197 510 Z M111 380 L211 470 L376 470 L476 380 L476 265 L111 265 L111 380 L111 380 Z M233 750 L178 750 L278 570 L308 570 L233 750 L233 750 Z " />
<glyph glyph-name="eacute" unicode="&#xe9;" horiz-adv-x="582" d="M197 510 L71 395 L71 115 L196 0 L476 0 L476 40 L211 40 L111 130 L111 225 L516 225 L516 395 L391 510 L197 510 L197 510 Z M111 380 L211 470 L376 470 L476 380 L476 265 L111 265 L111 380 L111 380 Z M278 570 L308 570 L408 750 L353 750 L278 570 L278 570 Z " />
<glyph glyph-name="ecircumflex" unicode="&#xea;" horiz-adv-x="582" d="M197 510 L71 395 L71 115 L196 0 L476 0 L476 40 L211 40 L111 130 L111 225 L516 225 L516 395 L391 510 L197 510 L197 510 Z M111 380 L211 470 L376 470 L476 380 L476 265 L111 265 L111 380 L111 380 Z M268 730 L148 590 L198 590 L293 705 L388 590 L438 590 L318 730 L268 730 L268 730 Z " />
<glyph glyph-name="edieresis" unicode="&#xeb;" horiz-adv-x="582" d="M197 510 L71 395 L71 115 L196 0 L476 0 L476 40 L211 40 L111 130 L111 225 L516 225 L516 395 L391 510 L197 510 L197 510 Z M111 380 L211 470 L376 470 L476 380 L476 265 L111 265 L111 380 L111 380 Z M233 625 L233 695 L173 695 L173 625 L233 625 L233 625 Z M413 625 L413 695 L353 695 L353 625 L413 625 L413 625 Z " />
<glyph glyph-name="igrave" unicode="&#xec;" horiz-adv-x="221" d="M90 500 L90 0 L130 0 L130 500 L90 500 L90 500 Z M50 750 L-5 750 L95 570 L125 570 L50 750 L50 750 Z " />
<glyph glyph-name="iacute" unicode="&#xed;" horiz-adv-x="221" d="M91 500 L91 0 L131 0 L131 500 L91 500 L91 500 Z M169 750 L224 750 L124 570 L94 570 L169 750 L169 750 Z " />
<glyph glyph-name="icircumflex" unicode="&#xee;" horiz-adv-x="220" d="M90 500 L90 0 L130 0 L130 500 L90 500 L90 500 Z M85 730 L-35 590 L15 590 L110 705 L205 590 L255 590 L135 730 L85 730 L85 730 Z " />
<glyph glyph-name="idieresis" unicode="&#xef;" horiz-adv-x="220" d="M90 500 L90 0 L130 0 L130 500 L90 500 L90 500 Z M50 625 L50 695 L-10 695 L-10 625 L50 625 L50 625 Z M230 625 L230 695 L170 695 L170 625 L230 625 L230 625 Z " />
<glyph glyph-name="eth" unicode="&#xf0;" horiz-adv-x="607" d="M246 700 L196 700 L291 590 L166 590 L166 555 L321 555 L431 430 L186 430 L61 315 L61 105 L186 -10 L401 -10 L526 105 L526 380 L371 555 L496 555 L496 590 L341 590 L246 700 L246 700 Z M201 390 L486 390 L486 120 L386 30 L201 30 L101 120 L101 300 L201 390 L201 390 Z " />
<glyph glyph-name="ntilde" unicode="&#xf1;" horiz-adv-x="617" d="M111 500 L86 500 L86 0 L126 0 L126 390 L196 460 L406 460 L496 380 L496 0 L536 0 L536 395 L421 500 L186 500 L121 435 L111 500 L111 500 Z M264 665 L364 610 L459 670 L439 705 L364 655 L264 710 L164 645 L184 610 L264 665 L264 665 Z " />
<glyph glyph-name="ograve" unicode="&#xf2;" horiz-adv-x="612" d="M71 395 L71 105 L196 -10 L416 -10 L541 105 L541 395 L416 510 L196 510 L71 395 L71 395 Z M501 380 L501 120 L401 30 L211 30 L111 120 L111 380 L211 470 L401 470 L501 380 L501 380 Z M246 750 L191 750 L291 570 L321 570 L246 750 L246 750 Z " />
<glyph glyph-name="oacute" unicode="&#xf3;" horiz-adv-x="612" d="M71 395 L71 105 L196 -10 L416 -10 L541 105 L541 395 L416 510 L196 510 L71 395 L71 395 Z M501 380 L501 120 L401 30 L211 30 L111 120 L111 380 L211 470 L401 470 L501 380 L501 380 Z M291 570 L321 570 L421 750 L366 750 L291 570 L291 570 Z " />
<glyph glyph-name="ocircumflex" unicode="&#xf4;" horiz-adv-x="612" d="M71 395 L71 105 L196 -10 L416 -10 L541 105 L541 395 L416 510 L196 510 L71 395 L71 395 Z M501 380 L501 120 L401 30 L211 30 L111 120 L111 380 L211 470 L401 470 L501 380 L501 380 Z M281 730 L161 590 L211 590 L306 705 L401 590 L451 590 L331 730 L281 730 L281 730 Z " />
<glyph glyph-name="otilde" unicode="&#xf5;" horiz-adv-x="612" d="M71 395 L71 105 L196 -10 L416 -10 L541 105 L541 395 L416 510 L196 510 L71 395 L71 395 Z M501 380 L501 120 L401 30 L211 30 L111 120 L111 380 L211 470 L401 470 L501 380 L501 380 Z M259 665 L359 610 L454 670 L434 705 L359 655 L259 710 L159 645 L179 610 L259 665 L259 665 Z " />
<glyph glyph-name="odieresis" unicode="&#xf6;" horiz-adv-x="612" d="M71 395 L71 105 L196 -10 L416 -10 L541 105 L541 395 L416 510 L196 510 L71 395 L71 395 Z M501 380 L501 120 L401 30 L211 30 L111 120 L111 380 L211 470 L401 470 L501 380 L501 380 Z M246 625 L246 695 L186 695 L186 625 L246 625 L246 625 Z M426 625 L426 695 L366 695 L366 625 L426 625 L426 625 Z " />
<glyph glyph-name="divide" unicode="&#xf7;" horiz-adv-x="522" d="M51 330 L471 330 L471 370 L51 370 L51 330 L51 330 Z M291 140 L291 200 L231 200 L231 140 L291 140 L291 140 Z M291 500 L291 560 L231 560 L231 500 L291 500 L291 500 Z " />
<glyph glyph-name="oslash" unicode="&#xf8;" horiz-adv-x="610" d="M70 395 L70 105 L110 65 L40 -10 L90 -10 L140 40 L195 -10 L415 -10 L540 105 L540 395 L500 435 L570 510 L520 510 L470 460 L415 510 L195 510 L70 395 L70 395 Z M500 380 L500 120 L400 30 L210 30 L165 70 L475 405 L500 380 L500 380 Z M110 380 L210 470 L400 470 L445 430 L135 95 L110 120 L110 380 L110 380 Z " />
<glyph glyph-name="ugrave" unicode="&#xf9;" horiz-adv-x="622" d="M511 0 L536 0 L536 500 L496 500 L496 110 L426 40 L216 40 L126 120 L126 500 L86 500 L86 105 L201 0 L436 0 L501 65 L511 0 L511 0 Z M251 750 L196 750 L296 570 L326 570 L251 750 L251 750 Z " />
<glyph glyph-name="uacute" unicode="&#xfa;" horiz-adv-x="622" d="M511 0 L536 0 L536 500 L496 500 L496 110 L426 40 L216 40 L126 120 L126 500 L86 500 L86 105 L201 0 L436 0 L501 65 L511 0 L511 0 Z M296 570 L326 570 L426 750 L371 750 L296 570 L296 570 Z " />
<glyph glyph-name="ucircumflex" unicode="&#xfb;" horiz-adv-x="622" d="M511 0 L536 0 L536 500 L496 500 L496 110 L426 40 L216 40 L126 120 L126 500 L86 500 L86 105 L201 0 L436 0 L501 65 L511 0 L511 0 Z M286 730 L166 590 L216 590 L311 705 L406 590 L456 590 L336 730 L286 730 L286 730 Z " />
<glyph glyph-name="udieresis" unicode="&#xfc;" horiz-adv-x="622" d="M511 0 L536 0 L536 500 L496 500 L496 110 L426 40 L216 40 L126 120 L126 500 L86 500 L86 105 L201 0 L436 0 L501 65 L511 0 L511 0 Z M251 625 L251 695 L191 695 L191 625 L251 625 L251 625 Z M431 625 L431 695 L371 695 L371 625 L431 625 L431 625 Z " />
<glyph glyph-name="yacute" unicode="&#xfd;" horiz-adv-x="622" d="M496 0 L496 -70 L396 -160 L136 -160 L136 -200 L411 -200 L536 -85 L536 500 L496 500 L496 40 L216 40 L126 120 L126 500 L86 500 L86 105 L201 0 L496 0 L496 0 Z M296 570 L326 570 L426 750 L371 750 L296 570 L296 570 Z " />
<glyph glyph-name="thorn" unicode="&#xfe;" horiz-adv-x="617" d="M131 -200 L131 0 L421 0 L546 115 L546 385 L421 500 L131 500 L131 700 L91 700 L91 -200 L131 -200 L131 -200 Z M406 40 L131 40 L131 460 L406 460 L506 370 L506 130 L406 40 L406 40 Z " />
<glyph glyph-name="ydieresis" unicode="&#xff;" horiz-adv-x="622" d="M496 0 L496 -70 L396 -160 L136 -160 L136 -200 L411 -200 L536 -85 L536 500 L496 500 L496 40 L216 40 L126 120 L126 500 L86 500 L86 105 L201 0 L496 0 L496 0 Z M251 625 L251 695 L191 695 L191 625 L251 625 L251 625 Z M431 625 L431 695 L371 695 L371 625 L431 625 L431 625 Z " />
<glyph glyph-name="Amacron" unicode="&#x100;" horiz-adv-x="740" d="M675 0 L720 0 L385 700 L355 700 L20 0 L65 0 L165 215 L575 215 L675 0 L675 0 Z M370 635 L555 255 L185 255 L370 635 L370 635 Z M225 840 L515 840 L515 880 L225 880 L225 840 L225 840 Z " />
<glyph glyph-name="amacron" unicode="&#x101;" horiz-adv-x="577" d="M456 110 L386 40 L171 40 L91 110 L91 175 L171 245 L456 245 L456 110 L456 110 Z M461 65 L471 0 L496 0 L496 400 L386 500 L111 500 L111 460 L371 460 L456 385 L456 285 L156 285 L51 190 L51 95 L156 0 L396 0 L461 65 L461 65 Z M158 640 L448 640 L448 680 L158 680 L158 640 L158 640 Z " />
<glyph glyph-name="Abreve" unicode="&#x102;" horiz-adv-x="740" d="M675 0 L720 0 L385 700 L355 700 L20 0 L65 0 L165 215 L575 215 L675 0 L675 0 Z M370 635 L555 255 L185 255 L370 635 L370 635 Z M520 920 L480 920 L480 871 L445 840 L295 840 L260 871 L260 920 L220 920 L220 855 L280 800 L460 800 L520 855 L520 920 L520 920 Z " />
<glyph glyph-name="abreve" unicode="&#x103;" horiz-adv-x="577" d="M456 110 L386 40 L171 40 L91 110 L91 175 L171 245 L456 245 L456 110 L456 110 Z M461 65 L471 0 L496 0 L496 400 L386 500 L111 500 L111 460 L371 460 L456 385 L456 285 L156 285 L51 190 L51 95 L156 0 L396 0 L461 65 L461 65 Z M453 720 L413 720 L413 671 L378 640 L228 640 L193 671 L193 720 L153 720 L153 655 L213 600 L393 600 L453 655 L453 720 L453 720 Z " />
<glyph glyph-name="Aogonek" unicode="&#x104;" horiz-adv-x="740" d="M605 -100 L720 0 L385 700 L355 700 L20 0 L65 0 L165 215 L575 215 L670 10 L565 -80 L565 -150 L645 -220 L710 -220 L710 -180 L655 -180 L605 -135 L605 -100 L605 -100 Z M370 635 L555 255 L185 255 L370 635 L370 635 Z " />
<glyph glyph-name="aogonek" unicode="&#x105;" horiz-adv-x="577" d="M461 65 L466 20 L341 -80 L341 -150 L421 -220 L486 -220 L486 -180 L431 -180 L381 -135 L381 -100 L496 0 L496 400 L386 500 L111 500 L111 460 L371 460 L456 385 L456 285 L156 285 L51 190 L51 95 L156 0 L396 0 L461 65 L461 65 Z M456 110 L386 40 L171 40 L91 110 L91 175 L171 245 L456 245 L456 110 L456 110 Z " />
<glyph glyph-name="Cacute" unicode="&#x106;" horiz-adv-x="697" d="M126 555 L241 660 L646 660 L646 700 L226 700 L86 570 L86 130 L226 0 L646 0 L646 40 L241 40 L126 145 L126 555 L126 555 Z M371 770 L401 770 L501 950 L446 950 L371 770 L371 770 Z " />
<glyph glyph-name="cacute" unicode="&#x107;" horiz-adv-x="521" d="M111 130 L111 370 L211 460 L481 460 L481 500 L196 500 L71 385 L71 115 L196 0 L481 0 L481 40 L211 40 L111 130 L111 130 Z M281 570 L311 570 L411 750 L356 750 L281 570 L281 570 Z " />
<glyph glyph-name="Ccircumflex" unicode="&#x108;" horiz-adv-x="697" d="M126 555 L241 660 L646 660 L646 700 L226 700 L86 570 L86 130 L226 0 L646 0 L646 40 L241 40 L126 145 L126 555 L126 555 Z M371 940 L251 800 L301 800 L396 915 L491 800 L541 800 L421 940 L371 940 L371 940 Z " />
<glyph glyph-name="ccircumflex" unicode="&#x109;" horiz-adv-x="526" d="M116 130 L116 370 L216 460 L486 460 L486 500 L201 500 L76 385 L76 115 L201 0 L486 0 L486 40 L216 40 L116 130 L116 130 Z M273 730 L153 590 L203 590 L298 705 L393 590 L443 590 L323 730 L273 730 L273 730 Z " />
<glyph glyph-name="Ccaron" unicode="&#x10c;" horiz-adv-x="697" d="M126 555 L241 660 L646 660 L646 700 L226 700 L86 570 L86 130 L226 0 L646 0 L646 40 L241 40 L126 145 L126 555 L126 555 Z M411 790 L531 930 L481 930 L386 815 L291 930 L241 930 L361 790 L411 790 L411 790 Z " />
<glyph glyph-name="ccaron" unicode="&#x10d;" horiz-adv-x="521" d="M111 130 L111 370 L211 460 L481 460 L481 500 L196 500 L71 385 L71 115 L196 0 L481 0 L481 40 L211 40 L111 130 L111 130 Z M321 590 L441 730 L391 730 L296 615 L201 730 L151 730 L271 590 L321 590 L321 590 Z " />
<glyph glyph-name="Dcaron" unicode="&#x10e;" horiz-adv-x="788" d="M102 0 L562 0 L702 130 L702 570 L562 700 L102 700 L102 0 L102 0 Z M142 40 L142 660 L547 660 L662 555 L662 145 L547 40 L142 40 L142 40 Z M382 790 L502 930 L452 930 L357 815 L262 930 L212 930 L332 790 L382 790 L382 790 Z " />
<glyph glyph-name="dcaron" unicode="&#x10f;" horiz-adv-x="686" d="M416 40 L211 40 L111 130 L111 370 L211 460 L486 460 L486 110 L416 40 L416 40 Z M426 0 L491 65 L501 0 L526 0 L526 700 L486 700 L486 500 L196 500 L71 385 L71 115 L196 0 L426 0 L426 0 Z M606 560 L631 550 L676 640 L676 710 L616 710 L616 640 L641 640 L606 560 L606 560 Z " />
<glyph glyph-name="Dcroat" unicode="&#x110;" horiz-adv-x="806" d="M120 0 L580 0 L720 130 L720 570 L580 700 L120 700 L120 370 L35 370 L35 330 L120 330 L120 0 L120 0 Z M160 40 L160 330 L415 330 L415 370 L160 370 L160 660 L565 660 L680 555 L680 145 L565 40 L160 40 L160 40 Z " />
<glyph glyph-name="dcroat" unicode="&#x111;" horiz-adv-x="621" d="M416 0 L481 65 L491 0 L516 0 L516 560 L601 560 L601 600 L516 600 L516 700 L476 700 L476 600 L296 600 L296 560 L476 560 L476 450 L186 450 L61 335 L61 115 L186 0 L416 0 L416 0 Z M406 40 L201 40 L101 130 L101 320 L201 410 L476 410 L476 110 L406 40 L406 40 Z " />
<glyph glyph-name="Emacron" unicode="&#x112;" horiz-adv-x="707" d="M102 700 L102 0 L667 0 L667 40 L142 40 L142 330 L552 330 L552 370 L142 370 L142 660 L657 660 L657 700 L102 700 L102 700 Z M239 840 L529 840 L529 880 L239 880 L239 840 L239 840 Z " />
<glyph glyph-name="emacron" unicode="&#x113;" horiz-adv-x="582" d="M197 510 L71 395 L71 115 L196 0 L476 0 L476 40 L211 40 L111 130 L111 225 L516 225 L516 395 L391 510 L197 510 L197 510 Z M111 380 L211 470 L376 470 L476 380 L476 265 L111 265 L111 380 L111 380 Z M148 640 L438 640 L438 680 L148 680 L148 640 L148 640 Z " />
<glyph glyph-name="Edotaccent" unicode="&#x116;" horiz-adv-x="707" d="M102 700 L102 0 L667 0 L667 40 L142 40 L142 330 L552 330 L552 370 L142 370 L142 660 L657 660 L657 700 L102 700 L102 700 Z M414 825 L414 895 L354 895 L354 825 L414 825 L414 825 Z " />
<glyph glyph-name="edotaccent" unicode="&#x117;" horiz-adv-x="582" d="M197 510 L71 395 L71 115 L196 0 L476 0 L476 40 L211 40 L111 130 L111 225 L516 225 L516 395 L391 510 L197 510 L197 510 Z M111 380 L211 470 L376 470 L476 380 L476 265 L111 265 L111 380 L111 380 Z M323 625 L323 695 L263 695 L263 625 L323 625 L323 625 Z " />
<glyph glyph-name="Eogonek" unicode="&#x118;" horiz-adv-x="707" d="M552 -100 L667 0 L667 40 L142 40 L142 330 L552 330 L552 370 L142 370 L142 660 L657 660 L657 700 L102 700 L102 0 L612 0 L512 -80 L512 -150 L592 -220 L657 -220 L657 -180 L602 -180 L552 -135 L552 -100 L552 -100 Z " />
<glyph glyph-name="eogonek" unicode="&#x119;" horiz-adv-x="582" d="M421 0 L321 -80 L321 -150 L401 -220 L466 -220 L466 -180 L411 -180 L361 -135 L361 -100 L476 0 L476 40 L211 40 L111 130 L111 225 L516 225 L516 395 L391 510 L197 510 L71 395 L71 115 L196 0 L421 0 L421 0 Z M111 380 L211 470 L376 470 L476 380 L476 265 L111 265 L111 380 L111 380 Z " />
<glyph glyph-name="Ecaron" unicode="&#x11a;" horiz-adv-x="707" d="M102 700 L102 0 L667 0 L667 40 L142 40 L142 330 L552 330 L552 370 L142 370 L142 660 L657 660 L657 700 L102 700 L102 700 Z M409 790 L529 930 L479 930 L384 815 L289 930 L239 930 L359 790 L409 790 L409 790 Z " />
<glyph glyph-name="ecaron" unicode="&#x11b;" horiz-adv-x="582" d="M197 510 L71 395 L71 115 L196 0 L476 0 L476 40 L211 40 L111 130 L111 225 L516 225 L516 395 L391 510 L197 510 L197 510 Z M111 380 L211 470 L376 470 L476 380 L476 265 L111 265 L111 380 L111 380 Z M318 590 L438 730 L388 730 L293 615 L198 730 L148 730 L268 590 L318 590 L318 590 Z " />
<glyph glyph-name="Gbreve" unicode="&#x11e;" horiz-adv-x="787" d="M671 145 L556 40 L241 40 L126 145 L126 555 L241 660 L641 660 L641 700 L226 700 L86 570 L86 130 L226 0 L571 0 L711 130 L711 380 L421 380 L421 340 L671 340 L671 145 L671 145 Z M548 920 L508 920 L508 871 L473 840 L323 840 L288 871 L288 920 L248 920 L248 855 L308 800 L488 800 L548 855 L548 920 L548 920 Z " />
<glyph glyph-name="gbreve" unicode="&#x11f;" horiz-adv-x="617" d="M211 460 L491 460 L491 40 L211 40 L111 130 L111 370 L211 460 L211 460 Z M491 -70 L391 -160 L126 -160 L126 -200 L406 -200 L531 -85 L531 500 L196 500 L71 385 L71 115 L196 0 L491 0 L491 -70 L491 -70 Z M481 720 L441 720 L441 671 L406 640 L256 640 L221 671 L221 720 L181 720 L181 655 L241 600 L421 600 L481 655 L481 720 L481 720 Z " />
<glyph glyph-name="Gcommaaccent" unicode="&#x122;" horiz-adv-x="787" d="M671 145 L556 40 L241 40 L126 145 L126 555 L241 660 L641 660 L641 700 L226 700 L86 570 L86 130 L226 0 L571 0 L711 130 L711 380 L421 380 L421 340 L671 340 L671 145 L671 145 Z M358 -250 L383 -260 L428 -170 L428 -100 L368 -100 L368 -170 L393 -170 L358 -250 L358 -250 Z " />
<glyph glyph-name="gcommaaccent" unicode="&#x123;" horiz-adv-x="617" d="M211 460 L491 460 L491 40 L211 40 L111 130 L111 370 L211 460 L211 460 Z M491 -70 L391 -160 L126 -160 L126 -200 L406 -200 L531 -85 L531 500 L196 500 L71 385 L71 115 L196 0 L491 0 L491 -70 L491 -70 Z M359 720 L334 730 L289 640 L289 570 L349 570 L349 640 L324 640 L359 720 L359 720 Z " />
<glyph glyph-name="Imacron" unicode="&#x12a;" horiz-adv-x="442" d="M381 0 L381 40 L241 40 L241 660 L381 660 L381 700 L61 700 L61 660 L201 660 L201 40 L61 40 L61 0 L381 0 L381 0 Z M76 840 L366 840 L366 880 L76 880 L76 840 L76 840 Z " />
<glyph glyph-name="imacron" unicode="&#x12b;" horiz-adv-x="220" d="M90 500 L90 0 L130 0 L130 500 L90 500 L90 500 Z M-35 640 L255 640 L255 680 L-35 680 L-35 640 L-35 640 Z " />
<glyph glyph-name="Iogonek" unicode="&#x12e;" horiz-adv-x="442" d="M336 0 L226 -80 L226 -150 L306 -220 L371 -220 L371 -180 L316 -180 L266 -135 L266 -90 L381 0 L381 40 L241 40 L241 660 L381 660 L381 700 L61 700 L61 660 L201 660 L201 40 L61 40 L61 0 L336 0 L336 0 Z " />
<glyph glyph-name="iogonek" unicode="&#x12f;" horiz-adv-x="221" d="M90 500 L90 15 L-25 -80 L-25 -150 L55 -220 L120 -220 L120 -180 L65 -180 L15 -135 L15 -100 L130 0 L130 500 L90 500 L90 500 Z M130 610 L130 700 L90 700 L90 610 L130 610 L130 610 Z " />
<glyph glyph-name="Idotaccent" unicode="&#x130;" horiz-adv-x="442" d="M381 0 L381 40 L241 40 L241 660 L381 660 L381 700 L61 700 L61 660 L201 660 L201 40 L61 40 L61 0 L381 0 L381 0 Z M251 825 L251 895 L191 895 L191 825 L251 825 L251 825 Z " />
<glyph glyph-name="dotlessi" unicode="&#x131;" horiz-adv-x="212" d="M86 500 L86 0 L126 0 L126 500 L86 500 L86 500 Z " />
<glyph glyph-name="Kcommaaccent" unicode="&#x136;" horiz-adv-x="707" d="M142 335 L382 335 L637 0 L687 0 L412 360 L667 700 L617 700 L377 375 L142 375 L142 700 L102 700 L102 0 L142 0 L142 335 L142 335 Z M349 -250 L374 -260 L419 -170 L419 -100 L359 -100 L359 -170 L384 -170 L349 -250 L349 -250 Z " />
<glyph glyph-name="kcommaaccent" unicode="&#x137;" horiz-adv-x="546" d="M526 0 L341 260 L511 500 L461 500 L306 280 L131 280 L131 700 L91 700 L91 0 L131 0 L131 240 L306 240 L476 0 L526 0 L526 0 Z M260 -250 L285 -260 L330 -170 L330 -100 L270 -100 L270 -170 L295 -170 L260 -250 L260 -250 Z " />
<glyph glyph-name="Lacute" unicode="&#x139;" horiz-adv-x="627" d="M102 700 L102 0 L617 0 L617 40 L142 40 L142 700 L102 700 L102 700 Z M107 770 L137 770 L237 950 L182 950 L107 770 L107 770 Z " />
<glyph glyph-name="lacute" unicode="&#x13a;" horiz-adv-x="260" d="M165 0 L165 700 L40 700 L40 660 L125 660 L125 0 L165 0 L165 0 Z M130 770 L160 770 L260 950 L205 950 L130 770 L130 770 Z " />
<glyph glyph-name="Lcommaaccent" unicode="&#x13b;" horiz-adv-x="627" d="M102 700 L102 0 L617 0 L617 40 L142 40 L142 700 L102 700 L102 700 Z M319 -250 L344 -260 L389 -170 L389 -100 L329 -100 L329 -170 L354 -170 L319 -250 L319 -250 Z " />
<glyph glyph-name="lcommaaccent" unicode="&#x13c;" horiz-adv-x="261" d="M165 0 L165 700 L40 700 L40 660 L125 660 L125 0 L165 0 L165 0 Z M105 -250 L130 -260 L175 -170 L175 -100 L115 -100 L115 -170 L140 -170 L105 -250 L105 -250 Z " />
<glyph glyph-name="Lcaron" unicode="&#x13d;" horiz-adv-x="627" d="M102 700 L102 0 L617 0 L617 40 L142 40 L142 700 L102 700 L102 700 Z M317 560 L342 550 L387 640 L387 710 L327 710 L327 640 L352 640 L317 560 L317 560 Z " />
<glyph glyph-name="lcaron" unicode="&#x13e;" horiz-adv-x="325" d="M165 0 L165 700 L40 700 L40 660 L125 660 L125 0 L165 0 L165 0 Z M245 560 L270 550 L315 640 L315 710 L255 710 L255 640 L280 640 L245 560 L245 560 Z " />
<glyph glyph-name="Lslash" unicode="&#x141;" horiz-adv-x="650" d="M125 700 L125 325 L40 280 L40 235 L125 280 L125 0 L640 0 L640 40 L165 40 L165 305 L390 430 L390 475 L165 350 L165 700 L125 700 L125 700 Z " />
<glyph glyph-name="lslash" unicode="&#x142;" horiz-adv-x="285" d="M165 0 L165 335 L245 400 L245 450 L165 385 L165 700 L40 700 L40 660 L125 660 L125 350 L45 285 L45 235 L125 300 L125 0 L165 0 L165 0 Z " />
<glyph glyph-name="Nacute" unicode="&#x143;" horiz-adv-x="784" d="M642 70 L137 700 L102 700 L102 0 L142 0 L142 630 L647 0 L682 0 L682 700 L642 700 L642 70 L642 70 Z M377 770 L407 770 L507 950 L452 950 L377 770 L377 770 Z " />
<glyph glyph-name="nacute" unicode="&#x144;" horiz-adv-x="617" d="M111 500 L86 500 L86 0 L126 0 L126 390 L196 460 L406 460 L496 380 L496 0 L536 0 L536 395 L421 500 L186 500 L121 435 L111 500 L111 500 Z M296 570 L326 570 L426 750 L371 750 L296 570 L296 570 Z " />
<glyph glyph-name="Ncommaaccent" unicode="&#x145;" horiz-adv-x="784" d="M642 70 L137 700 L102 700 L102 0 L142 0 L142 630 L647 0 L682 0 L682 700 L642 700 L642 70 L642 70 Z M352 -250 L377 -260 L422 -170 L422 -100 L362 -100 L362 -170 L387 -170 L352 -250 L352 -250 Z " />
<glyph glyph-name="ncommaaccent" unicode="&#x146;" horiz-adv-x="617" d="M111 500 L86 500 L86 0 L126 0 L126 390 L196 460 L406 460 L496 380 L496 0 L536 0 L536 395 L421 500 L186 500 L121 435 L111 500 L111 500 Z M271 -250 L296 -260 L341 -170 L341 -100 L281 -100 L281 -170 L306 -170 L271 -250 L271 -250 Z " />
<glyph glyph-name="Ncaron" unicode="&#x147;" horiz-adv-x="784" d="M642 70 L137 700 L102 700 L102 0 L142 0 L142 630 L647 0 L682 0 L682 700 L642 700 L642 70 L642 70 Z M417 790 L537 930 L487 930 L392 815 L297 930 L247 930 L367 790 L417 790 L417 790 Z " />
<glyph glyph-name="ncaron" unicode="&#x148;" horiz-adv-x="617" d="M111 500 L86 500 L86 0 L126 0 L126 390 L196 460 L406 460 L496 380 L496 0 L536 0 L536 395 L421 500 L186 500 L121 435 L111 500 L111 500 Z M336 590 L456 730 L406 730 L311 615 L216 730 L166 730 L286 590 L336 590 L336 590 Z " />
<glyph glyph-name="Omacron" unicode="&#x14c;" horiz-adv-x="792" d="M241 670 L551 670 L666 565 L666 135 L551 30 L241 30 L126 135 L126 565 L241 670 L241 670 Z M226 710 L86 580 L86 120 L226 -10 L566 -10 L706 120 L706 580 L566 710 L226 710 L226 710 Z M251 840 L541 840 L541 880 L251 880 L251 840 L251 840 Z " />
<glyph glyph-name="omacron" unicode="&#x14d;" horiz-adv-x="612" d="M71 395 L71 105 L196 -10 L416 -10 L541 105 L541 395 L416 510 L196 510 L71 395 L71 395 Z M501 380 L501 120 L401 30 L211 30 L111 120 L111 380 L211 470 L401 470 L501 380 L501 380 Z M161 640 L451 640 L451 680 L161 680 L161 640 L161 640 Z " />
<glyph glyph-name="Ohungarumlaut" unicode="&#x150;" horiz-adv-x="792" d="M241 670 L551 670 L666 565 L666 135 L551 30 L241 30 L126 135 L126 565 L241 670 L241 670 Z M226 710 L86 580 L86 120 L226 -10 L566 -10 L706 120 L706 580 L566 710 L226 710 L226 710 Z M306 780 L336 780 L431 950 L381 950 L306 780 L306 780 Z M456 780 L486 780 L581 950 L531 950 L456 780 L456 780 Z " />
<glyph glyph-name="ohungarumlaut" unicode="&#x151;" horiz-adv-x="612" d="M71 395 L71 105 L196 -10 L416 -10 L541 105 L541 395 L416 510 L196 510 L71 395 L71 395 Z M501 380 L501 120 L401 30 L211 30 L111 120 L111 380 L211 470 L401 470 L501 380 L501 380 Z M216 580 L246 580 L341 750 L291 750 L216 580 L216 580 Z M366 580 L396 580 L491 750 L441 750 L366 580 L366 580 Z " />
<glyph glyph-name="OE" unicode="&#x152;" horiz-adv-x="1116" d="M226 700 L86 570 L86 130 L226 0 L1076 0 L1076 40 L596 40 L596 330 L956 330 L956 370 L596 370 L596 660 L1066 660 L1066 700 L226 700 L226 700 Z M241 660 L556 660 L556 40 L241 40 L126 145 L126 555 L241 660 L241 660 Z " />
<glyph glyph-name="oe" unicode="&#x153;" horiz-adv-x="977" d="M612 510 L506 413 L401 510 L196 510 L71 395 L71 105 L196 -10 L401 -10 L511 90 L611 0 L871 0 L871 40 L626 40 L526 130 L526 225 L911 225 L911 395 L786 510 L612 510 L612 510 Z M486 380 L486 120 L386 30 L211 30 L111 120 L111 380 L211 470 L386 470 L486 380 L486 380 Z M526 380 L626 470 L771 470 L871 380 L871 265 L526 265 L526 380 L526 380 Z " />
<glyph glyph-name="Racute" unicode="&#x154;" horiz-adv-x="773" d="M547 270 L677 390 L677 580 L547 700 L102 700 L102 0 L142 0 L142 270 L502 270 L677 0 L722 0 L547 270 L547 270 Z M637 565 L637 405 L532 310 L142 310 L142 660 L532 660 L637 565 L637 565 Z M337 770 L367 770 L467 950 L412 950 L337 770 L337 770 Z " />
<glyph glyph-name="racute" unicode="&#x155;" horiz-adv-x="451" d="M111 500 L86 500 L86 0 L126 0 L126 390 L196 460 L441 460 L441 500 L186 500 L121 435 L111 500 L111 500 Z M156 570 L186 570 L286 750 L231 750 L156 570 L156 570 Z " />
<glyph glyph-name="Rcommaaccent" unicode="&#x156;" horiz-adv-x="773" d="M547 270 L677 390 L677 580 L547 700 L102 700 L102 0 L142 0 L142 270 L502 270 L677 0 L722 0 L547 270 L547 270 Z M637 565 L637 405 L532 310 L142 310 L142 660 L532 660 L637 565 L637 565 Z M369 -250 L394 -260 L439 -170 L439 -100 L379 -100 L379 -170 L404 -170 L369 -250 L369 -250 Z " />
<glyph glyph-name="rcommaaccent" unicode="&#x157;" horiz-adv-x="471" d="M131 500 L106 500 L106 0 L146 0 L146 390 L216 460 L461 460 L461 500 L206 500 L141 435 L131 500 L131 500 Z M86 -250 L111 -260 L156 -170 L156 -100 L96 -100 L96 -170 L121 -170 L86 -250 L86 -250 Z " />
<glyph glyph-name="Rcaron" unicode="&#x158;" horiz-adv-x="773" d="M547 270 L677 390 L677 580 L547 700 L102 700 L102 0 L142 0 L142 270 L502 270 L677 0 L722 0 L547 270 L547 270 Z M637 565 L637 405 L532 310 L142 310 L142 660 L532 660 L637 565 L637 565 Z M377 790 L497 930 L447 930 L352 815 L257 930 L207 930 L327 790 L377 790 L377 790 Z " />
<glyph glyph-name="rcaron" unicode="&#x159;" horiz-adv-x="451" d="M111 500 L86 500 L86 0 L126 0 L126 390 L196 460 L441 460 L441 500 L186 500 L121 435 L111 500 L111 500 Z M278 590 L398 730 L348 730 L253 615 L158 730 L108 730 L228 590 L278 590 L278 590 Z " />
<glyph glyph-name="Sacute" unicode="&#x15a;" horiz-adv-x="717" d="M201 335 L511 335 L616 240 L616 135 L511 40 L81 40 L81 0 L526 0 L656 120 L656 255 L526 375 L216 375 L111 470 L111 565 L216 660 L621 660 L621 700 L201 700 L71 580 L71 455 L201 335 L201 335 Z M348 770 L378 770 L478 950 L423 950 L348 770 L348 770 Z " />
<glyph glyph-name="sacute" unicode="&#x15b;" horiz-adv-x="536" d="M171 275 L96 345 L96 390 L176 460 L461 460 L461 500 L161 500 L56 405 L56 325 L156 235 L371 235 L451 165 L451 110 L371 40 L61 40 L61 0 L386 0 L491 95 L491 180 L386 275 L171 275 L171 275 Z M258 570 L288 570 L388 750 L333 750 L258 570 L258 570 Z " />
<glyph glyph-name="Scedilla" unicode="&#x15e;" horiz-adv-x="717" d="M201 335 L511 335 L616 240 L616 135 L511 40 L81 40 L81 0 L526 0 L656 120 L656 255 L526 375 L216 375 L111 470 L111 565 L216 660 L621 660 L621 700 L201 700 L71 580 L71 455 L201 335 L201 335 Z M323 0 L323 -80 L383 -80 L433 -125 L433 -150 L378 -200 L308 -200 L308 -235 L393 -235 L473 -165 L473 -110 L393 -40 L363 -40 L363 0 L323 0 L323 0 Z " />
<glyph glyph-name="scedilla" unicode="&#x15f;" horiz-adv-x="536" d="M171 275 L96 345 L96 390 L176 460 L461 460 L461 500 L161 500 L56 405 L56 325 L156 235 L371 235 L451 165 L451 110 L371 40 L61 40 L61 0 L386 0 L491 95 L491 180 L386 275 L171 275 L171 275 Z M233 0 L233 -80 L293 -80 L343 -125 L343 -150 L288 -200 L218 -200 L218 -235 L303 -235 L383 -165 L383 -110 L303 -40 L273 -40 L273 0 L233 0 L233 0 Z " />
<glyph glyph-name="Scaron" unicode="&#x160;" horiz-adv-x="717" d="M201 335 L511 335 L616 240 L616 135 L511 40 L81 40 L81 0 L526 0 L656 120 L656 255 L526 375 L216 375 L111 470 L111 565 L216 660 L621 660 L621 700 L201 700 L71 580 L71 455 L201 335 L201 335 Z M388 790 L508 930 L458 930 L363 815 L268 930 L218 930 L338 790 L388 790 L388 790 Z " />
<glyph glyph-name="scaron" unicode="&#x161;" horiz-adv-x="536" d="M171 275 L96 345 L96 390 L176 460 L461 460 L461 500 L161 500 L56 405 L56 325 L156 235 L371 235 L451 165 L451 110 L371 40 L61 40 L61 0 L386 0 L491 95 L491 180 L386 275 L171 275 L171 275 Z M298 590 L418 730 L368 730 L273 615 L178 730 L128 730 L248 590 L298 590 L298 590 Z " />
<glyph glyph-name="Tcommaaccent" unicode="&#x162;" horiz-adv-x="630" d="M335 0 L335 660 L615 660 L615 700 L15 700 L15 660 L295 660 L295 0 L335 0 L335 0 Z M275 -250 L300 -260 L345 -170 L345 -100 L285 -100 L285 -170 L310 -170 L275 -250 L275 -250 Z " />
<glyph glyph-name="tcommaaccent" unicode="&#x163;" horiz-adv-x="430" d="M30 460 L145 460 L145 115 L270 0 L400 0 L400 40 L285 40 L185 130 L185 460 L356 460 L356 500 L185 500 L185 630 L145 630 L145 500 L30 500 L30 460 L30 460 Z M227 -250 L252 -260 L297 -170 L297 -100 L237 -100 L237 -170 L262 -170 L227 -250 L227 -250 Z " />
<glyph glyph-name="Tcaron" unicode="&#x164;" horiz-adv-x="630" d="M335 0 L335 660 L615 660 L615 700 L15 700 L15 660 L295 660 L295 0 L335 0 L335 0 Z M340 790 L460 930 L410 930 L315 815 L220 930 L170 930 L290 790 L340 790 L340 790 Z " />
<glyph glyph-name="tcaron" unicode="&#x165;" horiz-adv-x="490" d="M30 460 L145 460 L145 115 L270 0 L400 0 L400 40 L285 40 L185 130 L185 460 L356 460 L356 500 L185 500 L185 630 L145 630 L145 500 L30 500 L30 460 L30 460 Z M410 560 L435 550 L480 640 L480 710 L420 710 L420 640 L445 640 L410 560 L410 560 Z " />
<glyph glyph-name="Umacron" unicode="&#x16a;" horiz-adv-x="804" d="M662 135 L547 30 L257 30 L142 135 L142 700 L102 700 L102 120 L242 -10 L562 -10 L702 120 L702 700 L662 700 L662 135 L662 135 Z M257 840 L547 840 L547 880 L257 880 L257 840 L257 840 Z " />
<glyph glyph-name="umacron" unicode="&#x16b;" horiz-adv-x="622" d="M511 0 L536 0 L536 500 L496 500 L496 110 L426 40 L216 40 L126 120 L126 500 L86 500 L86 105 L201 0 L436 0 L501 65 L511 0 L511 0 Z M166 640 L456 640 L456 680 L166 680 L166 640 L166 640 Z " />
<glyph glyph-name="Uring" unicode="&#x16e;" horiz-adv-x="804" d="M662 135 L547 30 L257 30 L142 135 L142 700 L102 700 L102 120 L242 -10 L562 -10 L702 120 L702 700 L662 700 L662 135 L662 135 Z M332 840 L332 885 L377 930 L427 930 L472 885 L472 840 L427 795 L377 795 L332 840 L332 840 Z M292 825 L361 755 L442 755 L512 825 L512 900 L442 970 L362 970 L292 900 L292 825 L292 825 Z " />
<glyph glyph-name="uring" unicode="&#x16f;" horiz-adv-x="622" d="M511 0 L536 0 L536 500 L496 500 L496 110 L426 40 L216 40 L126 120 L126 500 L86 500 L86 105 L201 0 L436 0 L501 65 L511 0 L511 0 Z M241 655 L241 700 L286 745 L336 745 L381 700 L381 655 L336 610 L286 610 L241 655 L241 655 Z M201 640 L270 570 L351 570 L421 640 L421 715 L351 785 L271 785 L201 715 L201 640 L201 640 Z " />
<glyph glyph-name="Uhungarumlaut" unicode="&#x170;" horiz-adv-x="804" d="M662 135 L547 30 L257 30 L142 135 L142 700 L102 700 L102 120 L242 -10 L562 -10 L702 120 L702 700 L662 700 L662 135 L662 135 Z M312 780 L342 780 L437 950 L387 950 L312 780 L312 780 Z M462 780 L492 780 L587 950 L537 950 L462 780 L462 780 Z " />
<glyph glyph-name="uhungarumlaut" unicode="&#x171;" horiz-adv-x="622" d="M511 0 L536 0 L536 500 L496 500 L496 110 L426 40 L216 40 L126 120 L126 500 L86 500 L86 105 L201 0 L436 0 L501 65 L511 0 L511 0 Z M221 580 L251 580 L346 750 L296 750 L221 580 L221 580 Z M371 580 L401 580 L496 750 L446 750 L371 580 L371 580 Z " />
<glyph glyph-name="Uogonek" unicode="&#x172;" horiz-adv-x="804" d="M662 135 L552 30 L252 30 L142 135 L142 700 L102 700 L102 120 L242 -10 L442 -10 L356 -80 L356 -150 L436 -220 L501 -220 L501 -180 L446 -180 L396 -135 L396 -100 L497 -10 L562 -10 L702 120 L702 700 L662 700 L662 135 L662 135 Z " />
<glyph glyph-name="uogonek" unicode="&#x173;" horiz-adv-x="622" d="M536 500 L496 500 L496 110 L426 40 L216 40 L126 120 L126 500 L86 500 L86 105 L201 0 L436 0 L501 65 L506 20 L381 -80 L381 -150 L461 -220 L526 -220 L526 -180 L471 -180 L421 -135 L421 -100 L536 0 L536 500 L536 500 Z " />
<glyph glyph-name="Ydieresis" unicode="&#x178;" horiz-adv-x="680" d="M320 0 L360 0 L360 265 L680 700 L630 700 L340 305 L50 700 L0 700 L320 265 L320 0 L320 0 Z M280 825 L280 895 L220 895 L220 825 L280 825 L280 825 Z M460 825 L460 895 L400 895 L400 825 L460 825 L460 825 Z " />
<glyph glyph-name="Zacute" unicode="&#x179;" horiz-adv-x="650" d="M610 0 L610 40 L95 40 L600 670 L600 700 L55 700 L55 660 L545 660 L40 30 L40 0 L610 0 L610 0 Z M310 770 L340 770 L440 950 L385 950 L310 770 L310 770 Z " />
<glyph glyph-name="zacute" unicode="&#x17a;" horiz-adv-x="490" d="M445 470 L445 500 L45 500 L45 460 L390 460 L35 30 L35 0 L455 0 L455 40 L90 40 L445 470 L445 470 Z M230 570 L260 570 L360 750 L305 750 L230 570 L230 570 Z " />
<glyph glyph-name="Zdotaccent" unicode="&#x17b;" horiz-adv-x="650" d="M610 0 L610 40 L95 40 L600 670 L600 700 L55 700 L55 660 L545 660 L40 30 L40 0 L610 0 L610 0 Z M355 825 L355 895 L295 895 L295 825 L355 825 L355 825 Z " />
<glyph glyph-name="zdotaccent" unicode="&#x17c;" horiz-adv-x="490" d="M445 470 L445 500 L45 500 L45 460 L390 460 L35 30 L35 0 L455 0 L455 40 L90 40 L445 470 L445 470 Z M275 625 L275 695 L215 695 L215 625 L275 625 L275 625 Z " />
<glyph glyph-name="Zcaron" unicode="&#x17d;" horiz-adv-x="650" d="M610 0 L610 40 L95 40 L600 670 L600 700 L55 700 L55 660 L545 660 L40 30 L40 0 L610 0 L610 0 Z M350 790 L470 930 L420 930 L325 815 L230 930 L180 930 L300 790 L350 790 L350 790 Z " />
<glyph glyph-name="zcaron" unicode="&#x17e;" horiz-adv-x="490" d="M445 470 L445 500 L45 500 L45 460 L390 460 L35 30 L35 0 L455 0 L455 40 L90 40 L445 470 L445 470 Z M270 590 L390 730 L340 730 L245 615 L150 730 L100 730 L220 590 L270 590 L270 590 Z " />
<glyph glyph-name="florin" unicode="&#x192;" horiz-adv-x="410" d="M55 -160 L-30 -160 L-30 -200 L70 -200 L195 -85 L195 435 L365 435 L365 475 L195 475 L195 570 L295 660 L430 660 L430 700 L280 700 L155 585 L155 475 L40 475 L40 435 L155 435 L155 -70 L55 -160 L55 -160 Z " />
<glyph glyph-name="Scommaaccent" unicode="&#x218;" horiz-adv-x="717" d="M201 335 L511 335 L616 240 L616 135 L511 40 L81 40 L81 0 L526 0 L656 120 L656 255 L526 375 L216 375 L111 470 L111 565 L216 660 L621 660 L621 700 L201 700 L71 580 L71 455 L201 335 L201 335 Z M323 -250 L348 -260 L393 -170 L393 -100 L333 -100 L333 -170 L358 -170 L323 -250 L323 -250 Z " />
<glyph glyph-name="scommaaccent" unicode="&#x219;" horiz-adv-x="536" d="M171 275 L96 345 L96 390 L176 460 L461 460 L461 500 L161 500 L56 405 L56 325 L156 235 L371 235 L451 165 L451 110 L371 40 L61 40 L61 0 L386 0 L491 95 L491 180 L386 275 L171 275 L171 275 Z M233 -250 L258 -260 L303 -170 L303 -100 L243 -100 L243 -170 L268 -170 L233 -250 L233 -250 Z " />
<glyph glyph-name="afii57929" unicode="&#x2bc;" horiz-adv-x="212" d="M71 600 L96 590 L141 680 L141 750 L81 750 L81 680 L106 680 L71 600 L71 600 Z " />
<glyph glyph-name="circumflex" unicode="&#x2c6;" horiz-adv-x="412" d="M181 730 L61 590 L111 590 L206 705 L301 590 L351 590 L231 730 L181 730 L181 730 Z " />
<glyph glyph-name="caron" unicode="&#x2c7;" horiz-adv-x="412" d="M231 590 L351 730 L301 730 L206 615 L111 730 L61 730 L181 590 L231 590 L231 590 Z " />
<glyph glyph-name="breve" unicode="&#x2d8;" horiz-adv-x="380" d="M340 720 L300 720 L300 671 L265 640 L115 640 L80 671 L80 720 L40 720 L40 655 L100 600 L280 600 L340 655 L340 720 L340 720 Z " />
<glyph glyph-name="dotaccent" unicode="&#x2d9;" horiz-adv-x="182" d="M121 625 L121 695 L61 695 L61 625 L121 625 L121 625 Z " />
<glyph glyph-name="ring" unicode="&#x2da;" horiz-adv-x="342" d="M101 655 L101 700 L146 745 L196 745 L241 700 L241 655 L196 610 L146 610 L101 655 L101 655 Z M61 640 L130 570 L211 570 L281 640 L281 715 L211 785 L131 785 L61 715 L61 640 L61 640 Z " />
<glyph glyph-name="ogonek" unicode="&#x2db;" horiz-adv-x="262" d="M151 0 L51 -80 L51 -150 L131 -220 L196 -220 L196 -180 L141 -180 L91 -135 L91 -100 L206 0 L151 0 L151 0 Z " />
<glyph glyph-name="tilde" unicode="&#x2dc;" horiz-adv-x="457" d="M181 665 L281 610 L376 670 L356 705 L281 655 L181 710 L81 645 L101 610 L181 665 L181 665 Z " />
<glyph glyph-name="hungarumlaut" unicode="&#x2dd;" horiz-adv-x="412" d="M61 580 L91 580 L186 750 L136 750 L61 580 L61 580 Z M211 580 L241 580 L336 750 L286 750 L211 580 L211 580 Z " />
<glyph glyph-name="afii10023" unicode="&#x401;" horiz-adv-x="718" d="M102 700 L102 0 L667 0 L667 40 L142 40 L142 330 L552 330 L552 370 L142 370 L142 660 L657 660 L657 700 L102 700 L102 700 Z M324 825 L324 895 L264 895 L264 825 L324 825 L324 825 Z M504 825 L504 895 L444 895 L444 825 L504 825 L504 825 Z " />
<glyph glyph-name="afii10051" unicode="&#x402;" horiz-adv-x="806" d="M735 75 L735 305 L620 410 L250 410 L250 660 L470 660 L470 700 L10 700 L10 660 L210 660 L210 0 L250 0 L250 370 L605 370 L695 290 L695 90 L615 20 L545 20 L545 -20 L630 -20 L735 75 L735 75 Z " />
<glyph glyph-name="afii10052" unicode="&#x403;" horiz-adv-x="627" d="M344 770 L374 770 L474 950 L419 950 L344 770 L344 770 Z M142 0 L142 660 L617 660 L617 700 L102 700 L102 0 L142 0 L142 0 Z " />
<glyph glyph-name="afii10053" unicode="&#x404;" horiz-adv-x="697" d="M546 370 L126 370 L126 555 L241 660 L646 660 L646 700 L226 700 L86 570 L86 130 L226 0 L646 0 L646 40 L241 40 L126 145 L126 330 L546 330 L546 370 L546 370 Z " />
<glyph glyph-name="afii10054" unicode="&#x405;" horiz-adv-x="717" d="M201 335 L511 335 L616 240 L616 135 L511 40 L81 40 L81 0 L526 0 L656 120 L656 255 L526 375 L216 375 L111 470 L111 565 L216 660 L621 660 L621 700 L201 700 L71 580 L71 455 L201 335 L201 335 Z " />
<glyph glyph-name="afii10055" unicode="&#x406;" horiz-adv-x="442" d="M381 0 L381 40 L241 40 L241 660 L381 660 L381 700 L61 700 L61 660 L201 660 L201 40 L61 40 L61 0 L381 0 L381 0 Z " />
<glyph glyph-name="afii10056" unicode="&#x407;" horiz-adv-x="442" d="M381 0 L381 40 L241 40 L241 660 L381 660 L381 700 L61 700 L61 660 L201 660 L201 40 L61 40 L61 0 L381 0 L381 0 Z M161 825 L161 895 L101 895 L101 825 L161 825 L161 825 Z M341 825 L341 895 L281 895 L281 825 L341 825 L341 825 Z " />
<glyph glyph-name="afii10057" unicode="&#x408;" horiz-adv-x="572" d="M430 145 L315 40 L10 40 L10 0 L330 0 L470 130 L470 700 L430 700 L430 145 L430 145 Z " />
<glyph glyph-name="afii10058" unicode="&#x409;" horiz-adv-x="1146" d="M170 130 L60 30 L10 30 L10 -10 L75 -10 L210 115 L255 660 L570 660 L570 0 L945 0 L1075 120 L1075 310 L945 430 L610 430 L610 700 L215 700 L170 130 L170 130 Z M930 40 L610 40 L610 390 L930 390 L1035 295 L1035 135 L930 40 L930 40 Z " />
<glyph glyph-name="afii10059" unicode="&#x40a;" horiz-adv-x="1133" d="M142 360 L557 360 L557 0 L932 0 L1062 120 L1062 280 L932 400 L597 400 L597 700 L557 700 L557 400 L142 400 L142 700 L102 700 L102 0 L142 0 L142 360 L142 360 Z M917 40 L597 40 L597 360 L917 360 L1022 265 L1022 135 L917 40 L917 40 Z " />
<glyph glyph-name="afii10060" unicode="&#x40b;" horiz-adv-x="816" d="M735 305 L620 410 L250 410 L250 660 L470 660 L470 700 L10 700 L10 660 L210 660 L210 0 L250 0 L250 370 L605 370 L695 290 L695 0 L735 0 L735 305 L735 305 Z " />
<glyph glyph-name="afii10061" unicode="&#x40c;" horiz-adv-x="707" d="M142 335 L382 335 L637 0 L687 0 L412 360 L667 700 L617 700 L377 375 L142 375 L142 700 L102 700 L102 0 L142 0 L142 335 L142 335 Z M364 770 L394 770 L494 950 L439 950 L364 770 L364 770 Z " />
<glyph glyph-name="afii10062" unicode="&#x40e;" horiz-adv-x="690" d="M225 0 L270 0 L680 700 L635 700 L360 230 L350 230 L60 700 L10 700 L320 200 L340 200 L225 0 L225 0 Z M490 910 L490 870 L445 830 L265 830 L220 870 L220 910 L180 910 L180 855 L250 790 L460 790 L530 855 L530 910 L490 910 L490 910 Z " />
<glyph glyph-name="afii10145" unicode="&#x40f;" horiz-adv-x="794" d="M692 0 L692 700 L652 700 L652 40 L142 40 L142 700 L102 700 L102 0 L377 0 L377 -140 L417 -140 L417 0 L692 0 L692 0 Z " />
<glyph glyph-name="afii10017" unicode="&#x410;" horiz-adv-x="740" d="M675 0 L720 0 L385 700 L355 700 L20 0 L65 0 L165 215 L575 215 L675 0 L675 0 Z M370 635 L555 255 L185 255 L370 635 L370 635 Z " />
<glyph glyph-name="afii10018" unicode="&#x411;" horiz-adv-x="773" d="M572 0 L702 120 L702 310 L572 430 L142 430 L142 660 L647 660 L647 700 L102 700 L102 0 L572 0 L572 0 Z M557 40 L142 40 L142 390 L557 390 L662 295 L662 135 L557 40 L557 40 Z " />
<glyph glyph-name="afii10019" unicode="&#x412;" horiz-adv-x="778" d="M602 375 L672 440 L672 595 L557 700 L102 700 L102 0 L592 0 L707 105 L707 275 L602 375 L602 375 Z M577 40 L142 40 L142 345 L577 345 L667 260 L667 120 L577 40 L577 40 Z M632 580 L632 455 L557 385 L142 385 L142 660 L542 660 L632 580 L632 580 Z " />
<glyph glyph-name="afii10020" unicode="&#x413;" horiz-adv-x="627" d="M142 0 L142 660 L617 660 L617 700 L102 700 L102 0 L142 0 L142 0 Z " />
<glyph glyph-name="afii10021" unicode="&#x414;" horiz-adv-x="800" d="M0 40 L0 -150 L40 -150 L40 0 L715 0 L715 -150 L755 -150 L755 40 L660 40 L660 700 L200 700 L155 140 L45 40 L0 40 L0 40 Z M195 125 L240 660 L620 660 L620 40 L105 40 L195 125 L195 125 Z " />
<glyph glyph-name="afii10022" unicode="&#x415;" horiz-adv-x="718" d="M102 700 L102 0 L667 0 L667 40 L142 40 L142 330 L552 330 L552 370 L142 370 L142 660 L657 660 L657 700 L102 700 L102 700 Z " />
<glyph glyph-name="afii10024" unicode="&#x416;" horiz-adv-x="1080" d="M560 0 L560 335 L755 335 L1010 0 L1060 0 L785 360 L1040 700 L990 700 L750 375 L560 375 L560 700 L520 700 L520 375 L330 375 L90 700 L40 700 L295 360 L20 0 L70 0 L325 335 L520 335 L520 0 L560 0 L560 0 Z " />
<glyph glyph-name="afii10025" unicode="&#x417;" horiz-adv-x="686" d="M525 365 L605 435 L605 595 L490 700 L45 700 L45 660 L475 660 L565 580 L565 450 L490 380 L195 380 L195 340 L495 340 L575 270 L575 120 L485 40 L35 40 L35 0 L500 0 L615 105 L615 285 L525 365 L525 365 Z " />
<glyph glyph-name="afii10026" unicode="&#x418;" horiz-adv-x="804" d="M142 700 L102 700 L102 0 L137 0 L662 635 L662 0 L702 0 L702 700 L667 700 L142 65 L142 700 L142 700 Z " />
<glyph glyph-name="afii10027" unicode="&#x419;" horiz-adv-x="804" d="M142 700 L102 700 L102 0 L137 0 L662 635 L662 0 L702 0 L702 700 L667 700 L142 65 L142 700 L142 700 Z M537 910 L537 870 L492 830 L312 830 L267 870 L267 910 L227 910 L227 855 L297 790 L507 790 L577 855 L577 910 L537 910 L537 910 Z " />
<glyph glyph-name="afii10028" unicode="&#x41a;" horiz-adv-x="707" d="M142 335 L382 335 L637 0 L687 0 L412 360 L667 700 L617 700 L377 375 L142 375 L142 700 L102 700 L102 0 L142 0 L142 335 L142 335 Z " />
<glyph glyph-name="afii10029" unicode="&#x41b;" horiz-adv-x="787" d="M170 130 L60 30 L10 30 L10 -10 L75 -10 L210 115 L255 660 L645 660 L645 0 L685 0 L685 700 L215 700 L170 130 L170 130 Z " />
<glyph glyph-name="afii10030" unicode="&#x41c;" horiz-adv-x="944" d="M472 235 L142 700 L102 700 L102 0 L142 0 L142 630 L457 185 L487 185 L802 630 L802 0 L842 0 L842 700 L802 700 L472 235 L472 235 Z " />
<glyph glyph-name="afii10031" unicode="&#x41d;" horiz-adv-x="794" d="M142 330 L652 330 L652 0 L692 0 L692 700 L652 700 L652 370 L142 370 L142 700 L102 700 L102 0 L142 0 L142 330 L142 330 Z " />
<glyph glyph-name="afii10032" unicode="&#x41e;" horiz-adv-x="792" d="M241 670 L551 670 L666 565 L666 135 L551 30 L241 30 L126 135 L126 565 L241 670 L241 670 Z M226 710 L86 580 L86 120 L226 -10 L566 -10 L706 120 L706 580 L566 710 L226 710 L226 710 Z " />
<glyph glyph-name="afii10033" unicode="&#x41f;" horiz-adv-x="794" d="M102 700 L102 0 L142 0 L142 660 L652 660 L652 0 L692 0 L692 700 L102 700 L102 700 Z " />
<glyph glyph-name="afii10034" unicode="&#x420;" horiz-adv-x="748" d="M557 250 L687 370 L687 580 L557 700 L102 700 L102 0 L142 0 L142 250 L557 250 L557 250 Z M647 565 L647 385 L542 290 L142 290 L142 660 L542 660 L647 565 L647 565 Z " />
<glyph glyph-name="afii10035" unicode="&#x421;" horiz-adv-x="697" d="M126 555 L241 660 L646 660 L646 700 L226 700 L86 570 L86 130 L226 0 L646 0 L646 40 L241 40 L126 145 L126 555 L126 555 Z " />
<glyph glyph-name="afii10036" unicode="&#x422;" horiz-adv-x="630" d="M335 0 L335 660 L615 660 L615 700 L15 700 L15 660 L295 660 L295 0 L335 0 L335 0 Z " />
<glyph glyph-name="afii10037" unicode="&#x423;" horiz-adv-x="690" d="M225 0 L270 0 L680 700 L635 700 L360 230 L350 230 L60 700 L10 700 L320 200 L340 200 L225 0 L225 0 Z " />
<glyph glyph-name="afii10038" unicode="&#x424;" horiz-adv-x="982" d="M776 620 L866 540 L866 180 L776 100 L511 100 L511 620 L776 620 L776 620 Z M471 660 L191 660 L76 555 L76 165 L191 60 L471 60 L471 -30 L511 -30 L511 60 L791 60 L906 165 L906 555 L791 660 L511 660 L511 750 L471 750 L471 660 L471 660 Z M471 620 L471 100 L206 100 L116 180 L116 540 L206 620 L471 620 L471 620 Z " />
<glyph glyph-name="afii10039" unicode="&#x425;" horiz-adv-x="660" d="M90 700 L40 700 L305 365 L20 0 L70 0 L330 330 L590 0 L640 0 L355 365 L620 700 L570 700 L330 395 L90 700 L90 700 Z " />
<glyph glyph-name="afii10040" unicode="&#x426;" horiz-adv-x="802" d="M662 700 L622 700 L622 40 L142 40 L142 700 L102 700 L102 0 L717 0 L717 -150 L757 -150 L757 40 L662 40 L662 700 L662 700 Z " />
<glyph glyph-name="afii10041" unicode="&#x427;" horiz-adv-x="753" d="M81 385 L206 270 L611 270 L611 0 L651 0 L651 700 L611 700 L611 310 L222 310 L121 400 L121 700 L81 700 L81 385 L81 385 Z " />
<glyph glyph-name="afii10042" unicode="&#x428;" horiz-adv-x="1084" d="M942 700 L942 40 L562 40 L562 700 L522 700 L522 40 L142 40 L142 700 L102 700 L102 0 L982 0 L982 700 L942 700 L942 700 Z " />
<glyph glyph-name="afii10043" unicode="&#x429;" horiz-adv-x="1122" d="M982 700 L942 700 L942 40 L562 40 L562 700 L522 700 L522 40 L142 40 L142 700 L102 700 L102 0 L1037 0 L1037 -150 L1077 -150 L1077 40 L982 40 L982 700 L982 700 Z " />
<glyph glyph-name="afii10044" unicode="&#x42a;" horiz-adv-x="826" d="M10 660 L200 660 L200 0 L625 0 L755 120 L755 300 L625 420 L240 420 L240 700 L10 700 L10 660 L10 660 Z M610 40 L240 40 L240 380 L610 380 L715 285 L715 135 L610 40 L610 40 Z " />
<glyph glyph-name="afii10045" unicode="&#x42b;" horiz-adv-x="969" d="M867 700 L827 700 L827 0 L867 0 L867 700 L867 700 Z M512 40 L142 40 L142 380 L512 380 L617 285 L617 135 L512 40 L512 40 Z M142 420 L142 700 L102 700 L102 0 L527 0 L657 120 L657 300 L527 420 L142 420 L142 420 Z " />
<glyph glyph-name="afii10046" unicode="&#x42c;" horiz-adv-x="748" d="M532 40 L142 40 L142 380 L532 380 L637 285 L637 135 L532 40 L532 40 Z M142 420 L142 700 L102 700 L102 0 L547 0 L677 120 L677 300 L547 420 L142 420 L142 420 Z " />
<glyph glyph-name="afii10047" unicode="&#x42d;" horiz-adv-x="681" d="M155 330 L555 330 L555 145 L440 40 L35 40 L35 0 L455 0 L595 130 L595 570 L455 700 L35 700 L35 660 L440 660 L555 555 L555 370 L155 370 L155 330 L155 330 Z " />
<glyph glyph-name="afii10048" unicode="&#x42e;" horiz-adv-x="1033" d="M507 710 L367 580 L367 370 L142 370 L142 700 L102 700 L102 0 L142 0 L142 330 L367 330 L367 120 L507 -10 L807 -10 L947 120 L947 580 L807 710 L507 710 L507 710 Z M522 670 L792 670 L907 565 L907 135 L792 30 L522 30 L407 135 L407 565 L522 670 L522 670 Z " />
<glyph glyph-name="afii10049" unicode="&#x42f;" horiz-adv-x="757" d="M615 280 L615 0 L655 0 L655 700 L230 700 L100 580 L100 400 L220 290 L45 0 L90 0 L260 280 L615 280 L615 280 Z M245 660 L615 660 L615 320 L245 320 L140 415 L140 565 L245 660 L245 660 Z " />
<glyph glyph-name="afii10065" unicode="&#x430;" horiz-adv-x="577" d="M456 110 L386 40 L171 40 L91 110 L91 175 L171 245 L456 245 L456 110 L456 110 Z M461 65 L471 0 L496 0 L496 400 L386 500 L111 500 L111 460 L371 460 L456 385 L456 285 L156 285 L51 190 L51 95 L156 0 L396 0 L461 65 L461 65 Z " />
<glyph glyph-name="afii10066" unicode="&#x431;" horiz-adv-x="617" d="M91 585 L91 105 L216 -10 L431 -10 L556 105 L556 325 L431 440 L131 440 L131 570 L231 660 L521 660 L521 700 L216 700 L91 585 L91 585 Z M516 310 L516 120 L416 30 L231 30 L131 120 L131 400 L416 400 L516 310 L516 310 Z " />
<glyph glyph-name="afii10067" unicode="&#x432;" horiz-adv-x="592" d="M451 260 L506 310 L506 410 L405 500 L86 500 L86 0 L426 0 L531 95 L531 190 L451 260 L451 260 Z M126 240 L416 240 L491 175 L491 110 L411 40 L126 40 L126 240 L126 240 Z M126 460 L391 460 L466 395 L466 325 L416 280 L126 280 L126 460 L126 460 Z " />
<glyph glyph-name="afii10068" unicode="&#x433;" horiz-adv-x="461" d="M126 0 L126 460 L451 460 L451 500 L86 500 L86 0 L126 0 L126 0 Z " />
<glyph glyph-name="afii10069" unicode="&#x434;" horiz-adv-x="625" d="M120 115 L40 40 L0 40 L0 -130 L40 -130 L40 0 L545 0 L545 -130 L585 -130 L585 40 L505 40 L505 500 L150 500 L120 115 L120 115 Z M160 100 L191 460 L465 460 L465 40 L95 40 L160 100 L160 100 Z " />
<glyph glyph-name="afii10070" unicode="&#x435;" horiz-adv-x="582" d="M197 510 L71 395 L71 115 L196 0 L476 0 L476 40 L211 40 L111 130 L111 225 L516 225 L516 395 L391 510 L197 510 L197 510 Z M111 380 L211 470 L376 470 L476 380 L476 265 L111 265 L111 380 L111 380 Z " />
<glyph glyph-name="afii10072" unicode="&#x436;" horiz-adv-x="820" d="M390 0 L430 0 L430 240 L580 240 L750 0 L800 0 L615 260 L785 500 L735 500 L580 280 L430 280 L430 500 L390 500 L390 280 L240 280 L85 500 L35 500 L205 260 L20 0 L70 0 L240 240 L390 240 L390 0 L390 0 Z " />
<glyph glyph-name="afii10073" unicode="&#x437;" horiz-adv-x="526" d="M145 235 L360 235 L425 175 L425 110 L345 40 L30 40 L30 0 L360 0 L465 95 L465 190 L395 255 L455 310 L455 410 L354 500 L45 500 L45 460 L339 460 L415 395 L415 325 L360 275 L145 275 L145 235 L145 235 Z " />
<glyph glyph-name="afii10074" unicode="&#x438;" horiz-adv-x="617" d="M126 0 L126 -1 L491 440 L491 0 L531 0 L531 500 L491 500 L126 60 L126 500 L86 500 L86 0 L126 0 L126 0 Z " />
<glyph glyph-name="afii10075" unicode="&#x439;" horiz-adv-x="617" d="M126 0 L126 -1 L491 440 L491 0 L531 0 L531 500 L491 500 L126 60 L126 500 L86 500 L86 0 L126 0 L126 0 Z M458 710 L418 710 L418 661 L383 630 L233 630 L198 661 L198 710 L158 710 L158 645 L218 590 L398 590 L458 645 L458 710 L458 710 Z " />
<glyph glyph-name="afii10076" unicode="&#x43a;" horiz-adv-x="541" d="M521 0 L336 260 L506 500 L456 500 L301 280 L126 280 L126 500 L86 500 L86 0 L126 0 L126 240 L301 240 L471 0 L521 0 L521 0 Z " />
<glyph glyph-name="afii10077" unicode="&#x43b;" horiz-adv-x="621" d="M140 110 L55 30 L10 30 L10 -10 L70 -10 L180 95 L210 460 L495 460 L495 0 L535 0 L535 500 L170 500 L140 110 L140 110 Z " />
<glyph glyph-name="afii10078" unicode="&#x43c;" horiz-adv-x="732" d="M381 135 L606 435 L606 0 L646 0 L646 500 L606 500 L366 175 L126 500 L86 500 L86 0 L126 0 L126 435 L351 135 L381 135 L381 135 Z " />
<glyph glyph-name="afii10079" unicode="&#x43d;" horiz-adv-x="607" d="M126 0 L126 225 L481 225 L481 0 L521 0 L521 500 L481 500 L481 265 L126 265 L126 500 L86 500 L86 0 L126 0 L126 0 Z " />
<glyph glyph-name="afii10080" unicode="&#x43e;" horiz-adv-x="612" d="M71 395 L71 105 L196 -10 L416 -10 L541 105 L541 395 L416 510 L196 510 L71 395 L71 395 Z M501 380 L501 120 L401 30 L211 30 L111 120 L111 380 L211 470 L401 470 L501 380 L501 380 Z " />
<glyph glyph-name="afii10081" unicode="&#x43f;" horiz-adv-x="607" d="M126 0 L126 460 L481 460 L481 0 L521 0 L521 500 L86 500 L86 0 L126 0 L126 0 Z " />
<glyph glyph-name="afii10082" unicode="&#x440;" horiz-adv-x="612" d="M196 460 L401 460 L501 370 L501 130 L401 40 L126 40 L126 390 L196 460 L196 460 Z M186 500 L121 435 L111 500 L86 500 L86 -200 L126 -200 L126 0 L416 0 L541 115 L541 385 L416 500 L186 500 L186 500 Z " />
<glyph glyph-name="afii10083" unicode="&#x441;" horiz-adv-x="521" d="M111 130 L111 370 L211 460 L481 460 L481 500 L196 500 L71 385 L71 115 L196 0 L481 0 L481 40 L211 40 L111 130 L111 130 Z " />
<glyph glyph-name="afii10084" unicode="&#x442;" horiz-adv-x="470" d="M255 0 L255 460 L455 460 L455 500 L15 500 L15 460 L215 460 L215 0 L255 0 L255 0 Z " />
<glyph glyph-name="afii10085" unicode="&#x443;" horiz-adv-x="515" d="M175 -200 L215 -200 L505 500 L465 500 L270 30 L260 30 L50 500 L10 500 L230 0 L255 0 L175 -200 L175 -200 Z " />
<glyph glyph-name="afii10086" unicode="&#x444;" horiz-adv-x="752" d="M396 -200 L396 0 L556 0 L681 115 L681 385 L556 500 L396 500 L396 700 L356 700 L356 500 L196 500 L71 385 L71 115 L196 0 L356 0 L356 -200 L396 -200 L396 -200 Z M641 370 L641 130 L541 40 L396 40 L396 460 L541 460 L641 370 L641 370 Z M111 130 L111 370 L211 460 L356 460 L356 40 L211 40 L111 130 L111 130 Z " />
<glyph glyph-name="afii10087" unicode="&#x445;" horiz-adv-x="505" d="M435 0 L485 0 L275 260 L470 500 L420 500 L250 285 L80 500 L30 500 L225 260 L20 0 L65 0 L250 230 L435 0 L435 0 Z " />
<glyph glyph-name="afii10088" unicode="&#x446;" horiz-adv-x="631" d="M551 0 L551 -130 L591 -130 L591 40 L511 40 L511 500 L471 500 L471 40 L126 40 L126 500 L86 500 L86 0 L551 0 L551 0 Z " />
<glyph glyph-name="afii10089" unicode="&#x447;" horiz-adv-x="587" d="M461 0 L501 0 L501 500 L461 500 L461 225 L206 225 L116 305 L116 500 L76 500 L76 290 L191 185 L461 185 L461 0 L461 0 Z " />
<glyph glyph-name="afii10090" unicode="&#x448;" horiz-adv-x="832" d="M396 500 L396 40 L126 40 L126 500 L86 500 L86 0 L746 0 L746 500 L706 500 L706 40 L436 40 L436 500 L396 500 L396 500 Z " />
<glyph glyph-name="afii10091" unicode="&#x449;" horiz-adv-x="866" d="M786 0 L786 -130 L826 -130 L826 40 L746 40 L746 500 L706 500 L706 40 L436 40 L436 500 L396 500 L396 40 L126 40 L126 500 L86 500 L86 0 L786 0 L786 0 Z " />
<glyph glyph-name="afii10092" unicode="&#x44a;" horiz-adv-x="631" d="M475 0 L580 95 L580 215 L475 310 L210 310 L210 500 L10 500 L10 460 L170 460 L170 0 L475 0 L475 0 Z M210 270 L460 270 L540 200 L540 110 L460 40 L210 40 L210 270 L210 270 Z " />
<glyph glyph-name="afii10093" unicode="&#x44b;" horiz-adv-x="742" d="M391 0 L496 95 L496 215 L391 310 L126 310 L126 500 L86 500 L86 0 L391 0 L391 0 Z M126 270 L376 270 L456 200 L456 110 L376 40 L126 40 L126 270 L126 270 Z M656 0 L656 500 L616 500 L616 0 L656 0 L656 0 Z " />
<glyph glyph-name="afii10094" unicode="&#x44c;" horiz-adv-x="557" d="M401 0 L506 95 L506 215 L401 310 L126 310 L126 500 L86 500 L86 0 L401 0 L401 0 Z M126 270 L386 270 L466 200 L466 110 L386 40 L126 40 L126 270 L126 270 Z " />
<glyph glyph-name="afii10095" unicode="&#x44d;" horiz-adv-x="511" d="M300 40 L30 40 L30 0 L315 0 L440 115 L440 385 L315 500 L30 500 L30 460 L300 460 L400 370 L400 270 L135 270 L135 230 L400 230 L400 130 L300 40 L300 40 Z " />
<glyph glyph-name="afii10096" unicode="&#x44e;" horiz-adv-x="797" d="M296 395 L296 265 L126 265 L126 500 L86 500 L86 0 L126 0 L126 230 L296 230 L296 105 L421 -10 L601 -10 L726 105 L726 395 L601 510 L421 510 L296 395 L296 395 Z M686 380 L686 120 L586 30 L436 30 L336 120 L336 380 L436 470 L586 470 L686 380 L686 380 Z " />
<glyph glyph-name="afii10097" unicode="&#x44f;" horiz-adv-x="571" d="M170 500 L65 405 L65 290 L160 204 L40 0 L85 0 L200 195 L445 195 L445 0 L485 0 L485 500 L170 500 L170 500 Z M445 230 L190 230 L105 305 L105 390 L185 460 L445 460 L445 230 L445 230 Z " />
<glyph glyph-name="afii10071" unicode="&#x451;" horiz-adv-x="582" d="M233 625 L233 695 L173 695 L173 625 L233 625 L233 625 Z M413 625 L413 695 L353 695 L353 625 L413 625 L413 625 Z M197 510 L71 395 L71 115 L196 0 L476 0 L476 40 L211 40 L111 130 L111 225 L516 225 L516 395 L391 510 L197 510 L197 510 Z M111 380 L211 470 L376 470 L476 380 L476 265 L111 265 L111 380 L111 380 Z " />
<glyph glyph-name="afii10099" unicode="&#x452;" horiz-adv-x="616" d="M545 95 L545 325 L430 430 L165 430 L165 555 L320 555 L320 595 L165 595 L165 700 L125 700 L125 595 L10 595 L10 555 L125 555 L125 0 L165 0 L165 390 L415 390 L505 310 L505 110 L405 20 L350 20 L350 -20 L420 -20 L545 95 L545 95 Z " />
<glyph glyph-name="afii10100" unicode="&#x453;" horiz-adv-x="461" d="M126 0 L126 460 L451 460 L451 500 L86 500 L86 0 L126 0 L126 0 Z M253 570 L283 570 L383 750 L328 750 L253 570 L253 570 Z " />
<glyph glyph-name="afii10101" unicode="&#x454;" horiz-adv-x="521" d="M111 130 L111 230 L396 230 L396 270 L111 270 L111 370 L211 460 L481 460 L481 500 L196 500 L71 385 L71 115 L196 0 L481 0 L481 40 L211 40 L111 130 L111 130 Z " />
<glyph glyph-name="afii10102" unicode="&#x455;" horiz-adv-x="536" d="M171 275 L96 345 L96 390 L176 460 L461 460 L461 500 L161 500 L56 405 L56 325 L156 235 L371 235 L451 165 L451 110 L371 40 L61 40 L61 0 L386 0 L491 95 L491 180 L386 275 L171 275 L171 275 Z " />
<glyph glyph-name="afii10103" unicode="&#x456;" horiz-adv-x="222" d="M91 500 L91 0 L131 0 L131 500 L91 500 L91 500 Z M131 610 L131 700 L91 700 L91 610 L131 610 L131 610 Z " />
<glyph glyph-name="afii10104" unicode="&#x457;" horiz-adv-x="220" d="M90 500 L90 0 L130 0 L130 500 L90 500 L90 500 Z M50 625 L50 695 L-10 695 L-10 625 L50 625 L50 625 Z M230 625 L230 695 L170 695 L170 625 L230 625 L230 625 Z " />
<glyph glyph-name="afii10105" unicode="&#x458;" horiz-adv-x="237" d="M6 -160 L-79 -160 L-79 -200 L21 -200 L146 -85 L146 500 L106 500 L106 -70 L6 -160 L6 -160 Z M146 610 L146 700 L106 700 L106 610 L146 610 L146 610 Z " />
<glyph glyph-name="afii10106" unicode="&#x459;" horiz-adv-x="886" d="M730 0 L835 95 L835 215 L730 310 L485 310 L485 500 L170 500 L140 110 L55 30 L10 30 L10 -10 L70 -10 L180 95 L210 460 L445 460 L445 0 L730 0 L730 0 Z M485 270 L715 270 L795 200 L795 110 L715 40 L485 40 L485 270 L485 270 Z " />
<glyph glyph-name="afii10107" unicode="&#x45a;" horiz-adv-x="867" d="M711 0 L816 95 L816 195 L711 290 L466 290 L466 500 L426 500 L426 290 L126 290 L126 500 L86 500 L86 0 L126 0 L126 250 L426 250 L426 0 L711 0 L711 0 Z M466 250 L696 250 L776 180 L776 110 L696 40 L466 40 L466 250 L466 250 Z " />
<glyph glyph-name="afii10108" unicode="&#x45b;" horiz-adv-x="626" d="M545 325 L430 430 L165 430 L165 555 L320 555 L320 595 L165 595 L165 700 L125 700 L125 595 L10 595 L10 555 L125 555 L125 0 L165 0 L165 390 L415 390 L505 310 L505 0 L545 0 L545 325 L545 325 Z " />
<glyph glyph-name="afii10109" unicode="&#x45c;" horiz-adv-x="541" d="M521 0 L336 260 L506 500 L456 500 L301 280 L126 280 L126 500 L86 500 L86 0 L126 0 L126 240 L301 240 L471 0 L521 0 L521 0 Z M273 570 L303 570 L403 750 L348 750 L273 570 L273 570 Z " />
<glyph glyph-name="afii10110" unicode="&#x45e;" horiz-adv-x="515" d="M175 -200 L215 -200 L505 500 L465 500 L270 30 L260 30 L50 500 L10 500 L230 0 L255 0 L175 -200 L175 -200 Z M415 710 L375 710 L375 661 L340 630 L190 630 L155 661 L155 710 L115 710 L115 645 L175 590 L355 590 L415 645 L415 710 L415 710 Z " />
<glyph glyph-name="afii10193" unicode="&#x45f;" horiz-adv-x="612" d="M286 0 L286 -130 L326 -130 L326 0 L526 0 L526 500 L486 500 L486 40 L126 40 L126 500 L86 500 L86 0 L286 0 L286 0 Z " />
<glyph glyph-name="afii10050" unicode="&#x490;" horiz-adv-x="627" d="M617 660 L617 800 L577 800 L577 700 L102 700 L102 0 L142 0 L142 660 L617 660 L617 660 Z " />
<glyph glyph-name="afii10098" unicode="&#x491;" horiz-adv-x="461" d="M451 460 L451 590 L411 590 L411 500 L86 500 L86 0 L126 0 L126 460 L451 460 L451 460 Z " />
<glyph glyph-name="uni1E9E" unicode="&#x1e9e;" horiz-adv-x="748" d="M357 400 L532 400 L637 305 L637 135 L532 40 L252 40 L252 0 L547 0 L677 120 L677 320 L547 440 L410 440 L646 680 L646 710 L242 710 L102 580 L102 0 L142 0 L142 565 L257 670 L586 670 L357 440 L357 400 L357 400 Z " />
<glyph glyph-name="endash" unicode="&#x2013;" horiz-adv-x="602" d="M51 330 L551 330 L551 370 L51 370 L51 330 L51 330 Z " />
<glyph glyph-name="emdash" unicode="&#x2014;" horiz-adv-x="802" d="M51 330 L751 330 L751 370 L51 370 L51 330 L51 330 Z " />
<glyph glyph-name="quoteleft" unicode="&#x2018;" horiz-adv-x="212" d="M141 690 L116 700 L71 610 L71 540 L131 540 L131 610 L106 610 L141 690 L141 690 Z " />
<glyph glyph-name="quoteright" unicode="&#x2019;" horiz-adv-x="212" d="M71 550 L96 540 L141 630 L141 700 L81 700 L81 630 L106 630 L71 550 L71 550 Z " />
<glyph glyph-name="quotesinglbase" unicode="&#x201a;" horiz-adv-x="212" d="M71 -80 L96 -90 L141 0 L141 70 L81 70 L81 0 L106 0 L71 -80 L71 -80 Z " />
<glyph glyph-name="quotedblleft" unicode="&#x201c;" horiz-adv-x="337" d="M266 690 L241 700 L196 610 L196 540 L256 540 L256 610 L231 610 L266 690 L266 690 Z M141 690 L116 700 L71 610 L71 540 L131 540 L131 610 L106 610 L141 690 L141 690 Z " />
<glyph glyph-name="quotedblright" unicode="&#x201d;" horiz-adv-x="337" d="M71 550 L96 540 L141 630 L141 700 L81 700 L81 630 L106 630 L71 550 L71 550 Z M196 550 L221 540 L266 630 L266 700 L206 700 L206 630 L231 630 L196 550 L196 550 Z " />
<glyph glyph-name="quotedblbase" unicode="&#x201e;" horiz-adv-x="337" d="M71 -80 L96 -90 L141 0 L141 70 L81 70 L81 0 L106 0 L71 -80 L71 -80 Z M196 -80 L221 -90 L266 0 L266 70 L206 70 L206 0 L231 0 L196 -80 L196 -80 Z " />
<glyph glyph-name="dagger" unicode="&#x2020;" horiz-adv-x="572" d="M61 510 L266 510 L266 -50 L306 -50 L306 510 L511 510 L511 550 L306 550 L306 750 L266 750 L266 550 L61 550 L61 510 L61 510 Z " />
<glyph glyph-name="daggerdbl" unicode="&#x2021;" horiz-adv-x="592" d="M71 120 L276 120 L276 -50 L316 -50 L316 120 L521 120 L521 160 L316 160 L316 540 L521 540 L521 580 L316 580 L316 750 L276 750 L276 580 L71 580 L71 540 L276 540 L276 160 L71 160 L71 120 L71 120 Z " />
<glyph glyph-name="bullet" unicode="&#x2022;" horiz-adv-x="386" d="M233 310 L233 390 L153 390 L153 310 L233 310 L233 310 Z " />
<glyph glyph-name="ellipsis" unicode="&#x2026;" horiz-adv-x="602" d="M131 0 L131 70 L71 70 L71 0 L131 0 L131 0 Z M331 0 L331 70 L271 70 L271 0 L331 0 L331 0 Z M531 0 L531 70 L471 70 L471 0 L531 0 L531 0 Z " />
<glyph glyph-name="perthousand" unicode="&#x2030;" horiz-adv-x="1257" d="M676 700 L626 700 L186 0 L236 0 L676 700 L676 700 Z M91 460 L91 610 L161 670 L251 670 L321 610 L321 460 L251 400 L161 400 L91 460 L91 460 Z M51 445 L146 360 L266 360 L361 445 L361 625 L266 710 L146 710 L51 625 L51 445 L51 445 Z M551 95 L551 245 L621 305 L711 305 L781 245 L781 95 L711 35 L621 35 L551 95 L551 95 Z M511 80 L606 -5 L726 -5 L821 80 L821 260 L726 345 L606 345 L511 260 L511 80 L511 80 Z M936 95 L936 245 L1006 305 L1096 305 L1166 245 L1166 95 L1096 35 L1006 35 L936 95 L936 95 Z M896 80 L991 -5 L1111 -5 L1206 80 L1206 260 L1111 345 L991 345 L896 260 L896 80 L896 80 Z " />
<glyph glyph-name="guilsinglleft" unicode="&#x2039;" horiz-adv-x="412" d="M51 255 L321 -10 L351 20 L106 255 L351 490 L321 520 L51 255 L51 255 Z " />
<glyph glyph-name="guilsinglright" unicode="&#x203a;" horiz-adv-x="412" d="M361 255 L91 520 L61 490 L306 255 L61 20 L91 -10 L361 255 L361 255 Z " />
<glyph glyph-name="fraction" unicode="&#x2044;" horiz-adv-x="568" d="M530 700 L480 700 L40 0 L90 0 L530 700 L530 700 Z " />
<glyph glyph-name="foursuperior" unicode="&#x2074;" horiz-adv-x="442" d="M301 370 L341 370 L341 440 L386 440 L386 475 L341 475 L341 700 L296 700 L61 470 L61 440 L301 440 L301 370 L301 370 Z M301 475 L116 475 L301 655 L301 475 L301 475 Z " />
<glyph glyph-name="Euro" unicode="&#x20ac;" horiz-adv-x="716" d="M40 410 L130 410 L130 290 L40 290 L40 250 L130 250 L130 130 L270 0 L665 0 L665 40 L285 40 L170 145 L170 250 L505 250 L505 290 L170 290 L170 410 L505 410 L505 450 L170 450 L170 555 L285 660 L665 660 L665 700 L270 700 L130 570 L130 450 L40 450 L40 410 L40 410 Z " />
<glyph glyph-name="uni20B4" unicode="&#x20b4;" horiz-adv-x="732" d="M61 310 L61 270 L173 270 L146 245 L146 120 L276 0 L546 0 L546 40 L291 40 L186 135 L186 230 L228 270 L671 270 L671 310 L61 310 L61 310 Z M671 390 L671 430 L559 430 L586 455 L586 580 L456 700 L186 700 L186 660 L441 660 L546 565 L546 470 L504 430 L61 430 L61 390 L671 390 L671 390 Z " />
<glyph glyph-name="uni20BD" unicode="&#x20bd;" horiz-adv-x="767" d="M56 140 L141 140 L141 0 L181 0 L181 140 L586 140 L586 180 L181 180 L181 280 L576 280 L706 400 L706 580 L576 700 L141 700 L141 320 L56 320 L56 280 L141 280 L141 180 L56 180 L56 140 L56 140 Z M666 565 L666 415 L561 320 L181 320 L181 660 L561 660 L666 565 L666 565 Z " />
<glyph glyph-name="afii61352" unicode="&#x2116;" horiz-adv-x="1168" d="M787 200 L1077 200 L1077 240 L787 240 L787 200 L787 200 Z M817 455 L817 610 L887 670 L977 670 L1047 610 L1047 455 L977 395 L887 395 L817 455 L817 455 Z M777 440 L872 355 L992 355 L1087 440 L1087 625 L992 710 L872 710 L777 625 L777 440 L777 440 Z M617 70 L137 700 L102 700 L102 0 L142 0 L142 630 L622 0 L657 0 L657 700 L617 700 L617 70 L617 70 Z " />
<glyph glyph-name="trademark" unicode="&#x2122;" horiz-adv-x="961" d="M215 310 L215 660 L370 660 L370 700 L20 700 L20 660 L175 660 L175 310 L215 310 L215 310 Z M680 400 L860 640 L860 310 L900 310 L900 700 L860 700 L670 446 L480 700 L440 700 L440 310 L480 310 L480 640 L660 400 L680 400 L680 400 Z " />
<glyph glyph-name="minus" unicode="&#x2212;" horiz-adv-x="542" d="M51 330 L491 330 L491 370 L51 370 L51 330 L51 330 Z " />
</font>
</svg>
